<?xml version="1.0" encoding="UTF-8" standalone="no"?>
<!DOCTYPE svg PUBLIC "-//W3C//DTD SVG 20010904//EN" "http://www.w3.org/TR/2001/REC-SVG-20010904/DTD/svg10.dtd"[]>
<svg version="1.1" xmlns="http://www.w3.org/2000/svg" d1p1:xlink="http://www.w3.org/1999/xlink" viewBox="0 0 100 50" xmlns:d1p1="xmlns">
  <path stroke="none" fill="#f0f0f0" d="M 68.600,41.500 C 61.300,41.600 55.400,35.700 55.300,28.400 55.300,28.300 55.300,28.300 55.300,28.200 55.300,26.100 55.800,24.000 56.800,22.200 56.800,22.200 56.800,22.200 56.800,22.200 58.100,19.800 60.000,17.900 62.400,16.600 62.400,16.600 62.400,16.600 62.400,16.600 62.500,16.600 69.800,14.900 74.800,18.400 77.300,20.200 78.800,23.000 79.300,26.800 79.400,36.200 72.500,37.700 71.700,37.800 70.900,37.900 66.200,38.400 63.400,36.400 60.600,34.400 60.100,32.600 59.600,29.400 59.300,26.900 60.000,24.500 61.700,22.600 63.300,20.700 65.600,19.700 68.000,19.700 70.600,19.700 73.000,20.800 74.700,22.800 76.100,24.600 76.500,27.100 75.800,30.000 75.100,32.900 71.000,35.400 67.100,34.200 66.800,34.200 66.600,34.300 66.500,34.600 66.400,34.800 66.600,35.100 66.800,35.200 70.900,36.600 75.300,34.500 76.800,30.400 76.800,30.400 76.800,30.300 76.800,30.300 77.500,27.100 77.100,24.200 75.500,22.200 73.900,20.200 71.300,18.900 68.100,18.700 65.400,18.700 62.800,19.800 61.000,21.800 59.100,23.900 58.200,26.700 58.700,29.500 59.200,32.900 60.600,35.500 62.800,37.100 64.700,38.400 66.900,39.100 69.200,39.000 70.100,39.000 71.000,38.900 71.800,38.700 72.700,38.600 80.400,36.900 80.300,26.600 79.800,22.500 78.100,19.400 75.300,17.500 73.400,16.200 71.100,15.400 68.800,15.200 68.833,15.200 68.867,15.200 68.900,15.200 76.200,15.900 81.600,22.400 80.800,29.700 80.200,36.100 75.000,41.200 68.600,41.700 68.600,41.633 68.600,41.567 68.600,41.500 68.600,41.500 68.600,41.500 68.600,41.500 Z M 52.000,20.200 C 52.200,19.200 52.400,18.200 52.600,17.200 54.933,17.200 57.267,17.200 59.600,17.200 58.500,18.000 57.600,19.100 56.800,20.200 55.200,20.200 53.600,20.200 52.000,20.200 52.000,20.200 52.000,20.200 52.000,20.200 Z M 51.600,23.500 C 51.400,23.300 51.200,23.100 51.000,22.900 50.267,22.900 49.533,22.900 48.800,22.900 48.600,23.100 48.400,23.300 48.200,23.500 48.100,23.067 48.000,22.633 47.900,22.200 49.267,22.200 50.633,22.200 52.000,22.200 51.867,22.633 51.733,23.067 51.600,23.500 51.600,23.500 51.600,23.500 51.600,23.500 Z M 40.400,17.200 C 42.633,17.200 44.867,17.200 47.100,17.200 47.300,18.200 47.500,19.200 47.700,20.200 46.233,20.200 44.767,20.200 43.300,20.200 42.400,19.100 41.500,18.100 40.400,17.200 40.400,17.200 40.400,17.200 40.400,17.200 Z M 31.400,41.500 C 24.100,40.900 18.700,34.400 19.300,27.100 19.900,20.700 25.000,15.600 31.400,15.000 31.700,15.000 32.000,15.000 32.300,15.000 29.600,15.100 26.900,15.900 24.700,17.400 21.900,19.300 20.200,22.400 19.700,26.600 19.600,36.800 27.300,38.500 28.200,38.600 29.000,38.800 29.900,38.900 30.800,38.900 33.100,39.000 35.300,38.300 37.200,37.000 39.400,35.400 40.800,32.800 41.400,29.400 42.100,24.200 38.500,19.400 33.300,18.700 32.800,18.600 32.400,18.600 31.900,18.600 29.000,18.600 26.300,19.900 24.500,22.100 22.900,24.100 22.500,27.000 23.300,30.300 24.100,33.600 28.800,36.400 33.200,35.100 33.400,35.000 33.600,34.700 33.500,34.500 33.500,34.200 33.200,34.000 32.900,34.100 32.900,34.100 32.900,34.100 32.900,34.100 29.000,35.300 25.500,33.600 24.200,30.000 22.900,26.400 23.900,24.500 25.300,22.700 27.000,20.800 29.400,19.700 32.000,19.700 36.700,19.700 40.500,23.500 40.500,28.200 40.500,28.600 40.500,28.900 40.400,29.300 39.900,32.500 38.600,34.900 36.600,36.300 34.600,37.700 30.200,38.100 28.300,37.700 26.400,37.300 20.600,36.100 20.700,26.700 21.200,22.900 22.700,20.100 25.200,18.300 30.200,14.800 37.500,16.500 37.600,16.500 44.100,20.000 46.500,28.100 43.000,34.500 40.700,38.800 36.200,41.500 31.400,41.500 31.400,41.500 31.400,41.500 31.400,41.500 Z M 50.100,8.100 C 55.900,8.100 62.500,11.900 65.600,14.000 55.500,14.000 45.400,14.000 35.300,14.000 38.100,11.900 44.200,8.000 50.100,8.100 50.100,8.100 50.100,8.100 50.100,8.100 Z M 36.700,15.000 C 40.033,15.000 43.367,15.000 46.700,15.000 46.800,15.567 46.900,16.133 47.000,16.700 44.567,16.700 42.133,16.700 39.700,16.700 38.800,16.000 37.800,15.400 36.700,15.000 36.700,15.000 36.700,15.000 36.700,15.000 Z M 49.100,16.700 C 49.000,16.133 48.900,15.567 48.800,15.000 49.500,15.000 50.200,15.000 50.900,15.000 50.800,15.567 50.700,16.133 50.600,16.700 50.100,16.700 49.600,16.700 49.100,16.700 49.100,16.700 49.100,16.700 49.100,16.700 Z M 49.800,20.200 C 49.600,19.200 49.400,18.200 49.200,17.200 49.633,17.200 50.067,17.200 50.500,17.200 50.333,18.200 50.167,19.200 50.000,20.200 49.933,20.200 49.867,20.200 49.800,20.200 49.800,20.200 49.800,20.200 49.800,20.200 Z M 60.300,16.700 C 57.767,16.700 55.233,16.700 52.700,16.700 52.767,16.133 52.833,15.567 52.900,15.000 56.367,15.000 59.833,15.000 63.300,15.000 62.200,15.400 61.200,16.000 60.300,16.700 60.300,16.700 60.300,16.700 60.300,16.700 Z M 68.900,14.000 C 68.833,13.900 68.767,13.800 68.700,13.700 68.300,13.400 58.700,6.200 50.100,6.100 41.500,6.000 32.800,13.400 32.400,13.700 32.333,13.800 32.267,13.900 32.200,14.000 31.933,14.000 31.667,14.000 31.400,14.000 23.500,14.000 17.100,20.400 17.100,28.300 17.100,36.200 23.500,42.600 31.400,42.600 39.300,42.600 45.700,36.200 45.700,28.300 45.700,28.300 45.700,28.200 45.700,28.200 45.700,26.100 45.200,24.100 44.300,22.200 44.800,22.200 45.300,22.200 45.800,22.200 46.267,23.900 46.733,25.600 47.200,27.300 48.000,26.467 48.800,25.633 49.600,24.800 49.800,24.800 50.000,24.800 50.200,24.800 51.033,25.633 51.867,26.467 52.700,27.300 53.133,25.600 53.567,23.900 54.000,22.200 54.567,22.200 55.133,22.200 55.700,22.200 54.800,24.100 54.300,26.100 54.300,28.200 54.200,36.100 60.600,42.500 68.500,42.600 76.400,42.700 82.800,36.300 82.900,28.400 83.000,20.600 76.700,14.200 68.900,14.000 68.900,14.000 68.900,14.000 68.900,14.000 Z " />
  <path stroke="none" fill="#f0f0f0" d="M 34.600,28.200 C 34.600,26.400 33.200,25.000 31.400,25.000 29.600,25.000 28.200,26.400 28.200,28.200 28.200,30.000 29.600,31.400 31.400,31.400 33.100,31.500 34.500,30.100 34.600,28.400 34.600,28.300 34.600,28.300 34.600,28.200 34.600,28.200 34.600,28.200 34.600,28.200 Z " />
  <path stroke="none" fill="#f0f0f0" d="M 71.700,28.200 C 71.400,26.500 69.700,25.300 68.000,25.600 66.700,25.800 65.600,26.900 65.400,28.200 65.100,29.900 66.200,31.600 68.000,31.900 69.700,32.200 71.400,31.100 71.700,29.300 71.800,29.000 71.800,28.600 71.700,28.200 71.700,28.200 71.700,28.200 71.700,28.200 Z " />
</svg>