<?xml version="1.0" encoding="UTF-8" standalone="no"?>
<!DOCTYPE svg PUBLIC "-//W3C//DTD SVG 20010904//EN" "http://www.w3.org/TR/2001/REC-SVG-20010904/DTD/svg10.dtd"[]>
<svg version="1.1" xmlns="http://www.w3.org/2000/svg" d1p1:xlink="http://www.w3.org/1999/xlink" viewBox="0 0 100 50" xmlns:d1p1="xmlns">
  <path stroke="none" fill="#f0f0f0" d="M 41.600,33.900 C 41.500,33.500 41.300,33.100 41.000,32.800 40.467,32.900 39.933,33.000 39.400,33.100 38.767,33.700 38.133,34.300 37.500,34.900 36.567,34.900 35.633,34.900 34.700,34.900 34.700,37.933 34.700,40.967 34.700,44.000 37.033,44.000 39.367,44.000 41.700,44.000 41.700,41.533 41.700,39.067 41.700,36.600 41.700,36.600 41.500,35.200 44.500,34.500 44.500,34.500 41.900,34.600 41.600,33.900 41.600,33.900 41.600,33.900 41.600,33.900 Z " />
  <path stroke="none" fill="#f0f0f0" d="M 49.600,33.800 C 48.400,34.400 47.200,35.000 46.000,35.600 46.100,35.600 46.200,35.600 46.300,35.600 46.300,35.600 51.700,36.600 51.700,36.500 51.700,36.400 51.400,34.600 51.400,34.600 50.800,34.333 50.200,34.067 49.600,33.800 49.600,33.800 49.600,33.800 49.600,33.800 Z " />
  <path stroke="none" fill="#f0f0f0" d="M 54.500,34.600 C 54.167,35.200 53.833,35.800 53.500,36.400 53.500,36.400 55.400,37.600 55.500,37.400 55.700,36.800 55.900,36.100 55.900,35.500 55.433,35.200 54.967,34.900 54.500,34.600 54.500,34.600 54.500,34.600 54.500,34.600 Z " />
  <path stroke="none" fill="#f0f0f0" d="M 42.000,12.400 C 42.000,10.200 42.000,8.000 42.000,5.800 39.667,5.800 37.333,5.800 35.000,5.800 35.000,8.500 35.000,11.200 35.000,13.900 35.900,13.900 36.800,13.900 37.700,13.900 38.367,14.400 39.033,14.900 39.700,15.400 40.233,15.500 40.767,15.600 41.300,15.700 41.600,15.400 41.800,15.100 41.900,14.700 42.200,14.200 44.800,14.200 44.800,14.200 41.700,13.600 42.000,12.400 42.000,12.400 42.000,12.400 42.000,12.400 42.000,12.400 Z " />
  <path stroke="none" fill="#f0f0f0" d="M 50.700,12.800 C 50.700,12.800 51.000,11.200 51.000,11.000 49.200,11.200 47.400,11.500 45.600,11.900 45.500,11.900 45.400,11.900 45.300,11.900 46.500,12.467 47.700,13.033 48.900,13.600 49.500,13.333 50.100,13.067 50.700,12.800 50.700,12.800 50.700,12.800 50.700,12.800 Z " />
  <path stroke="none" fill="#f0f0f0" d="M 51.800,15.700 C 52.267,15.400 52.733,15.100 53.200,14.800 53.100,14.200 53.000,13.500 52.900,12.900 52.700,12.700 50.800,13.900 50.800,13.900 51.133,14.500 51.467,15.100 51.800,15.700 51.800,15.700 51.800,15.700 51.800,15.700 Z " />
  <path stroke="none" fill="#f0f0f0" d="M 35.900,23.200 C 35.900,22.600 35.400,22.100 34.800,22.100 34.767,22.100 34.733,22.100 34.700,22.100 34.100,22.100 33.600,22.600 33.600,23.200 33.500,23.800 34.000,24.300 34.600,24.400 34.633,24.400 34.667,24.400 34.700,24.400 35.400,24.400 35.900,23.900 35.900,23.200 35.900,23.200 35.900,23.200 35.900,23.200 35.900,23.200 35.900,23.200 35.900,23.200 Z " />
  <path stroke="none" fill="#f0f0f0" d="M 42.600,22.400 C 42.600,23.063 42.063,23.600 41.400,23.600 40.737,23.600 40.200,23.063 40.200,22.400 40.200,21.737 40.737,21.200 41.400,21.200 42.063,21.200 42.600,21.737 42.600,22.400 42.600,22.400 42.600,22.400 42.600,22.400 Z " />
  <path stroke="none" fill="#f0f0f0" d="M 24.000,22.100 C 23.400,21.800 22.700,22.100 22.400,22.800 22.100,23.400 22.400,24.100 23.100,24.400 23.300,24.500 23.500,24.500 23.700,24.500 24.300,24.600 24.900,24.100 25.000,23.500 25.100,22.900 24.700,22.300 24.100,22.200 24.100,22.100 24.000,22.100 24.000,22.100 24.000,22.100 24.000,22.100 24.000,22.100 Z " />
  <path stroke="none" fill="#f0f0f0" d="M 47.000,26.900 C 47.000,27.600 47.600,28.100 48.300,28.000 48.800,28.000 49.100,27.700 49.300,27.300 49.400,26.600 49.000,26.000 48.300,25.900 48.300,25.900 48.300,25.900 48.300,25.900 47.700,25.800 47.100,26.300 47.000,26.900 47.000,26.900 47.000,26.900 47.000,26.900 Z " />
  <path stroke="none" fill="#f0f0f0" d="M 92.500,18.500 C 91.800,18.400 91.200,18.800 91.100,19.500 91.100,19.500 91.100,19.500 91.100,19.500 91.000,20.100 91.500,20.700 92.100,20.800 92.700,20.900 93.300,20.500 93.400,19.900 93.400,19.900 93.400,19.900 93.400,19.900 93.500,19.300 93.100,18.600 92.500,18.500 92.500,18.500 92.500,18.500 92.500,18.500 Z " />
  <path stroke="none" fill="#f0f0f0" d="M 38.300,26.600 C 38.400,26.000 38.000,25.400 37.400,25.300 36.800,25.200 36.200,25.600 36.100,26.200 36.000,26.800 36.400,27.400 37.000,27.500 37.600,27.600 38.200,27.200 38.300,26.600 38.300,26.600 38.300,26.600 38.300,26.600 Z " />
  <path stroke="none" fill="#f0f0f0" d="M 13.700,23.900 C 13.100,23.800 12.500,24.200 12.400,24.800 12.400,24.800 12.400,24.800 12.400,24.800 12.300,25.400 12.700,26.000 13.300,26.100 13.333,26.100 13.367,26.100 13.400,26.100 14.000,26.200 14.600,25.800 14.700,25.100 14.800,24.400 14.300,24.000 13.700,23.900 13.700,23.900 13.700,23.900 13.700,23.900 13.700,23.900 13.700,23.900 13.700,23.900 Z " />
  <path stroke="none" fill="#f0f0f0" d="M 77.900,25.900 C 77.300,25.800 76.700,26.300 76.600,26.900 76.600,27.600 77.200,28.100 77.900,28.000 78.400,28.000 78.700,27.700 78.900,27.300 79.000,26.600 78.600,26.000 77.900,25.900 77.900,25.900 77.900,25.900 77.900,25.900 77.900,25.900 77.900,25.900 77.900,25.900 Z " />
  <path stroke="none" fill="#f0f0f0" d="M 64.500,25.700 C 64.500,26.363 63.963,26.900 63.300,26.900 62.637,26.900 62.100,26.363 62.100,25.700 62.100,25.037 62.637,24.500 63.300,24.500 63.963,24.500 64.500,25.037 64.500,25.700 64.500,25.700 64.500,25.700 64.500,25.700 Z " />
  <path stroke="none" fill="#f0f0f0" d="M 58.300,23.800 C 58.300,24.463 57.763,25.000 57.100,25.000 56.437,25.000 55.900,24.463 55.900,23.800 55.900,23.137 56.437,22.600 57.100,22.600 57.763,22.600 58.300,23.137 58.300,23.800 58.300,23.800 58.300,23.800 58.300,23.800 Z " />
  <path stroke="none" fill="#f0f0f0" d="M 54.400,26.600 C 54.500,26.000 54.100,25.400 53.500,25.300 53.467,25.300 53.433,25.300 53.400,25.300 52.800,25.300 52.300,25.700 52.200,26.300 52.200,26.900 52.600,27.400 53.200,27.500 53.800,27.500 54.300,27.200 54.400,26.600 54.400,26.600 54.400,26.600 54.400,26.600 Z " />
  <path stroke="none" fill="#f0f0f0" d="M 47.800,23.900 C 47.900,23.300 47.500,22.700 46.900,22.600 46.867,22.600 46.833,22.600 46.800,22.600 46.200,22.500 45.600,23.000 45.500,23.600 45.600,24.300 46.200,24.700 46.800,24.600 47.300,24.600 47.600,24.300 47.800,23.900 47.800,23.900 47.800,23.900 47.800,23.900 Z " />
  <path stroke="none" fill="#f0f0f0" d="M 41.400,27.100 C 41.300,27.800 41.700,28.400 42.400,28.500 43.100,28.600 43.700,28.200 43.800,27.500 43.900,26.800 43.500,26.200 42.800,26.100 42.767,26.100 42.733,26.100 42.700,26.100 42.100,26.000 41.500,26.400 41.400,27.000 41.400,27.000 41.400,27.100 41.400,27.100 41.400,27.100 41.400,27.100 41.400,27.100 Z " />
  <path stroke="none" fill="#f0f0f0" d="M 63.000,21.100 C 63.000,21.763 62.463,22.300 61.800,22.300 61.137,22.300 60.600,21.763 60.600,21.100 60.600,20.437 61.137,19.900 61.800,19.900 62.463,19.900 63.000,20.437 63.000,21.100 63.000,21.100 63.000,21.100 63.000,21.100 Z " />
  <path stroke="none" fill="#f0f0f0" d="M 52.900,22.100 C 52.900,22.763 52.363,23.300 51.700,23.300 51.037,23.300 50.500,22.763 50.500,22.100 50.500,21.437 51.037,20.900 51.700,20.900 52.363,20.900 52.900,21.437 52.900,22.100 52.900,22.100 52.900,22.100 52.900,22.100 Z " />
  <path stroke="none" fill="#f0f0f0" d="M 68.200,20.300 C 68.200,20.963 67.663,21.500 67.000,21.500 66.337,21.500 65.800,20.963 65.800,20.300 65.800,19.637 66.337,19.100 67.000,19.100 67.663,19.100 68.200,19.637 68.200,20.300 68.200,20.300 68.200,20.300 68.200,20.300 Z " />
  <path stroke="none" fill="#f0f0f0" d="M 82.800,28.400 C 82.200,28.300 81.600,28.700 81.500,29.300 81.500,29.333 81.500,29.367 81.500,29.400 81.400,30.000 81.900,30.600 82.500,30.700 83.200,30.600 83.600,30.000 83.500,29.400 83.500,28.900 83.200,28.600 82.800,28.400 82.800,28.400 82.800,28.400 82.800,28.400 Z " />
  <path stroke="none" fill="#f0f0f0" d="M 83.200,20.500 C 83.800,20.600 84.400,20.100 84.500,19.500 84.600,18.900 84.200,18.300 83.600,18.200 83.600,18.200 83.600,18.200 83.600,18.200 83.000,18.100 82.300,18.500 82.200,19.100 82.100,19.800 82.500,20.400 83.200,20.500 83.200,20.500 83.200,20.500 83.200,20.500 83.200,20.500 83.200,20.500 83.200,20.500 Z " />
  <path stroke="none" fill="#f0f0f0" d="M 73.700,22.400 C 73.000,22.300 72.400,22.700 72.300,23.400 72.200,24.100 72.600,24.700 73.300,24.800 74.000,24.900 74.600,24.500 74.700,23.800 74.700,23.767 74.700,23.733 74.700,23.700 74.800,23.100 74.400,22.500 73.700,22.400 73.800,22.400 73.700,22.400 73.700,22.400 73.700,22.400 73.700,22.400 73.700,22.400 Z " />
  <path stroke="none" fill="#f0f0f0" d="M 69.000,23.800 C 68.400,23.700 67.700,24.100 67.600,24.700 67.500,25.400 67.900,26.000 68.600,26.100 68.600,26.100 68.600,26.100 68.600,26.100 69.200,26.200 69.800,25.700 69.900,25.100 70.000,24.500 69.600,23.900 69.000,23.800 69.000,23.800 69.000,23.800 69.000,23.800 69.000,23.800 69.000,23.800 69.000,23.800 Z " />
  <path stroke="none" fill="#f0f0f0" d="M 89.400,28.400 C 88.700,28.400 88.200,29.000 88.300,29.700 88.300,30.200 88.600,30.500 89.000,30.700 89.700,30.800 90.300,30.400 90.400,29.700 90.400,29.700 90.400,29.700 90.400,29.700 90.500,29.100 90.000,28.500 89.400,28.400 89.400,28.400 89.400,28.400 89.400,28.400 Z " />
  <path stroke="none" fill="#f0f0f0" d="M 84.300,24.000 C 83.700,23.700 83.000,23.900 82.700,24.400 82.400,25.000 82.600,25.600 83.100,26.000 83.600,26.300 84.300,26.200 84.600,25.700 84.600,25.700 84.600,25.600 84.700,25.600 85.000,25.000 84.800,24.300 84.300,24.000 84.300,24.000 84.300,24.000 84.300,24.000 Z " />
  <path stroke="none" fill="#f0f0f0" d="M 78.600,20.500 C 78.100,20.100 77.400,20.200 77.100,20.700 77.100,20.700 77.100,20.800 77.000,20.800 76.700,21.300 76.800,22.000 77.300,22.300 77.300,22.300 77.400,22.300 77.400,22.400 77.900,22.800 78.600,22.700 78.900,22.200 78.900,22.200 78.900,22.100 79.000,22.100 79.300,21.500 79.100,20.800 78.600,20.500 78.600,20.500 78.600,20.500 78.600,20.500 Z " />
  <path stroke="none" fill="#f0f0f0" d="M 29.600,24.600 C 29.200,25.000 29.200,25.700 29.600,26.200 29.600,26.200 29.600,26.200 29.700,26.200 30.200,26.600 31.000,26.600 31.400,26.100 31.400,26.100 31.400,26.100 31.400,26.100 31.800,25.600 31.700,24.900 31.300,24.600 31.300,24.600 31.300,24.600 31.200,24.500 30.800,24.100 30.200,24.000 29.800,24.400 29.700,24.400 29.700,24.500 29.600,24.600 29.600,24.600 29.600,24.600 29.600,24.600 Z " />
  <path stroke="none" fill="#f0f0f0" d="M 56.800,27.000 C 56.400,27.500 56.400,28.300 56.900,28.700 56.900,28.700 56.900,28.700 56.900,28.700 57.400,29.100 58.200,29.100 58.600,28.600 59.000,28.100 59.000,27.300 58.500,26.900 58.000,26.500 57.200,26.500 56.800,27.000 56.800,27.000 56.800,27.000 56.800,27.000 Z " />
  <path stroke="none" fill="#f0f0f0" d="M 73.700,28.100 C 73.100,28.000 72.500,28.300 72.300,28.900 72.100,29.500 72.500,30.200 73.100,30.400 73.100,30.400 73.100,30.400 73.100,30.400 73.700,30.500 74.300,30.200 74.500,29.600 74.700,29.000 74.300,28.300 73.700,28.100 73.700,28.100 73.700,28.100 73.700,28.100 73.700,28.100 73.700,28.100 73.700,28.100 Z " />
  <path stroke="none" fill="#f0f0f0" d="M 67.300,28.100 C 66.700,28.000 66.100,28.300 65.900,28.900 65.700,29.500 66.000,30.200 66.600,30.400 67.200,30.500 67.900,30.200 68.100,29.600 68.300,29.000 67.900,28.300 67.300,28.100 67.300,28.100 67.300,28.100 67.300,28.100 67.300,28.100 67.300,28.100 67.300,28.100 Z " />
  <path stroke="none" fill="#f0f0f0" d="M 56.500,40.400 C 56.200,40.800 56.000,41.200 55.800,41.700 56.367,42.200 56.933,42.700 57.500,43.200 58.400,42.933 59.300,42.667 60.200,42.400 59.500,41.633 58.800,40.867 58.100,40.100 57.567,40.200 57.033,40.300 56.500,40.400 56.500,40.400 56.500,40.400 56.500,40.400 Z " />
  <path stroke="none" fill="#f0f0f0" d="M 61.100,10.300 C 61.533,9.033 61.967,7.767 62.400,6.500 62.300,6.500 62.200,6.500 62.100,6.500 62.100,6.500 57.500,9.600 57.600,9.800 58.133,10.133 58.667,10.467 59.200,10.800 59.833,10.633 60.467,10.467 61.100,10.300 61.100,10.300 61.100,10.300 61.100,10.300 Z " />
</svg>