<?xml version="1.0" encoding="UTF-8" standalone="no"?>
<!DOCTYPE svg PUBLIC "-//W3C//DTD SVG 20010904//EN" "http://www.w3.org/TR/2001/REC-SVG-20010904/DTD/svg10.dtd"[]>
<svg version="1.1" xmlns="http://www.w3.org/2000/svg" d1p1:xlink="http://www.w3.org/1999/xlink" viewBox="0 0 100 50" xmlns:d1p1="xmlns">
  <path stroke="none" fill="#f0f0f0" d="M 62.300,7.800 C 63.000,7.500 63.700,7.200 64.400,6.900 64.600,6.700 64.700,6.400 64.500,6.200 64.400,6.000 64.200,5.900 64.000,6.000 62.633,6.567 61.267,7.133 59.900,7.700 60.800,8.867 61.700,10.033 62.600,11.200 62.833,11.200 63.067,11.200 63.300,11.200 63.500,11.000 63.600,10.700 63.400,10.500 62.933,9.933 62.467,9.367 62.000,8.800 69.500,10.600 74.800,17.200 74.800,24.900 74.800,32.700 69.300,39.500 61.700,41.200 61.767,41.533 61.833,41.867 61.900,42.200 71.400,40.300 77.600,31.000 75.600,21.400 74.200,14.700 69.000,9.300 62.300,7.800 62.300,7.800 62.300,7.800 62.300,7.800 Z " />
  <path stroke="none" fill="#f0f0f0" d="M 52.900,38.800 C 52.700,39.000 52.600,39.300 52.800,39.500 52.800,39.500 52.800,39.500 52.800,39.500 53.233,40.033 53.667,40.567 54.100,41.100 45.200,38.800 39.800,29.700 42.100,20.700 43.700,14.600 48.600,9.900 54.800,8.600 54.733,8.300 54.667,8.000 54.600,7.700 45.100,9.600 38.900,18.900 40.900,28.500 42.300,35.300 47.500,40.600 54.200,42.100 53.400,42.433 52.600,42.767 51.800,43.100 51.600,43.300 51.500,43.500 51.600,43.800 51.600,44.000 51.800,44.100 52.000,44.100 52.200,44.100 52.200,44.100 52.200,44.000 53.567,43.433 54.933,42.867 56.300,42.300 55.400,41.133 54.500,39.967 53.600,38.800 53.400,38.600 53.100,38.600 52.900,38.800 52.900,38.800 52.900,38.800 52.900,38.800 Z " />
  <path stroke="none" fill="#f0f0f0" d="M 38.600,15.800 C 32.933,16.133 27.267,16.467 21.600,16.800 27.267,17.133 32.933,17.467 38.600,17.800 38.600,17.133 38.600,16.467 38.600,15.800 Z " />
  <path stroke="none" fill="#f0f0f0" d="M 36.800,24.300 C 31.133,24.633 25.467,24.967 19.800,25.300 25.467,25.633 31.133,25.967 36.800,26.300 36.800,25.633 36.800,24.967 36.800,24.300 Z " />
  <path stroke="none" fill="#f0f0f0" d="M 39.000,34.300 C 39.000,33.633 39.000,32.967 39.000,32.300 33.333,32.633 27.667,32.967 22.000,33.300 27.667,33.633 33.333,33.967 39.000,34.300 Z " />
  <path stroke="none" fill="#f0f0f0" d="M 51.400,15.200 C 51.400,16.139 50.639,16.900 49.700,16.900 48.761,16.900 48.000,16.139 48.000,15.200 48.000,14.261 48.761,13.500 49.700,13.500 50.639,13.500 51.400,14.261 51.400,15.200 51.400,15.200 51.400,15.200 51.400,15.200 Z " />
  <path stroke="none" fill="#f0f0f0" d="M 51.500,16.000 C 51.300,16.400 51.000,16.800 50.600,17.000 51.600,17.500 51.100,18.200 51.100,18.200 50.933,18.200 50.767,18.200 50.600,18.200 49.400,18.567 48.200,18.933 47.000,19.300 46.733,19.767 46.467,20.233 46.200,20.700 52.067,20.700 57.933,20.700 63.800,20.700 63.800,19.867 63.800,19.033 63.800,18.200 60.167,18.200 56.533,18.200 52.900,18.200 52.900,18.200 52.200,17.000 51.500,16.000 51.500,16.000 51.500,16.000 51.500,16.000 Z " />
  <path stroke="none" fill="#f0f0f0" d="M 63.500,36.100 C 63.500,37.039 62.739,37.800 61.800,37.800 60.861,37.800 60.100,37.039 60.100,36.100 60.100,35.161 60.861,34.400 61.800,34.400 62.739,34.400 63.500,35.161 63.500,36.100 63.500,36.100 63.500,36.100 63.500,36.100 Z " />
  <path stroke="none" fill="#f0f0f0" d="M 72.300,30.500 C 72.300,29.633 72.300,28.767 72.300,27.900 68.600,27.900 64.900,27.900 61.200,27.900 59.767,28.267 58.333,28.633 56.900,29.000 56.633,29.567 56.367,30.133 56.100,30.700 58.000,30.700 59.900,30.700 61.800,30.700 62.300,31.900 62.100,33.300 61.200,34.200 61.800,33.800 62.500,33.900 63.000,34.400 62.900,33.100 63.000,30.600 63.000,30.600 66.100,30.567 69.200,30.533 72.300,30.500 72.300,30.500 72.300,30.500 72.300,30.500 Z " />
</svg>