<?xml version="1.0" encoding="utf-8"?>
<!-- Generator: Adobe Illustrator 16.0.3, SVG Export Plug-In . SVG Version: 6.00 Build 0)  -->
<!DOCTYPE svg PUBLIC "-//W3C//DTD SVG 1.1//EN" "http://www.w3.org/Graphics/SVG/1.1/DTD/svg11.dtd">
<svg version="1.1" id="Layer_1" xmlns="http://www.w3.org/2000/svg" xmlns:xlink="http://www.w3.org/1999/xlink" x="0px" y="0px"
	 width="100px" height="50px" viewBox="0 0 100 50" enable-background="new 0 0 100 50" xml:space="preserve">
<path fill="#F1F0F0" d="M53.149,40.445c-1.113-1.226-2.227-2.448-3.339-3.675c-1.033,1.227-2.066,2.449-3.101,3.675
	c-8.823-1.838-14.427-10.104-12.639-18.601c1.55-7.234,8.107-12.401,15.858-12.516c9.063,0.114,16.217,7.233,16.217,15.846
	C66.026,32.638,60.66,38.953,53.149,40.445L53.149,40.445z M67.458,25.059c0-9.3-7.87-16.878-17.528-16.878
	s-17.527,7.578-17.527,16.878c0,9.301,7.869,16.878,17.527,16.878S67.458,34.359,67.458,25.059L67.458,25.059L67.458,25.059z"/>
<path fill="#F1F0F0" d="M57.919,24.6c-2.585,0-5.167,0-7.751,0c0-2.489,0-4.975,0-7.464c0-0.229-0.119-0.345-0.357-0.345
	c-0.12,0-0.238,0.23-0.238,0.345c0,2.489,0,4.975,0,7.464c-2.624,0-5.247,0-7.871,0c-0.118,0-0.237,0.113-0.237,0.344
	c0,0.115,0.119,0.231,0.237,0.231l0,0c2.624,0,5.247,0,7.871,0c0,2.487,0,4.974,0,7.463c0,0.23,0.118,0.345,0.238,0.345
	c0.238,0,0.357-0.114,0.357-0.345c0-2.489,0-4.976,0-7.463c2.584,0,5.166,0,7.751,0c0.12,0,0.238-0.116,0.238-0.231l0,0
	C58.157,24.713,58.039,24.6,57.919,24.6L57.919,24.6z"/>
<path fill="#F1F0F0" d="M25.129,20.121c-0.477-0.344-1.312-0.229-1.67,0.23c-0.358,0.459-0.358,0.918,0,1.378
	c0.677,0.688,1.351,1.378,2.027,2.066c-3.299,0-6.598,0-9.896,0c-0.596-0.117-1.073,0.345-1.192,0.917c0,0.116,0,0.116,0,0.23
	c0,0.689,0.477,1.149,1.192,1.149c3.299,0,6.598,0,9.896,0c-0.677,0.649-1.351,1.3-2.027,1.952c-0.477,0.459-0.477,1.146,0,1.607
	c0.238,0.228,0.478,0.344,0.834,0.344c0.359,0,0.598-0.116,0.836-0.344c1.63-1.568,3.259-3.139,4.889-4.709
	C28.388,23.335,26.759,21.729,25.129,20.121L25.129,20.121z"/>
<path fill="#F1F0F0" d="M84.389,23.912c-3.338,0-6.679,0-10.016,0c0.714-0.69,1.431-1.38,2.146-2.067
	c0.476-0.46,0.476-1.148,0-1.609c-0.476-0.458-1.312-0.458-1.787,0c-1.632,1.609-3.261,3.217-4.892,4.823
	c1.631,1.607,3.26,3.215,4.892,4.821c0.237,0.232,0.596,0.344,0.952,0.344c0.716-0.111,1.191-0.688,1.074-1.376
	c0-0.228-0.12-0.46-0.239-0.688c-0.715-0.652-1.432-1.302-2.146-1.953c3.337,0,6.678,0,10.016,0c0.596,0,1.191-0.573,1.191-1.147
	C85.58,24.37,85.104,23.912,84.389,23.912L84.389,23.912L84.389,23.912z"/>
<path fill="#F1F0F0" d="M29.54,17.136c0.08,0,0.159,0,0.239,0c0.238,0,0.477-0.114,0.595-0.345
	c2.146-4.705,5.962-8.382,10.852-10.448c0.357-0.115,0.477-0.458,0.357-0.688V5.54c-0.238-0.23-0.478-0.345-0.835-0.23
	c-5.127,2.182-9.181,6.086-11.446,11.023C29.183,16.679,29.302,16.907,29.54,17.136L29.54,17.136z"/>
<path fill="#F1F0F0" d="M59.468,6.343c4.89,2.066,8.706,5.743,10.852,10.448c0.119,0.23,0.356,0.345,0.598,0.345
	c0.077,0,0.156,0,0.238,0c0.238-0.229,0.355-0.457,0.238-0.803c-2.269-4.938-6.32-8.842-11.447-11.023
	c-0.358-0.114-0.597,0-0.835,0.23C58.992,5.77,59.111,6.114,59.468,6.343C59.35,6.343,59.468,6.343,59.468,6.343L59.468,6.343z"/>
<path fill="#F1F0F0" d="M71.155,32.982c-0.238-0.114-0.598,0-0.836,0.229c0,0,0,0,0,0.113c-2.146,4.708-5.962,8.382-10.852,10.45
	c-0.356,0.112-0.476,0.458-0.356,0.688v0.113c0.199,0.078,0.397,0.155,0.596,0.23c0.078,0,0.158,0,0.239,0
	c5.127-2.181,9.179-6.086,11.447-11.023C71.511,33.442,71.394,33.212,71.155,32.982L71.155,32.982z"/>
<path fill="#F1F0F0" d="M41.226,43.775c-4.89-2.068-8.705-5.742-10.852-10.45c-0.119-0.343-0.476-0.457-0.715-0.343H29.54
	c-0.238,0.229-0.357,0.46-0.238,0.802c2.266,4.938,6.319,8.843,11.446,11.023c0.08,0,0.159,0,0.238,0
	c0.199-0.077,0.397-0.152,0.597-0.23C41.701,44.348,41.583,44.003,41.226,43.775C41.345,43.775,41.226,43.775,41.226,43.775
	L41.226,43.775z"/>
</svg>
