<?xml version="1.0" encoding="UTF-8" standalone="no"?>
<!DOCTYPE svg PUBLIC "-//W3C//DTD SVG 20010904//EN" "http://www.w3.org/TR/2001/REC-SVG-20010904/DTD/svg10.dtd"[]>
<svg version="1.1" xmlns="http://www.w3.org/2000/svg" d1p1:xlink="http://www.w3.org/1999/xlink" viewBox="0 0 100 50" xmlns:d1p1="xmlns">
  <path stroke="none" fill="#f0f0f0" d="M 52.300,13.000 C 52.133,10.006 51.350,7.078 50.000,4.400 50.000,4.400 47.700,9.400 47.700,13.000 47.700,14.233 47.700,15.467 47.700,16.700 49.233,16.700 50.767,16.700 52.300,16.700 52.300,15.467 52.300,14.233 52.300,13.000 Z " />
  <path stroke="none" fill="#f0f0f0" d="M 47.800,42.700 C 47.400,43.067 47.000,43.433 46.600,43.800 46.600,44.167 46.600,44.533 46.600,44.900 48.900,44.900 51.200,44.900 53.500,44.900 53.500,44.533 53.500,44.167 53.500,43.800 53.067,43.433 52.633,43.067 52.200,42.700 50.733,42.700 49.267,42.700 47.800,42.700 47.800,42.700 47.800,42.700 47.800,42.700 Z " />
  <path stroke="none" fill="#f0f0f0" d="M 52.600,39.700 C 52.233,40.133 51.867,40.567 51.500,41.000 50.500,41.000 49.500,41.000 48.500,41.000 48.133,40.567 47.767,40.133 47.400,39.700 47.400,34.467 47.400,29.233 47.400,24.000 47.400,24.000 47.400,24.000 47.400,24.000 47.667,23.433 47.933,22.867 48.200,22.300 48.333,22.867 48.467,23.433 48.600,24.000 49.567,24.000 50.533,24.000 51.500,24.000 51.600,23.433 51.700,22.867 51.800,22.300 52.067,22.867 52.333,23.433 52.600,24.000 52.600,24.000 52.600,24.000 52.600,24.000 52.600,29.233 52.600,34.467 52.600,39.700 Z M 53.500,24.000 C 53.500,23.767 53.500,23.533 53.500,23.300 53.100,22.467 52.700,21.633 52.300,20.800 52.300,19.833 52.300,18.867 52.300,17.900 50.767,17.900 49.233,17.900 47.700,17.900 47.700,18.867 47.700,19.833 47.700,20.800 47.333,21.633 46.967,22.467 46.600,23.300 46.600,29.533 46.600,35.767 46.600,42.000 48.900,42.000 51.200,42.000 53.500,42.000 53.500,36.000 53.500,30.000 53.500,24.000 Z " />
  <path stroke="none" fill="#f0f0f0" d="M 38.400,41.400 C 38.100,41.667 37.800,41.933 37.500,42.200 37.500,42.500 37.500,42.800 37.500,43.100 39.233,43.100 40.967,43.100 42.700,43.100 42.700,42.800 42.700,42.500 42.700,42.200 42.400,41.933 42.100,41.667 41.800,41.400 40.667,41.400 39.533,41.400 38.400,41.400 38.400,41.400 38.400,41.400 38.400,41.400 Z " />
  <path stroke="none" fill="#f0f0f0" d="M 42.100,32.000 C 42.100,34.367 42.100,36.733 42.100,39.100 40.800,39.100 39.500,39.100 38.200,39.100 38.200,35.167 38.200,31.233 38.200,27.300 38.200,27.300 38.200,27.300 38.200,27.300 38.467,26.700 38.733,26.100 39.000,25.500 39.733,25.500 40.467,25.500 41.200,25.500 41.500,26.100 41.800,26.700 42.100,27.300 42.100,27.300 42.100,27.300 42.100,27.300 42.100,28.867 42.100,30.433 42.100,32.000 Z M 42.700,26.800 C 42.433,26.167 42.167,25.533 41.900,24.900 41.900,24.200 41.900,23.500 41.900,22.800 40.733,22.800 39.567,22.800 38.400,22.800 38.400,23.500 38.400,24.200 38.400,24.900 38.100,25.533 37.800,26.167 37.500,26.800 37.500,31.500 37.500,36.200 37.500,40.900 39.233,40.900 40.967,40.900 42.700,40.900 42.700,36.200 42.700,31.500 42.700,26.800 Z " />
  <path stroke="none" fill="#f0f0f0" d="M 41.900,19.000 C 41.772,16.730 41.158,14.513 40.100,12.500 40.100,12.500 38.400,16.300 38.400,19.000 38.400,19.933 38.400,20.867 38.400,21.800 39.567,21.800 40.733,21.800 41.900,21.800 41.900,20.867 41.900,19.933 41.900,19.000 Z " />
  <path stroke="none" fill="#f0f0f0" d="M 61.600,41.400 C 60.467,41.400 59.333,41.400 58.200,41.400 57.900,41.667 57.600,41.933 57.300,42.200 57.300,42.500 57.300,42.800 57.300,43.100 59.033,43.100 60.767,43.100 62.500,43.100 62.500,42.800 62.500,42.500 62.500,42.200 62.200,41.933 61.900,41.667 61.600,41.400 61.600,41.400 61.600,41.400 61.600,41.400 Z " />
  <path stroke="none" fill="#f0f0f0" d="M 61.900,32.000 C 61.900,34.367 61.900,36.733 61.900,39.100 60.600,39.100 59.300,39.100 58.000,39.100 58.000,35.167 58.000,31.233 58.000,27.300 58.000,27.300 58.000,27.300 58.000,27.300 58.267,26.700 58.533,26.100 58.800,25.500 59.533,25.500 60.267,25.500 61.000,25.500 61.267,26.100 61.533,26.700 61.800,27.300 61.833,27.300 61.867,27.300 61.900,27.300 61.900,28.867 61.900,30.433 61.900,32.000 Z M 62.500,26.800 C 62.200,26.167 61.900,25.533 61.600,24.900 61.600,24.200 61.600,23.500 61.600,22.800 60.467,22.800 59.333,22.800 58.200,22.800 58.200,23.500 58.200,24.200 58.200,24.900 57.900,25.533 57.600,26.167 57.300,26.800 57.300,31.500 57.300,36.200 57.300,40.900 59.033,40.900 60.767,40.900 62.500,40.900 62.500,36.200 62.500,31.500 62.500,26.800 Z " />
  <path stroke="none" fill="#f0f0f0" d="M 61.600,19.000 C 61.482,16.740 60.904,14.528 59.900,12.500 59.900,12.500 58.200,16.300 58.200,19.000 58.200,19.933 58.200,20.867 58.200,21.800 59.333,21.800 60.467,21.800 61.600,21.800 61.600,20.867 61.600,19.933 61.600,19.000 Z " />
</svg>