<?xml version="1.0" encoding="UTF-8" standalone="no"?>
<!DOCTYPE svg PUBLIC "-//W3C//DTD SVG 20010904//EN" "http://www.w3.org/TR/2001/REC-SVG-20010904/DTD/svg10.dtd"[]>
<svg version="1.1" xmlns="http://www.w3.org/2000/svg" d1p1:xlink="http://www.w3.org/1999/xlink" viewBox="0 0 100 50" xmlns:d1p1="xmlns">
  <path stroke="none" fill="#f0f0f0" d="M 34.900,21.500 C 34.633,22.033 34.367,22.567 34.100,23.100 34.100,27.667 34.100,32.233 34.100,36.800 34.367,36.800 34.633,36.800 34.900,36.800 34.900,37.400 34.900,38.000 34.900,38.600 34.633,38.600 34.367,38.600 34.100,38.600 34.100,39.200 34.100,39.800 34.100,40.400 34.367,40.400 34.633,40.400 34.900,40.400 36.100,40.400 37.300,40.400 38.500,40.400 38.767,40.400 39.033,40.400 39.300,40.400 39.300,39.800 39.300,39.200 39.300,38.600 39.033,38.600 38.767,38.600 38.500,38.600 38.500,38.000 38.500,37.400 38.500,36.800 38.767,36.800 39.033,36.800 39.300,36.800 39.300,32.233 39.300,27.667 39.300,23.100 39.033,22.567 38.767,22.033 38.500,21.500 37.300,21.500 36.100,21.500 34.900,21.500 34.900,21.500 34.900,21.500 34.900,21.500 Z " />
  <path stroke="none" fill="#f0f0f0" d="M 38.500,17.600 C 38.358,14.851 37.749,12.145 36.700,9.600 35.651,12.145 35.042,14.851 34.900,17.600 34.900,18.333 34.900,19.067 34.900,19.800 36.100,19.800 37.300,19.800 38.500,19.800 38.500,19.067 38.500,18.333 38.500,17.600 Z " />
  <path stroke="none" fill="#f0f0f0" d="M 43.600,21.500 C 43.333,22.033 43.067,22.567 42.800,23.100 42.800,27.667 42.800,32.233 42.800,36.800 43.067,36.800 43.333,36.800 43.600,36.800 43.600,37.400 43.600,38.000 43.600,38.600 43.333,38.600 43.067,38.600 42.800,38.600 42.800,39.200 42.800,39.800 42.800,40.400 43.067,40.400 43.333,40.400 43.600,40.400 44.800,40.400 46.000,40.400 47.200,40.400 47.467,40.400 47.733,40.400 48.000,40.400 48.000,39.800 48.000,39.200 48.000,38.600 47.733,38.600 47.467,38.600 47.200,38.600 47.200,38.000 47.200,37.400 47.200,36.800 47.467,36.800 47.733,36.800 48.000,36.800 48.000,32.233 48.000,27.667 48.000,23.100 47.733,22.567 47.467,22.033 47.200,21.500 46.000,21.500 44.800,21.500 43.600,21.500 43.600,21.500 43.600,21.500 43.600,21.500 Z " />
  <path stroke="none" fill="#f0f0f0" d="M 47.200,17.600 C 47.058,14.851 46.449,12.145 45.400,9.600 44.351,12.145 43.742,14.851 43.600,17.600 43.600,18.333 43.600,19.067 43.600,19.800 44.800,19.800 46.000,19.800 47.200,19.800 47.200,19.067 47.200,18.333 47.200,17.600 Z " />
  <path stroke="none" fill="#f0f0f0" d="M 52.000,21.500 C 51.733,22.033 51.467,22.567 51.200,23.100 51.200,27.667 51.200,32.233 51.200,36.800 51.467,36.800 51.733,36.800 52.000,36.800 52.000,37.400 52.000,38.000 52.000,38.600 51.733,38.600 51.467,38.600 51.200,38.600 51.200,39.200 51.200,39.800 51.200,40.400 51.467,40.400 51.733,40.400 52.000,40.400 53.200,40.400 54.400,40.400 55.600,40.400 55.867,40.400 56.133,40.400 56.400,40.400 56.400,39.800 56.400,39.200 56.400,38.600 56.133,38.600 55.867,38.600 55.600,38.600 55.600,38.000 55.600,37.400 55.600,36.800 55.867,36.800 56.133,36.800 56.400,36.800 56.400,32.233 56.400,27.667 56.400,23.100 56.133,22.567 55.867,22.033 55.600,21.500 54.400,21.500 53.200,21.500 52.000,21.500 52.000,21.500 52.000,21.500 52.000,21.500 Z " />
  <path stroke="none" fill="#f0f0f0" d="M 55.500,17.600 C 55.420,14.853 54.844,12.142 53.800,9.600 52.751,12.145 52.142,14.851 52.000,17.600 52.000,18.333 52.000,19.067 52.000,19.800 53.200,19.800 54.400,19.800 55.600,19.800 55.600,19.400 55.500,17.700 55.500,17.600 55.500,17.600 55.500,17.600 55.500,17.600 Z " />
  <path stroke="none" fill="#f0f0f0" d="M 65.000,36.800 C 65.000,32.233 65.000,27.667 65.000,23.100 64.733,22.567 64.467,22.033 64.200,21.500 63.033,21.500 61.867,21.500 60.700,21.500 60.433,22.033 60.167,22.567 59.900,23.100 59.900,27.667 59.900,32.233 59.900,36.800 60.167,36.800 60.433,36.800 60.700,36.800 60.700,37.400 60.700,38.000 60.700,38.600 60.433,38.600 60.167,38.600 59.900,38.600 59.900,39.200 59.900,39.800 59.900,40.400 60.167,40.400 60.433,40.400 60.700,40.400 61.867,40.400 63.033,40.400 64.200,40.400 64.467,40.400 64.733,40.400 65.000,40.400 65.000,39.800 65.000,39.200 65.000,38.600 64.733,38.600 64.467,38.600 64.200,38.600 64.200,38.000 64.200,37.400 64.200,36.800 64.467,36.800 64.733,36.800 65.000,36.800 65.000,36.800 65.000,36.800 65.000,36.800 Z " />
  <path stroke="none" fill="#f0f0f0" d="M 64.200,17.600 C 64.058,14.851 63.449,12.145 62.400,9.600 61.356,12.142 60.780,14.853 60.700,17.600 60.700,18.333 60.700,19.067 60.700,19.800 61.867,19.800 63.033,19.800 64.200,19.800 64.200,19.067 64.200,18.333 64.200,17.600 Z " />
</svg>