<?xml version="1.0" encoding="UTF-8" standalone="no"?>
<!DOCTYPE svg PUBLIC "-//W3C//DTD SVG 20010904//EN" "http://www.w3.org/TR/2001/REC-SVG-20010904/DTD/svg10.dtd"[]>
<svg version="1.1" xmlns="http://www.w3.org/2000/svg" d1p1:xlink="http://www.w3.org/1999/xlink" viewBox="0 0 100 50" xmlns:d1p1="xmlns">
  <path stroke="none" fill="#f0f0f0" d="M 85.000,36.300 C 74.900,35.167 64.800,34.033 54.700,32.900 54.700,27.633 54.700,22.367 54.700,17.100 64.800,15.967 74.900,14.833 85.000,13.700 85.000,21.233 85.000,28.767 85.000,36.300 85.000,36.300 85.000,36.300 85.000,36.300 Z M 53.700,35.800 C 52.800,35.800 51.900,35.800 51.000,35.800 51.000,28.600 51.000,21.400 51.000,14.200 51.900,14.200 52.800,14.200 53.700,14.200 53.700,21.400 53.700,28.600 53.700,35.800 53.700,35.800 53.700,35.800 53.700,35.800 Z M 50.000,32.900 C 42.533,32.900 35.067,32.900 27.600,32.900 27.600,27.633 27.600,22.367 27.600,17.100 35.067,17.100 42.533,17.100 50.000,17.100 50.000,22.367 50.000,27.633 50.000,32.900 50.000,32.900 50.000,32.900 50.000,32.900 Z M 26.600,35.800 C 25.733,35.800 24.867,35.800 24.000,35.800 24.000,28.600 24.000,21.400 24.000,14.200 24.867,14.200 25.733,14.200 26.600,14.200 26.600,21.400 26.600,28.600 26.600,35.800 26.600,35.800 26.600,35.800 26.600,35.800 Z M 23.000,34.600 C 22.333,34.600 21.667,34.600 21.000,34.600 21.000,28.300 21.000,22.000 21.000,15.700 21.667,15.700 22.333,15.700 23.000,15.700 23.000,22.000 23.000,28.300 23.000,34.600 23.000,34.600 23.000,34.600 23.000,34.600 Z M 20.000,36.000 C 19.100,36.000 18.200,36.000 17.300,36.000 17.300,28.767 17.300,21.533 17.300,14.300 18.200,14.300 19.100,14.300 20.000,14.300 20.000,21.533 20.000,28.767 20.000,36.000 20.000,36.000 20.000,36.000 20.000,36.000 Z M 54.700,16.100 C 54.700,15.133 54.700,14.167 54.700,13.200 53.133,13.200 51.567,13.200 50.000,13.200 50.000,14.167 50.000,15.133 50.000,16.100 42.533,16.100 35.067,16.100 27.600,16.100 27.600,15.133 27.600,14.167 27.600,13.200 26.067,13.200 24.533,13.200 23.000,13.200 23.000,13.700 23.000,14.200 23.000,14.700 22.333,14.700 21.667,14.700 21.000,14.700 21.000,14.233 21.000,13.767 21.000,13.300 19.433,13.300 17.867,13.300 16.300,13.300 16.300,21.200 16.300,29.100 16.300,37.000 17.867,37.000 19.433,37.000 21.000,37.000 21.000,36.533 21.000,36.067 21.000,35.600 21.667,35.600 22.333,35.600 23.000,35.600 23.000,36.000 23.000,36.400 23.000,36.800 24.533,36.800 26.067,36.800 27.600,36.800 27.600,35.833 27.600,34.867 27.600,33.900 35.067,33.900 42.533,33.900 50.000,33.900 50.000,34.867 50.000,35.833 50.000,36.800 51.567,36.800 53.133,36.800 54.700,36.800 54.700,35.833 54.700,34.867 54.700,33.900 65.133,35.067 75.567,36.233 86.000,37.400 86.000,29.133 86.000,20.867 86.000,12.600 75.567,13.767 65.133,14.933 54.700,16.100 54.700,16.100 54.700,16.100 54.700,16.100 Z " />
  <path stroke="none" fill="#f0f0f0" d="M 61.100,20.700 C 61.100,20.700 61.100,20.700 61.100,20.700 67.300,20.100 73.500,19.500 79.700,18.900 80.200,18.800 80.600,18.300 80.600,17.800 80.500,17.300 80.000,16.900 79.500,16.900 73.333,17.500 67.167,18.100 61.000,18.700 60.500,18.800 60.000,19.200 60.100,19.800 60.100,19.800 60.100,19.800 60.100,19.800 60.200,20.300 60.600,20.700 61.100,20.700 61.100,20.700 61.100,20.700 61.100,20.700 Z " />
  <path stroke="none" fill="#f0f0f0" d="M 61.100,26.500 C 67.267,26.500 73.433,26.500 79.600,26.500 80.400,26.500 81.100,25.800 81.100,25.000 81.100,24.200 80.400,23.500 79.600,23.500 73.433,23.500 67.267,23.500 61.100,23.500 60.300,23.500 59.600,24.200 59.600,25.000 59.600,25.800 60.300,26.500 61.100,26.500 61.100,26.500 61.100,26.500 61.100,26.500 Z " />
  <path stroke="none" fill="#f0f0f0" d="M 79.800,31.100 C 73.633,30.500 67.467,29.900 61.300,29.300 60.800,29.300 60.400,29.700 60.300,30.200 60.200,30.700 60.500,31.200 61.000,31.300 61.100,31.300 61.100,31.300 61.200,31.300 67.333,31.900 73.467,32.500 79.600,33.100 79.633,33.100 79.667,33.100 79.700,33.100 80.200,33.100 80.600,32.700 80.700,32.200 80.700,31.700 80.300,31.200 79.800,31.100 79.800,31.100 79.800,31.100 79.800,31.100 Z " />
  <path stroke="none" fill="#f0f0f0" d="M 34.300,21.400 C 34.300,22.284 33.360,23.000 32.200,23.000 31.040,23.000 30.100,22.284 30.100,21.400 30.100,20.516 31.040,19.800 32.200,19.800 33.360,19.800 34.300,20.516 34.300,21.400 34.300,21.400 34.300,21.400 34.300,21.400 Z " />
  <path stroke="none" fill="#f0f0f0" d="M 40.900,21.400 C 40.900,22.284 39.960,23.000 38.800,23.000 37.640,23.000 36.700,22.284 36.700,21.400 36.700,20.516 37.640,19.800 38.800,19.800 39.960,19.800 40.900,20.516 40.900,21.400 40.900,21.400 40.900,21.400 40.900,21.400 Z " />
  <path stroke="none" fill="#f0f0f0" d="M 47.600,21.400 C 47.600,22.284 46.660,23.000 45.500,23.000 44.340,23.000 43.400,22.284 43.400,21.400 43.400,20.516 44.340,19.800 45.500,19.800 46.660,19.800 47.600,20.516 47.600,21.400 47.600,21.400 47.600,21.400 47.600,21.400 Z " />
  <path stroke="none" fill="#f0f0f0" d="M 34.300,28.400 C 34.300,29.284 33.360,30.000 32.200,30.000 31.040,30.000 30.100,29.284 30.100,28.400 30.100,27.516 31.040,26.800 32.200,26.800 33.360,26.800 34.300,27.516 34.300,28.400 34.300,28.400 34.300,28.400 34.300,28.400 Z " />
  <path stroke="none" fill="#f0f0f0" d="M 36.700,28.400 C 36.800,29.400 37.700,30.200 38.800,30.100 38.800,30.100 38.800,30.100 38.800,30.100 39.900,30.200 40.800,29.500 41.000,28.400 41.000,27.500 40.000,26.800 38.800,26.800 37.600,26.800 36.700,27.500 36.700,28.400 36.700,28.400 36.700,28.400 36.700,28.400 Z " />
  <path stroke="none" fill="#f0f0f0" d="M 47.600,28.400 C 47.600,29.284 46.660,30.000 45.500,30.000 44.340,30.000 43.400,29.284 43.400,28.400 43.400,27.516 44.340,26.800 45.500,26.800 46.660,26.800 47.600,27.516 47.600,28.400 47.600,28.400 47.600,28.400 47.600,28.400 Z " />
</svg>