<?xml version="1.0" encoding="UTF-8" standalone="no"?>
<!DOCTYPE svg PUBLIC "-//W3C//DTD SVG 20010904//EN" "http://www.w3.org/TR/2001/REC-SVG-20010904/DTD/svg10.dtd"[]>
<svg version="1.1" xmlns="http://www.w3.org/2000/svg" d1p1:xlink="http://www.w3.org/1999/xlink" viewBox="0 0 100 50" xmlns:d1p1="xmlns">
  <path stroke="none" fill="#f0f0f0" d="M 67.100,10.100 C 67.100,11.933 67.100,13.767 67.100,15.600 69.600,15.600 72.100,15.600 74.600,15.600 74.600,14.833 74.600,14.067 74.600,13.300 73.533,12.233 72.467,11.167 71.400,10.100 69.967,10.100 68.533,10.100 67.100,10.100 Z " />
  <path stroke="none" fill="#f0f0f0" d="M 75.600,24.100 C 76.733,24.100 77.867,24.100 79.000,24.100 79.000,25.933 79.000,27.767 79.000,29.600 77.867,29.600 76.733,29.600 75.600,29.600 75.600,27.767 75.600,25.933 75.600,24.100 Z " />
  <path stroke="none" fill="#f0f0f0" d="M 67.000,16.600 C 69.533,16.600 72.067,16.600 74.600,16.600 74.600,17.900 74.600,19.200 74.600,20.500 72.067,20.500 69.533,20.500 67.000,20.500 67.000,19.200 67.000,17.900 67.000,16.600 Z " />
  <path stroke="none" fill="#f0f0f0" d="M 50.000,16.600 C 50.000,17.900 50.000,19.200 50.000,20.500 55.333,20.500 60.667,20.500 66.000,20.500 66.000,19.200 66.000,17.900 66.000,16.600 66.000,16.600 66.000,16.600 66.000,16.600 63.633,16.600 61.267,16.600 58.900,16.600 55.933,16.600 52.967,16.600 50.000,16.600 Z " />
  <path stroke="none" fill="#f0f0f0" d="M 47.300,32.000 C 45.600,32.300 43.900,31.200 43.600,29.400 43.300,27.600 44.400,26.000 46.200,25.700 46.600,25.600 47.000,25.600 47.300,25.700 49.000,25.400 50.700,26.500 51.000,28.300 51.300,30.100 50.200,31.700 48.400,32.000 48.100,32.100 47.700,32.100 47.300,32.000 47.300,32.000 47.300,32.000 47.300,32.000 Z M 54.900,22.500 C 56.600,22.500 57.900,23.800 57.900,25.500 58.200,27.100 57.100,28.700 55.500,29.000 53.900,29.300 52.300,28.200 52.000,26.600 51.900,26.200 51.900,25.900 52.000,25.500 52.000,23.900 53.300,22.600 54.900,22.500 54.900,22.500 54.900,22.500 54.900,22.500 Z M 62.300,25.500 C 64.100,25.500 65.500,26.900 65.500,28.700 65.500,28.700 65.500,28.700 65.500,28.700 65.800,30.400 64.700,32.100 62.900,32.400 61.200,32.700 59.500,31.600 59.200,29.800 59.100,29.400 59.100,29.000 59.200,28.700 59.100,27.000 60.500,25.600 62.200,25.500 62.200,25.500 62.300,25.500 62.300,25.500 62.300,25.500 62.300,25.500 62.300,25.500 Z M 38.300,28.900 C 36.500,29.000 35.100,27.600 35.000,25.800 34.900,24.000 36.300,22.600 38.100,22.500 39.900,22.400 41.300,23.800 41.400,25.600 41.400,25.600 41.400,25.700 41.400,25.700 41.400,27.400 40.000,28.800 38.300,28.900 38.300,28.900 38.300,28.900 38.300,28.900 Z M 29.800,32.000 C 28.100,31.700 26.900,30.000 27.200,28.300 27.400,27.000 28.500,25.900 29.800,25.700 31.500,25.400 33.200,26.500 33.500,28.300 33.800,30.100 32.700,31.700 30.900,32.000 30.600,32.100 30.200,32.100 29.800,32.000 29.800,32.000 29.800,32.000 29.800,32.000 Z M 46.700,23.300 C 45.400,23.300 44.100,22.600 43.400,21.500 39.967,21.500 36.533,21.500 33.100,21.500 32.100,22.500 30.700,23.200 29.300,23.300 28.100,23.300 26.900,22.600 26.300,21.500 24.333,21.500 22.367,21.500 20.400,21.500 20.400,24.667 20.400,27.833 20.400,31.000 22.000,31.000 23.500,31.800 24.400,33.100 27.833,33.100 31.267,33.100 34.700,33.100 34.700,33.100 36.000,30.800 38.000,30.800 40.000,30.800 41.300,33.200 41.300,33.200 44.867,33.200 48.433,33.200 52.000,33.200 52.500,31.800 53.900,30.800 55.400,30.700 56.900,30.700 58.200,31.700 58.700,33.100 61.133,33.100 63.567,33.100 66.000,33.100 66.000,29.233 66.000,25.367 66.000,21.500 60.667,21.500 55.333,21.500 50.000,21.500 49.300,22.600 48.000,23.300 46.700,23.300 46.700,23.300 46.700,23.300 46.700,23.300 Z " />
  <path stroke="none" fill="#f0f0f0" d="M 67.100,34.300 C 69.600,34.300 72.100,34.300 74.600,34.300 74.600,30.033 74.600,25.767 74.600,21.500 72.067,21.500 69.533,21.500 67.000,21.500 67.033,25.767 67.067,30.033 67.100,34.300 Z " />
</svg>