<?xml version="1.0" encoding="UTF-8" standalone="no"?>
<!DOCTYPE svg PUBLIC "-//W3C//DTD SVG 20010904//EN" "http://www.w3.org/TR/2001/REC-SVG-20010904/DTD/svg10.dtd"[]>
<svg version="1.1" xmlns="http://www.w3.org/2000/svg" d1p1:xlink="http://www.w3.org/1999/xlink" viewBox="0 0 100 50" xmlns:d1p1="xmlns">
  <path stroke="none" fill="#f0f0f0" d="M 31.300,21.300 C 31.300,20.400 31.300,19.500 31.300,18.600 30.833,15.467 30.367,12.333 29.900,9.200 29.600,9.200 29.300,9.200 29.000,9.200 28.533,12.333 28.067,15.467 27.600,18.600 27.600,19.500 27.600,20.400 27.600,21.300 28.833,21.300 30.067,21.300 31.300,21.300 Z " />
  <path stroke="none" fill="#f0f0f0" d="M 39.500,21.300 C 39.500,20.400 39.500,19.500 39.500,18.600 39.033,15.467 38.567,12.333 38.100,9.200 37.800,9.200 37.500,9.200 37.200,9.200 36.733,12.333 36.267,15.467 35.800,18.600 35.800,19.500 35.800,20.400 35.800,21.300 37.033,21.300 38.267,21.300 39.500,21.300 Z " />
  <path stroke="none" fill="#f0f0f0" d="M 47.700,21.200 C 47.700,20.333 47.700,19.467 47.700,18.600 47.233,15.467 46.767,12.333 46.300,9.200 46.000,9.200 45.700,9.200 45.400,9.200 44.933,12.333 44.467,15.467 44.000,18.600 44.000,19.500 44.000,20.400 44.000,21.300 45.233,21.267 46.467,21.233 47.700,21.200 Z " />
  <path stroke="none" fill="#f0f0f0" d="M 55.700,21.300 C 55.700,20.400 55.700,19.500 55.700,18.600 55.233,15.467 54.767,12.333 54.300,9.200 54.000,9.200 53.700,9.200 53.400,9.200 52.933,12.333 52.467,15.467 52.000,18.600 52.000,19.500 52.000,20.400 52.000,21.300 53.233,21.300 54.467,21.300 55.700,21.300 Z " />
  <path stroke="none" fill="#f0f0f0" d="M 63.900,21.200 C 63.900,20.333 63.900,19.467 63.900,18.600 63.433,15.467 62.967,12.333 62.500,9.200 62.200,9.200 61.900,9.200 61.600,9.200 61.133,12.333 60.667,15.467 60.200,18.600 60.200,19.500 60.200,20.400 60.200,21.300 61.433,21.267 62.667,21.233 63.900,21.200 Z " />
  <path stroke="none" fill="#f0f0f0" d="M 72.100,21.300 C 72.100,20.400 72.100,19.500 72.100,18.600 71.633,15.467 71.167,12.333 70.700,9.200 70.400,9.200 70.100,9.200 69.800,9.200 69.333,12.333 68.867,15.467 68.400,18.600 68.400,19.500 68.400,20.400 68.400,21.300 69.633,21.300 70.867,21.300 72.100,21.300 Z " />
  <path stroke="none" fill="#f0f0f0" d="M 67.300,35.400 C 67.300,34.900 67.300,34.400 67.300,33.900 66.567,33.900 65.833,33.900 65.100,33.900 65.100,34.400 65.100,34.900 65.100,35.400 63.100,35.400 61.100,35.400 59.100,35.400 59.100,34.900 59.100,34.400 59.100,33.900 58.333,33.900 57.567,33.900 56.800,33.900 56.800,34.400 56.800,34.900 56.800,35.400 54.833,35.400 52.867,35.400 50.900,35.400 50.900,34.900 50.900,34.400 50.900,33.900 50.167,33.900 49.433,33.900 48.700,33.900 48.700,34.400 48.700,34.900 48.700,35.400 46.700,35.400 44.700,35.400 42.700,35.400 42.700,34.900 42.700,34.400 42.700,33.900 41.967,33.900 41.233,33.900 40.500,33.900 40.500,34.400 40.500,34.900 40.500,35.400 38.533,35.400 36.567,35.400 34.600,35.400 34.600,34.900 34.600,34.400 34.600,33.900 33.867,33.900 33.133,33.900 32.400,33.900 32.400,34.400 32.400,34.900 32.400,35.400 30.433,35.400 28.467,35.400 26.500,35.400 26.500,33.567 26.500,31.733 26.500,29.900 28.467,29.900 30.433,29.900 32.400,29.900 32.400,30.333 32.400,30.767 32.400,31.200 33.133,31.200 33.867,31.200 34.600,31.200 34.600,30.767 34.600,30.333 34.600,29.900 36.567,29.900 38.533,29.900 40.500,29.900 40.500,30.333 40.500,30.767 40.500,31.200 41.233,31.200 41.967,31.200 42.700,31.200 42.700,30.767 42.700,30.333 42.700,29.900 44.700,29.900 46.700,29.900 48.700,29.900 48.700,30.333 48.700,30.767 48.700,31.200 49.433,31.200 50.167,31.200 50.900,31.200 50.900,30.767 50.900,30.333 50.900,29.900 52.867,29.900 54.833,29.900 56.800,29.900 56.800,30.333 56.800,30.767 56.800,31.200 57.567,31.200 58.333,31.200 59.100,31.200 59.100,30.767 59.100,30.333 59.100,29.900 61.100,29.900 63.100,29.900 65.100,29.900 65.100,30.333 65.100,30.767 65.100,31.200 65.833,31.200 66.567,31.200 67.300,31.200 67.300,30.767 67.300,30.333 67.300,29.900 69.367,29.900 71.433,29.900 73.500,29.900 73.500,31.733 73.500,33.567 73.500,35.400 71.433,35.400 69.367,35.400 67.300,35.400 67.300,35.400 67.300,35.400 67.300,35.400 Z M 74.800,36.700 C 74.800,34.000 74.800,31.300 74.800,28.600 74.200,28.600 73.600,28.600 73.000,28.600 73.000,27.833 73.000,27.067 73.000,26.300 72.700,25.600 72.400,24.900 72.100,24.200 72.100,23.500 72.100,22.800 72.100,22.100 70.867,22.100 69.633,22.100 68.400,22.100 68.400,22.800 68.400,23.500 68.400,24.200 68.100,24.900 67.800,25.600 67.500,26.300 67.500,27.067 67.500,27.833 67.500,28.600 66.600,28.600 65.700,28.600 64.800,28.600 64.800,27.833 64.800,27.067 64.800,26.300 64.500,25.600 64.200,24.900 63.900,24.200 63.900,23.500 63.900,22.800 63.900,22.100 62.667,22.100 61.433,22.100 60.200,22.100 60.200,22.800 60.200,23.500 60.200,24.200 59.900,24.900 59.600,25.600 59.300,26.300 59.300,27.067 59.300,27.833 59.300,28.600 58.400,28.600 57.500,28.600 56.600,28.600 56.600,27.833 56.600,27.067 56.600,26.300 56.300,25.600 56.000,24.900 55.700,24.200 55.700,23.500 55.700,22.800 55.700,22.100 54.467,22.100 53.233,22.100 52.000,22.100 52.000,22.800 52.000,23.500 52.000,24.200 51.700,24.900 51.400,25.600 51.100,26.300 51.100,27.067 51.100,27.833 51.100,28.600 50.267,28.600 49.433,28.600 48.600,28.600 48.600,27.833 48.600,27.067 48.600,26.300 48.300,25.600 48.000,24.900 47.700,24.200 47.700,23.500 47.700,22.800 47.700,22.100 46.467,22.100 45.233,22.100 44.000,22.100 44.000,22.800 44.000,23.500 44.000,24.200 43.700,24.900 43.400,25.600 43.100,26.300 43.100,27.067 43.100,27.833 43.100,28.600 42.200,28.600 41.300,28.600 40.400,28.600 40.400,27.833 40.400,27.067 40.400,26.300 40.100,25.600 39.800,24.900 39.500,24.200 39.500,23.500 39.500,22.800 39.500,22.100 38.267,22.100 37.033,22.100 35.800,22.100 35.800,22.800 35.800,23.500 35.800,24.200 35.500,24.900 35.200,25.600 34.900,26.300 34.900,27.067 34.900,27.833 34.900,28.600 34.000,28.600 33.100,28.600 32.200,28.600 32.200,27.833 32.200,27.067 32.200,26.300 31.900,25.600 31.600,24.900 31.300,24.200 31.300,23.533 31.300,22.867 31.300,22.200 30.067,22.200 28.833,22.200 27.600,22.200 27.600,22.867 27.600,23.533 27.600,24.200 27.300,24.900 27.000,25.600 26.700,26.300 26.700,27.067 26.700,27.833 26.700,28.600 26.200,28.600 25.700,28.600 25.200,28.600 25.200,31.300 25.200,34.000 25.200,36.700 25.700,36.700 26.200,36.700 26.700,36.700 26.700,37.800 26.700,38.900 26.700,40.000 26.533,40.000 26.367,40.000 26.200,40.000 26.200,40.267 26.200,40.533 26.200,40.800 28.367,40.800 30.533,40.800 32.700,40.800 32.700,40.533 32.700,40.267 32.700,40.000 32.533,40.000 32.367,40.000 32.200,40.000 32.200,38.900 32.200,37.800 32.200,36.700 33.100,36.700 34.000,36.700 34.900,36.700 34.900,37.800 34.900,38.900 34.900,40.000 34.733,40.000 34.567,40.000 34.400,40.000 34.400,40.267 34.400,40.533 34.400,40.800 36.567,40.800 38.733,40.800 40.900,40.800 40.900,40.533 40.900,40.267 40.900,40.000 40.733,40.000 40.567,40.000 40.400,40.000 40.400,38.900 40.400,37.800 40.400,36.700 41.300,36.700 42.200,36.700 43.100,36.700 43.100,37.800 43.100,38.900 43.100,40.000 42.933,40.000 42.767,40.000 42.600,40.000 42.600,40.267 42.600,40.533 42.600,40.800 44.767,40.800 46.933,40.800 49.100,40.800 49.100,40.533 49.100,40.267 49.100,40.000 48.933,40.000 48.767,40.000 48.600,40.000 48.600,38.900 48.600,37.800 48.600,36.700 49.433,36.700 50.267,36.700 51.100,36.700 51.100,37.800 51.100,38.900 51.100,40.000 50.933,40.000 50.767,40.000 50.600,40.000 50.600,40.267 50.600,40.533 50.600,40.800 52.767,40.800 54.933,40.800 57.100,40.800 57.100,40.533 57.100,40.267 57.100,40.000 56.933,40.000 56.767,40.000 56.600,40.000 56.600,38.900 56.600,37.800 56.600,36.700 57.500,36.700 58.400,36.700 59.300,36.700 59.300,37.800 59.300,38.900 59.300,40.000 59.133,40.000 58.967,40.000 58.800,40.000 58.800,40.267 58.800,40.533 58.800,40.800 60.967,40.800 63.133,40.800 65.300,40.800 65.300,40.533 65.300,40.267 65.300,40.000 65.133,40.000 64.967,40.000 64.800,40.000 64.800,38.900 64.800,37.800 64.800,36.700 65.700,36.700 66.600,36.700 67.500,36.700 67.500,37.800 67.500,38.900 67.500,40.000 67.333,40.000 67.167,40.000 67.000,40.000 67.000,40.267 67.000,40.533 67.000,40.800 69.167,40.800 71.333,40.800 73.500,40.800 73.500,40.533 73.500,40.267 73.500,40.000 73.333,40.000 73.167,40.000 73.000,40.000 73.000,38.900 73.000,37.800 73.000,36.700 73.600,36.700 74.200,36.700 74.800,36.700 74.800,36.700 74.800,36.700 74.800,36.700 Z " />
</svg>