<?xml version="1.0" encoding="UTF-8" standalone="no"?>
<!DOCTYPE svg PUBLIC "-//W3C//DTD SVG 20010904//EN" "http://www.w3.org/TR/2001/REC-SVG-20010904/DTD/svg10.dtd"[]>
<svg version="1.1" xmlns="http://www.w3.org/2000/svg" d1p1:xlink="http://www.w3.org/1999/xlink" viewBox="0 0 100 50" xmlns:d1p1="xmlns">
  <path stroke="none" fill="#f0f0f0" d="M 38.900,38.800 C 46.300,38.800 53.700,38.800 61.100,38.800 61.100,40.633 61.100,42.467 61.100,44.300 53.700,44.300 46.300,44.300 38.900,44.300 38.900,42.467 38.900,40.633 38.900,38.800 38.900,38.800 38.900,38.800 38.900,38.800 Z M 38.900,32.500 C 46.300,32.500 53.700,32.500 61.100,32.500 61.100,34.233 61.100,35.967 61.100,37.700 53.700,37.700 46.300,37.700 38.900,37.700 38.900,35.967 38.900,34.233 38.900,32.500 38.900,32.500 38.900,32.500 38.900,32.500 Z M 38.900,26.000 C 46.300,26.000 53.700,26.000 61.100,26.000 61.100,27.833 61.100,29.667 61.100,31.500 53.700,31.500 46.300,31.500 38.900,31.500 38.900,29.667 38.900,27.833 38.900,26.000 38.900,26.000 38.900,26.000 38.900,26.000 Z M 37.900,45.300 C 45.967,45.300 54.033,45.300 62.100,45.300 62.100,38.533 62.100,31.767 62.100,25.000 54.033,25.000 45.967,25.000 37.900,25.000 37.900,31.767 37.900,38.533 37.900,45.300 37.900,45.300 37.900,45.300 37.900,45.300 Z " />
  <path stroke="none" fill="#f0f0f0" d="M 61.100,11.500 C 53.700,11.500 46.300,11.500 38.900,11.500 38.900,9.600 38.900,7.700 38.900,5.800 46.300,5.800 53.700,5.800 61.100,5.800 61.100,5.800 61.100,11.500 61.100,11.500 61.100,11.500 61.100,11.500 61.100,11.500 Z M 37.900,4.800 C 37.900,7.400 37.900,10.000 37.900,12.600 45.967,12.600 54.033,12.600 62.100,12.600 62.100,10.000 62.100,7.400 62.100,4.800 54.033,4.800 45.967,4.800 37.900,4.800 37.900,4.800 37.900,4.800 37.900,4.800 Z " />
  <path stroke="none" fill="#f0f0f0" d="M 44.400,15.800 C 46.267,17.700 48.133,19.600 50.000,21.500 51.900,19.600 53.800,17.700 55.700,15.800 51.933,15.800 48.167,15.800 44.400,15.800 Z " />
  <path stroke="none" fill="#f0f0f0" d="M 41.500,9.800 C 41.500,9.800 41.500,9.800 41.500,9.800 42.300,9.800 42.800,9.300 42.800,8.600 42.700,8.000 42.200,7.500 41.600,7.500 41.000,7.500 40.500,8.000 40.500,8.600 40.400,9.300 40.900,9.800 41.500,9.800 41.500,9.800 41.500,9.800 41.500,9.800 Z " />
  <path stroke="none" fill="#f0f0f0" d="M 45.800,9.800 C 46.400,9.800 46.900,9.300 46.900,8.700 46.900,8.100 46.400,7.600 45.800,7.600 45.200,7.600 44.700,8.100 44.700,8.700 44.700,9.300 45.200,9.800 45.800,9.800 45.800,9.800 45.800,9.800 45.800,9.800 Z " />
  <path stroke="none" fill="#f0f0f0" d="M 50.000,9.800 C 50.600,9.800 51.100,9.300 51.100,8.700 51.100,8.100 50.600,7.600 50.000,7.600 49.400,7.600 48.900,8.100 48.900,8.700 48.900,9.300 49.400,9.800 50.000,9.800 50.000,9.800 50.000,9.800 50.000,9.800 Z " />
  <path stroke="none" fill="#f0f0f0" d="M 54.100,9.800 C 54.100,9.800 54.100,9.800 54.100,9.800 54.900,9.800 55.400,9.300 55.400,8.600 55.400,8.000 54.900,7.500 54.300,7.500 54.267,7.500 54.233,7.500 54.200,7.500 53.600,7.500 53.100,8.000 53.100,8.600 53.000,9.300 53.500,9.800 54.100,9.800 54.100,9.800 54.100,9.800 54.100,9.800 Z " />
  <path stroke="none" fill="#f0f0f0" d="M 58.500,9.800 C 59.100,9.800 59.600,9.300 59.600,8.700 59.600,8.667 59.600,8.633 59.600,8.600 59.600,8.000 59.100,7.500 58.500,7.500 57.900,7.500 57.400,8.000 57.300,8.600 57.300,9.300 57.800,9.800 58.500,9.800 58.500,9.800 58.500,9.800 58.500,9.800 Z " />
  <path stroke="none" fill="#f0f0f0" d="M 41.600,27.700 C 41.000,27.700 40.500,28.200 40.500,28.800 40.400,29.400 40.900,29.900 41.500,30.000 41.533,30.000 41.567,30.000 41.600,30.000 42.300,30.000 42.800,29.500 42.800,28.800 42.700,28.100 42.200,27.600 41.600,27.700 41.600,27.700 41.600,27.700 41.600,27.700 Z " />
  <path stroke="none" fill="#f0f0f0" d="M 45.800,27.700 C 45.200,27.700 44.700,28.200 44.700,28.800 44.700,29.400 45.200,29.900 45.800,29.900 46.400,29.900 46.900,29.400 46.900,28.800 46.900,28.100 46.400,27.700 45.800,27.700 45.800,27.700 45.800,27.700 45.800,27.700 Z " />
  <path stroke="none" fill="#f0f0f0" d="M 50.000,27.700 C 49.400,27.700 48.900,28.200 48.900,28.800 48.900,29.400 49.400,29.900 50.000,29.900 50.600,29.900 51.100,29.400 51.100,28.800 51.100,28.100 50.600,27.700 50.000,27.700 50.000,27.700 50.000,27.700 50.000,27.700 Z " />
  <path stroke="none" fill="#f0f0f0" d="M 54.300,27.600 C 54.300,27.600 54.300,27.600 54.300,27.600 53.600,27.600 53.100,28.100 53.100,28.700 53.000,29.300 53.500,29.800 54.100,29.900 54.133,29.900 54.167,29.900 54.200,29.900 54.900,29.900 55.400,29.400 55.400,28.700 55.400,28.100 54.900,27.600 54.300,27.600 54.300,27.600 54.300,27.600 54.300,27.600 Z " />
  <path stroke="none" fill="#f0f0f0" d="M 58.500,27.700 C 57.900,27.700 57.400,28.200 57.300,28.800 57.300,29.500 57.800,30.000 58.500,30.000 59.100,30.000 59.600,29.500 59.600,28.900 59.600,28.867 59.600,28.833 59.600,28.800 59.600,28.100 59.100,27.700 58.500,27.700 58.500,27.700 58.500,27.700 58.500,27.700 Z " />
  <path stroke="none" fill="#f0f0f0" d="M 41.600,34.000 C 41.000,34.000 40.500,34.500 40.500,35.100 40.500,35.700 41.000,36.200 41.600,36.200 42.200,36.200 42.700,35.700 42.700,35.100 42.700,34.500 42.200,34.000 41.600,34.000 41.600,34.000 41.600,34.000 41.600,34.000 Z " />
  <path stroke="none" fill="#f0f0f0" d="M 45.800,34.000 C 45.200,34.000 44.700,34.500 44.700,35.100 44.700,35.700 45.200,36.200 45.800,36.200 46.400,36.200 46.900,35.700 46.900,35.100 46.900,34.500 46.400,34.000 45.800,34.000 45.800,34.000 45.800,34.000 45.800,34.000 Z " />
  <path stroke="none" fill="#f0f0f0" d="M 50.000,34.000 C 49.400,34.000 48.900,34.500 48.900,35.100 48.900,35.700 49.400,36.200 50.000,36.200 50.600,36.200 51.100,35.700 51.100,35.100 51.100,34.500 50.600,34.000 50.000,34.000 50.000,34.000 50.000,34.000 50.000,34.000 Z " />
  <path stroke="none" fill="#f0f0f0" d="M 54.200,34.000 C 53.600,34.000 53.100,34.500 53.100,35.100 53.100,35.700 53.600,36.200 54.200,36.200 54.800,36.200 55.300,35.700 55.300,35.100 55.300,34.500 54.800,34.000 54.200,34.000 54.200,34.000 54.200,34.000 54.200,34.000 Z " />
  <path stroke="none" fill="#f0f0f0" d="M 58.500,34.000 C 57.900,34.000 57.400,34.500 57.400,35.100 57.400,35.700 57.900,36.200 58.500,36.200 59.100,36.200 59.600,35.700 59.600,35.100 59.600,34.500 59.100,34.000 58.500,34.000 58.500,34.000 58.500,34.000 58.500,34.000 Z " />
  <path stroke="none" fill="#f0f0f0" d="M 41.600,40.300 C 41.000,40.300 40.500,40.800 40.500,41.400 40.400,42.000 40.900,42.500 41.500,42.600 41.533,42.600 41.567,42.600 41.600,42.600 42.300,42.600 42.800,42.100 42.800,41.400 42.800,41.400 42.800,41.400 42.800,41.400 42.700,40.700 42.200,40.200 41.600,40.300 41.600,40.300 41.600,40.300 41.600,40.300 Z " />
  <path stroke="none" fill="#f0f0f0" d="M 45.900,40.200 C 45.900,40.200 45.900,40.200 45.900,40.200 45.200,40.200 44.700,40.700 44.700,41.300 44.600,41.900 45.100,42.400 45.700,42.500 45.733,42.500 45.767,42.500 45.800,42.500 46.500,42.500 47.000,42.000 47.000,41.300 47.000,40.700 46.500,40.200 45.900,40.200 45.900,40.200 45.900,40.200 45.900,40.200 Z " />
  <path stroke="none" fill="#f0f0f0" d="M 50.000,40.300 C 49.400,40.300 48.900,40.800 48.900,41.400 48.800,42.000 49.300,42.500 49.900,42.600 49.933,42.600 49.967,42.600 50.000,42.600 50.700,42.600 51.200,42.100 51.200,41.400 51.100,40.700 50.600,40.200 50.000,40.300 50.000,40.300 50.000,40.300 50.000,40.300 Z " />
  <path stroke="none" fill="#f0f0f0" d="M 54.300,40.200 C 54.300,40.200 54.300,40.200 54.300,40.200 53.600,40.200 53.100,40.700 53.100,41.300 53.000,41.900 53.500,42.400 54.100,42.500 54.133,42.500 54.167,42.500 54.200,42.500 54.900,42.500 55.400,42.000 55.400,41.300 55.400,40.700 54.900,40.200 54.300,40.200 54.300,40.200 54.300,40.200 54.300,40.200 Z " />
  <path stroke="none" fill="#f0f0f0" d="M 58.500,40.300 C 57.900,40.300 57.400,40.800 57.300,41.400 57.300,42.100 57.800,42.600 58.500,42.600 59.100,42.600 59.600,42.100 59.600,41.500 59.600,41.467 59.600,41.433 59.600,41.400 59.600,40.700 59.100,40.300 58.500,40.300 58.500,40.300 58.500,40.300 58.500,40.300 Z " />
</svg>