<?xml version="1.0" encoding="UTF-8" standalone="no"?>
<!DOCTYPE svg PUBLIC "-//W3C//DTD SVG 20010904//EN" "http://www.w3.org/TR/2001/REC-SVG-20010904/DTD/svg10.dtd"[]>
<svg version="1.1" xmlns="http://www.w3.org/2000/svg" d1p1:xlink="http://www.w3.org/1999/xlink" viewBox="0 0 100 50" xmlns:d1p1="xmlns">
  <path stroke="none" fill="#f0f0f0" d="M 39.400,13.700 C 38.900,13.700 38.400,13.700 37.900,13.700 37.900,14.033 37.900,14.367 37.900,14.700 38.400,14.700 38.900,14.700 39.400,14.700 39.400,14.367 39.400,14.033 39.400,13.700 39.400,13.700 39.400,13.700 39.400,13.700 Z " />
  <path stroke="none" fill="#f0f0f0" d="M 37.900,15.800 C 38.400,15.800 38.900,15.800 39.400,15.800 39.400,16.067 39.400,16.333 39.400,16.600 38.900,16.600 38.400,16.600 37.900,16.600 37.900,16.333 37.900,16.067 37.900,15.800 Z " />
  <path stroke="none" fill="#f0f0f0" d="M 39.400,28.500 C 39.200,27.100 39.400,19.600 39.400,19.600 38.900,19.600 38.400,19.600 37.900,19.600 37.900,20.567 37.900,21.533 37.900,22.500 37.900,24.100 37.800,28.600 37.800,28.600 37.800,29.500 38.100,30.400 38.600,31.200 40.100,32.300 41.000,34.000 40.900,35.900 40.500,38.800 37.800,40.800 34.900,40.400 32.500,40.100 30.700,38.200 30.400,35.900 30.300,33.900 31.300,32.500 32.700,31.200 34.100,29.900 33.400,29.200 33.400,27.900 33.400,22.700 33.400,17.500 33.400,12.300 33.500,11.100 33.700,9.900 35.000,9.500 35.700,9.300 36.500,9.400 37.000,9.800 37.400,10.100 37.700,10.500 37.800,11.000 37.900,11.500 37.900,12.100 37.900,12.600 38.400,12.600 38.900,12.600 39.400,12.600 39.400,10.900 39.100,8.900 37.500,8.100 35.900,7.300 33.600,7.700 32.600,9.200 32.100,10.200 31.900,11.200 31.800,12.300 31.800,13.600 32.100,27.600 31.900,29.100 31.700,30.600 30.800,30.800 30.100,31.700 29.500,32.700 29.100,33.800 28.900,34.900 28.700,38.700 31.500,41.900 35.300,42.200 39.500,42.500 42.400,38.900 42.400,35.000 42.400,32.700 40.700,31.300 39.900,30.200 39.600,29.700 39.400,29.100 39.400,28.500 39.400,28.500 39.400,28.500 39.400,28.500 Z " />
  <path stroke="none" fill="#f0f0f0" d="M 37.900,18.400 C 38.400,18.400 38.900,18.400 39.400,18.400 39.400,18.167 39.400,17.933 39.400,17.700 38.900,17.700 38.400,17.700 37.900,17.700 37.900,17.933 37.900,18.167 37.900,18.400 37.900,18.400 37.900,18.400 37.900,18.400 Z " />
  <path stroke="none" fill="#f0f0f0" d="M 34.700,21.700 C 34.700,25.067 34.700,28.433 34.700,31.800 33.100,32.300 31.900,33.800 31.900,35.500 31.900,37.600 33.600,39.300 35.700,39.300 37.800,39.300 39.500,37.600 39.500,35.500 39.500,33.800 38.300,32.300 36.700,31.900 36.700,28.500 36.700,25.100 36.700,21.700 36.033,21.700 35.367,21.700 34.700,21.700 34.700,21.700 34.700,21.700 34.700,21.700 Z " />
  <path stroke="none" fill="#f0f0f0" d="M 61.300,41.000 C 53.500,41.000 47.100,34.600 47.100,26.800 47.100,19.000 53.500,12.600 61.300,12.600 69.100,12.600 75.500,19.000 75.500,26.800 75.400,34.600 69.100,40.900 61.300,41.000 61.300,41.000 61.300,41.000 61.300,41.000 Z M 61.900,11.400 C 61.900,10.600 61.900,9.800 61.900,9.000 63.467,9.000 65.033,9.000 66.600,9.000 66.600,8.600 66.600,8.200 66.600,7.800 63.067,7.800 59.533,7.800 56.000,7.800 56.000,8.200 56.000,8.600 56.000,9.000 57.567,9.000 59.133,9.000 60.700,9.000 60.700,9.800 60.700,10.600 60.700,11.400 52.100,11.700 45.500,18.900 45.800,27.500 46.100,36.100 53.300,42.700 61.900,42.400 70.500,42.100 77.100,34.900 76.800,26.300 76.500,18.200 70.000,11.700 61.900,11.400 61.900,11.400 61.900,11.400 61.900,11.400 Z " />
  <path stroke="none" fill="#f0f0f0" d="M 61.300,37.700 C 55.200,37.700 50.300,32.800 50.300,26.700 50.300,20.600 55.200,15.700 61.300,15.700 67.400,15.700 72.300,20.600 72.300,26.700 72.300,26.700 72.300,26.800 72.300,26.800 72.300,32.800 67.400,37.700 61.400,37.700 61.400,37.700 61.300,37.700 61.300,37.700 61.300,37.700 61.300,37.700 61.300,37.700 Z M 61.300,14.700 C 54.600,14.800 49.200,20.200 49.300,26.900 49.400,33.600 54.800,39.000 61.500,38.900 68.100,38.800 73.500,33.400 73.500,26.800 73.500,20.100 68.100,14.700 61.400,14.700 61.400,14.700 61.300,14.700 61.300,14.700 61.300,14.700 61.300,14.700 61.300,14.700 Z " />
  <path stroke="none" fill="#f0f0f0" d="M 61.900,19.000 C 61.500,19.000 61.100,19.000 60.700,19.000 60.700,22.033 60.700,25.067 60.700,28.100 62.000,29.400 63.300,30.700 64.600,32.000 64.867,31.700 65.133,31.400 65.400,31.100 64.233,29.933 63.067,28.767 61.900,27.600 61.900,24.733 61.900,21.867 61.900,19.000 Z " />
</svg>