<?xml version="1.0" encoding="UTF-8" standalone="no"?>
<!DOCTYPE svg PUBLIC "-//W3C//DTD SVG 20010904//EN" "http://www.w3.org/TR/2001/REC-SVG-20010904/DTD/svg10.dtd"[]>
<svg version="1.1" xmlns="http://www.w3.org/2000/svg" d1p1:xlink="http://www.w3.org/1999/xlink" viewBox="0 0 100 50" xmlns:d1p1="xmlns">
  <path stroke="none" fill="#f0f0f0" d="M 31.926,36.267 C 32.080,35.972 32.234,35.676 32.389,35.381 33.186,35.798 33.984,36.215 34.782,36.632 34.627,36.927 34.473,37.223 34.318,37.518 33.521,37.101 32.723,36.684 31.926,36.267 Z " />
  <path stroke="none" fill="#f0f0f0" d="M 38.824,41.633 C 39.682,41.364 40.541,41.095 41.400,40.826 41.500,41.144 41.599,41.462 41.699,41.780 40.840,42.049 39.981,42.318 39.123,42.587 39.023,42.269 38.923,41.951 38.824,41.633 Z " />
  <path stroke="none" fill="#f0f0f0" d="M 36.804,35.612 C 37.122,35.512 37.440,35.412 37.758,35.313 38.027,36.171 38.296,37.030 38.566,37.889 38.247,37.989 37.929,38.088 37.611,38.188 37.342,37.329 37.073,36.470 36.804,35.612 Z " />
  <path stroke="none" fill="#f0f0f0" d="M 31.764,43.400 C 32.153,42.588 32.542,41.776 32.931,40.965 33.232,41.109 33.532,41.253 33.833,41.397 33.444,42.208 33.055,43.020 32.666,43.832 32.365,43.688 32.065,43.544 31.764,43.400 Z " />
  <path stroke="none" fill="#f0f0f0" d="M 35.511,32.515 C 36.370,32.246 37.229,31.977 38.088,31.708 38.187,32.026 38.287,32.344 38.387,32.662 37.528,32.931 36.669,33.200 35.810,33.469 35.711,33.151 35.611,32.833 35.511,32.515 Z " />
  <path stroke="none" fill="#f0f0f0" d="M 39.330,28.650 C 39.566,28.414 39.802,28.179 40.037,27.943 40.674,28.579 41.310,29.216 41.946,29.852 41.711,30.088 41.475,30.324 41.239,30.559 40.603,29.923 39.967,29.286 39.330,28.650 Z " />
  <path stroke="none" fill="#f0f0f0" d="M 85.800,11.800 C 82.600,11.100 80.700,14.400 80.700,14.400 80.700,14.933 80.700,15.467 80.700,16.000 80.700,16.000 83.000,18.800 86.100,17.900 89.200,17.000 89.900,14.900 92.500,14.900 89.900,14.900 89.300,12.500 85.800,11.800 85.800,11.800 85.800,11.800 85.800,11.800 Z " />
  <path stroke="none" fill="#f0f0f0" d="M 66.100,20.300 C 65.500,20.700 64.900,21.000 64.200,21.200 63.500,21.900 62.600,22.500 61.700,22.900 61.000,23.200 58.100,21.500 56.700,20.700 56.467,20.567 56.233,20.433 56.000,20.300 55.900,20.200 55.800,20.200 55.600,20.300 53.400,21.300 50.800,21.400 48.500,20.600 48.500,19.600 48.500,18.600 48.500,17.600 49.467,17.600 50.433,17.600 51.400,17.600 51.400,18.233 51.400,18.867 51.400,19.500 53.633,19.333 55.867,19.167 58.100,19.000 58.300,19.333 58.500,19.667 58.700,20.000 58.800,20.100 59.000,20.200 59.200,20.100 59.400,20.000 59.400,19.900 59.400,19.700 59.400,19.700 59.400,19.600 59.300,19.600 59.000,19.067 58.700,18.533 58.400,18.000 57.900,17.200 57.600,16.800 57.800,16.300 57.900,16.300 58.000,16.300 58.100,16.300 58.600,16.600 58.900,16.900 59.200,17.400 59.200,17.500 59.700,18.200 59.700,18.400 60.200,19.200 60.700,20.000 61.200,20.800 61.367,20.800 61.533,20.800 61.700,20.800 61.800,20.600 61.600,20.300 61.500,20.100 61.267,19.700 61.033,19.300 60.800,18.900 60.500,18.300 60.200,17.700 59.900,17.100 59.500,16.200 59.400,15.800 59.700,15.600 60.100,15.700 60.500,16.000 60.800,16.400 60.800,16.500 62.600,19.600 62.600,19.600 62.600,19.600 63.300,20.700 63.400,20.500 63.500,20.400 63.500,20.100 63.400,20.000 63.100,19.533 62.800,19.067 62.500,18.600 62.000,17.600 61.700,16.700 61.300,16.100 60.900,15.500 61.100,15.400 61.300,15.300 61.500,15.200 61.800,15.300 62.000,15.400 62.900,16.400 63.600,17.500 64.000,18.700 64.000,18.700 64.700,20.100 64.900,20.100 65.100,20.100 65.000,19.700 65.000,19.600 65.000,19.500 64.400,18.300 64.200,17.700 64.000,17.100 63.200,15.900 63.600,15.700 64.000,15.500 65.200,16.900 65.600,17.700 65.800,18.267 66.000,18.833 66.200,19.400 66.300,19.700 66.200,20.000 66.100,20.300 66.100,20.300 66.100,20.300 66.100,20.300 Z M 41.100,22.500 C 40.833,22.500 40.567,22.500 40.300,22.500 40.300,22.400 40.400,22.400 40.400,22.300 40.500,21.900 40.500,21.500 40.300,21.200 40.100,20.967 39.900,20.733 39.700,20.500 40.167,20.500 40.633,20.500 41.100,20.500 41.700,20.500 42.100,20.900 42.100,21.500 42.100,22.100 41.700,22.500 41.100,22.500 41.100,22.500 41.100,22.500 41.100,22.500 Z M 78.200,11.700 C 77.533,11.700 76.867,11.700 76.200,11.700 76.067,12.333 75.933,12.967 75.800,13.600 68.133,13.600 60.467,13.600 52.800,13.600 51.300,12.733 49.800,11.867 48.300,11.000 47.333,9.733 46.367,8.467 45.400,7.200 45.200,7.100 45.100,7.100 44.900,7.200 44.700,7.300 44.700,7.500 44.800,7.700 45.800,9.000 46.800,10.300 47.800,11.600 48.600,12.067 49.400,12.533 50.200,13.000 46.467,13.000 42.733,13.000 39.000,13.000 37.700,11.900 36.700,10.500 36.300,8.800 36.300,8.600 36.100,8.400 35.900,8.500 35.700,8.600 35.500,8.700 35.600,8.900 35.900,10.500 36.700,11.900 37.900,13.000 34.200,13.000 33.700,13.000 33.500,13.200 33.133,13.467 32.767,13.733 32.400,14.000 28.100,14.100 23.800,14.200 19.500,14.300 19.400,15.767 19.300,17.233 19.200,18.700 19.533,18.700 19.867,18.700 20.200,18.700 20.200,19.100 20.000,19.600 19.600,19.800 19.200,20.000 19.000,19.900 18.500,19.500 18.233,19.300 17.967,19.100 17.700,18.900 17.000,18.500 12.900,19.800 12.900,19.800 13.967,20.300 15.033,20.800 16.100,21.300 16.133,21.300 16.167,21.300 16.200,21.300 19.600,21.300 25.200,21.400 26.000,21.800 26.033,21.800 26.067,21.800 26.100,21.800 27.200,21.700 28.400,21.400 29.400,20.900 29.933,20.700 30.467,20.500 31.000,20.300 31.000,20.300 31.000,20.300 31.000,20.300 33.600,19.300 37.900,20.400 37.900,20.400 38.600,20.500 39.200,20.900 39.600,21.400 39.700,21.600 39.700,21.700 39.700,21.900 38.400,22.500 36.900,22.600 35.500,22.200 35.400,22.200 35.300,22.200 35.200,22.200 35.200,22.300 35.200,22.400 35.200,22.500 35.100,22.900 35.400,23.100 35.900,23.200 36.400,23.300 37.500,23.900 37.800,24.500 37.800,24.700 37.800,25.000 37.700,25.200 37.600,25.300 37.500,25.400 37.400,25.500 36.500,25.200 35.700,24.800 34.900,24.300 34.800,24.200 34.500,24.300 34.400,24.500 34.300,24.700 34.400,24.900 34.500,25.000 35.300,25.500 36.100,26.000 36.800,26.600 36.800,26.700 36.800,26.900 36.700,27.000 36.600,27.200 36.500,27.300 36.300,27.300 35.700,27.300 35.100,27.000 34.600,26.600 34.600,26.600 34.100,26.100 33.800,26.500 33.500,26.900 34.100,27.200 34.100,27.200 34.100,27.200 34.100,27.200 34.100,27.200 35.100,28.000 36.000,28.700 35.800,29.000 35.600,29.300 35.200,29.600 33.400,28.800 31.600,28.000 32.500,28.700 31.800,28.900 31.100,29.200 30.400,29.400 29.600,29.300 29.200,29.200 28.700,29.000 28.400,28.700 28.100,28.400 27.700,28.300 27.300,28.300 26.800,28.200 26.500,28.300 26.300,28.600 26.200,28.700 26.100,28.900 26.100,29.100 25.100,29.200 21.800,29.700 20.000,29.200 19.200,28.900 18.400,28.800 17.600,29.000 16.600,29.300 15.500,29.500 14.400,29.400 13.000,29.400 11.500,29.300 10.100,29.100 9.333,29.033 8.567,28.967 7.800,28.900 7.600,28.900 7.400,29.000 7.400,29.200 7.400,29.400 7.600,29.600 7.800,29.600 8.533,29.667 9.267,29.733 10.000,29.800 11.400,30.000 12.700,30.200 14.100,30.200 15.300,30.200 16.600,30.100 17.800,29.800 18.400,29.600 18.600,29.600 19.800,29.900 21.000,30.200 26.400,29.800 26.500,29.700 26.633,29.700 26.767,29.700 26.900,29.700 26.900,29.700 26.900,28.500 27.900,29.400 29.300,30.100 30.800,30.700 32.400,31.200 33.000,30.900 33.400,30.400 33.500,29.700 35.200,30.500 35.700,30.400 36.300,29.600 36.500,29.400 36.600,29.200 36.600,29.000 36.600,28.700 36.400,28.500 36.200,28.200 36.267,28.200 36.333,28.200 36.400,28.200 36.800,28.100 37.100,27.900 37.300,27.500 37.500,27.300 37.700,26.900 37.600,26.600 37.600,26.500 37.600,26.400 37.500,26.300 37.900,26.300 38.200,26.000 38.300,25.600 38.600,25.200 38.600,24.700 38.500,24.300 38.333,24.100 38.167,23.900 38.000,23.700 38.200,23.700 38.400,23.700 38.600,23.700 39.367,23.767 40.133,23.833 40.900,23.900 41.600,23.900 42.400,23.600 42.900,23.100 42.900,23.267 42.900,23.433 42.900,23.600 43.100,23.600 43.300,23.600 43.500,23.600 43.500,23.867 43.500,24.133 43.500,24.400 43.533,24.400 43.567,24.400 43.600,24.400 43.500,28.800 43.500,33.100 43.500,37.200 43.500,37.400 43.700,37.600 43.900,37.600 43.900,37.600 43.900,37.600 43.900,37.600 45.200,37.600 46.500,37.600 47.800,37.600 47.800,37.500 47.900,37.400 47.900,37.300 47.900,32.967 47.900,28.633 47.900,24.300 47.900,24.300 47.900,24.300 47.900,24.300 47.900,24.033 47.900,23.767 47.900,23.500 48.133,23.500 48.367,23.500 48.600,23.500 48.600,22.800 48.600,22.100 48.600,21.400 51.000,22.200 53.600,22.100 55.900,21.000 56.067,21.133 56.233,21.267 56.400,21.400 58.600,22.600 60.600,23.700 61.700,23.700 61.800,23.700 61.900,23.700 62.000,23.700 63.000,23.300 64.000,22.700 64.800,21.900 64.900,21.833 65.000,21.767 65.100,21.700 65.800,21.700 66.400,21.300 66.800,20.700 67.000,20.200 67.100,19.600 66.900,19.100 66.833,18.933 66.767,18.767 66.700,18.600 68.500,18.500 70.300,18.400 72.100,18.300 72.533,18.300 72.967,18.300 73.400,18.300 73.400,18.167 73.400,18.033 73.400,17.900 73.500,17.100 73.900,16.400 74.500,16.000 76.100,16.000 77.700,16.000 79.300,16.000 79.300,15.200 79.300,14.400 79.300,13.600 78.933,13.600 78.567,13.600 78.200,13.600 78.200,12.967 78.200,12.333 78.200,11.700 78.200,11.700 78.200,11.700 78.200,11.700 Z " />
</svg>