<?xml version="1.0" encoding="UTF-8" standalone="no"?>
<!DOCTYPE svg PUBLIC "-//W3C//DTD SVG 20010904//EN" "http://www.w3.org/TR/2001/REC-SVG-20010904/DTD/svg10.dtd"[]>
<svg version="1.1" xmlns="http://www.w3.org/2000/svg" d1p1:xlink="http://www.w3.org/1999/xlink" viewBox="0 0 100 50" xmlns:d1p1="xmlns">
  <path stroke="none" fill="#f0f0f0" d="M 40.300,12.500 C 41.200,12.500 42.100,12.500 43.000,12.500 43.000,13.133 43.000,13.767 43.000,14.400 41.533,14.400 40.067,14.400 38.600,14.400 39.167,13.767 39.733,13.133 40.300,12.500 40.300,12.500 40.300,12.500 40.300,12.500 Z M 45.300,27.800 C 39.200,28.000 33.000,28.700 27.000,29.900 29.300,28.000 30.000,26.700 30.000,25.800 30.000,24.900 29.800,24.200 26.500,21.500 27.133,21.600 27.767,21.700 28.400,21.800 34.800,23.100 41.500,24.400 45.100,24.400 45.600,24.400 46.100,23.900 46.100,23.400 46.100,22.800 45.700,22.400 45.100,22.400 44.867,22.400 44.633,22.400 44.400,22.400 44.400,21.267 44.400,20.133 44.400,19.000 44.600,19.000 44.800,19.000 45.000,19.000 45.000,18.133 45.000,17.267 45.000,16.400 45.000,16.400 45.000,16.400 45.000,16.400 45.000,14.433 45.000,12.467 45.000,10.500 43.100,10.500 41.200,10.500 39.300,10.500 38.200,11.800 37.100,13.100 36.000,14.400 29.300,14.400 22.600,14.400 15.900,14.400 15.900,15.067 15.900,15.733 15.900,16.400 24.933,16.400 33.967,16.400 43.000,16.400 43.000,17.267 43.000,18.133 43.000,19.000 43.233,19.000 43.467,19.000 43.700,19.000 43.700,20.100 43.700,21.200 43.700,22.300 40.000,22.000 34.100,20.900 28.800,19.900 26.833,19.500 24.867,19.100 22.900,18.700 21.533,18.467 20.167,18.233 18.800,18.000 19.933,18.833 21.067,19.667 22.200,20.500 26.300,23.700 27.500,25.100 27.900,25.600 27.900,25.600 27.900,25.600 27.900,25.600 27.900,25.667 27.900,25.733 27.900,25.800 27.800,26.200 26.900,27.700 22.100,30.900 20.633,31.900 19.167,32.900 17.700,33.900 19.467,33.533 21.233,33.167 23.000,32.800 29.800,31.300 36.700,30.300 43.700,29.900 43.700,31.000 43.700,32.100 43.700,33.200 43.467,33.200 43.233,33.200 43.000,33.200 43.000,33.967 43.000,34.733 43.000,35.500 33.967,35.500 24.933,35.500 15.900,35.500 15.900,36.167 15.900,36.833 15.900,37.500 25.600,37.500 35.300,37.500 45.000,37.500 45.000,36.833 45.000,36.167 45.000,35.500 45.000,35.500 45.000,35.500 45.000,35.500 45.000,34.733 45.000,33.967 45.000,33.200 44.800,33.200 44.600,33.200 44.400,33.200 44.400,32.100 44.400,31.000 44.400,29.900 44.700,29.900 45.000,29.900 45.300,29.900 45.900,29.900 46.300,29.500 46.300,28.900 46.300,28.300 45.900,27.900 45.300,27.800 45.300,27.800 45.300,27.800 45.300,27.800 Z " />
  <path stroke="none" fill="#f0f0f0" d="M 53.900,24.700 C 53.900,23.800 53.200,23.100 52.300,23.100 51.500,23.200 50.800,23.900 50.800,24.700 50.800,25.500 51.500,26.200 52.300,26.200 53.100,26.200 53.800,25.500 53.900,24.700 53.900,24.700 53.900,24.700 53.900,24.700 Z " />
  <path stroke="none" fill="#f0f0f0" d="M 49.200,26.600 C 49.200,27.484 48.484,28.200 47.600,28.200 46.716,28.200 46.000,27.484 46.000,26.600 46.000,25.716 46.716,25.000 47.600,25.000 48.484,25.000 49.200,25.716 49.200,26.600 49.200,26.600 49.200,26.600 49.200,26.600 Z " />
  <path stroke="none" fill="#f0f0f0" d="M 61.400,30.400 C 61.400,29.500 60.700,28.800 59.800,28.800 58.900,28.800 58.200,29.500 58.200,30.400 58.200,31.300 58.900,32.000 59.800,32.000 60.700,32.000 61.400,31.300 61.400,30.400 61.400,30.400 61.400,30.400 61.400,30.400 61.400,30.400 61.400,30.400 61.400,30.400 Z " />
  <path stroke="none" fill="#f0f0f0" d="M 53.600,27.000 C 52.800,27.000 52.100,27.700 52.100,28.500 52.100,29.300 52.800,30.000 53.600,30.100 54.500,30.100 55.200,29.400 55.200,28.500 55.100,27.700 54.400,27.000 53.600,27.000 53.600,27.000 53.600,27.000 53.600,27.000 Z " />
  <path stroke="none" fill="#f0f0f0" d="M 61.300,21.100 C 61.100,21.100 60.900,21.100 60.700,21.100 60.200,21.400 59.800,21.900 59.800,22.500 59.800,23.300 60.400,24.000 61.200,24.100 61.233,24.100 61.267,24.100 61.300,24.100 62.200,24.100 62.900,23.400 62.900,22.500 62.800,21.700 62.100,21.100 61.300,21.100 61.300,21.100 61.300,21.100 61.300,21.100 Z " />
  <path stroke="none" fill="#f0f0f0" d="M 61.600,26.200 C 61.400,26.400 61.300,26.700 61.300,27.000 61.300,27.500 61.500,27.900 61.900,28.200 62.200,28.400 62.500,28.500 62.900,28.500 63.700,28.500 64.400,27.800 64.500,27.000 64.500,26.100 63.800,25.400 62.900,25.400 62.300,25.400 61.800,25.700 61.600,26.200 61.600,26.200 61.600,26.200 61.600,26.200 Z " />
  <path stroke="none" fill="#f0f0f0" d="M 59.000,26.200 C 59.000,25.400 58.300,24.700 57.500,24.600 56.600,24.600 55.900,25.300 55.900,26.200 56.000,27.000 56.700,27.700 57.500,27.700 58.300,27.700 59.000,27.000 59.000,26.200 59.000,26.200 59.000,26.200 59.000,26.200 Z " />
  <path stroke="none" fill="#f0f0f0" d="M 64.900,30.100 C 64.900,31.000 65.600,31.700 66.500,31.700 67.400,31.700 68.100,31.000 68.100,30.100 68.100,29.200 67.400,28.500 66.500,28.500 65.600,28.500 64.900,29.200 64.900,30.100 64.900,30.100 64.900,30.100 64.900,30.100 64.900,30.100 64.900,30.100 64.900,30.100 Z " />
  <path stroke="none" fill="#f0f0f0" d="M 67.700,22.400 C 66.900,22.400 66.200,23.100 66.100,23.900 66.100,24.800 66.800,25.500 67.700,25.500 68.500,25.400 69.200,24.700 69.200,23.900 69.200,23.100 68.500,22.400 67.700,22.400 67.700,22.400 67.700,22.400 67.700,22.400 Z " />
  <path stroke="none" fill="#f0f0f0" d="M 70.000,29.400 C 70.800,29.300 71.500,28.600 71.500,27.800 71.500,27.000 70.800,26.300 70.000,26.300 69.200,26.300 68.500,27.000 68.400,27.800 68.400,28.700 69.100,29.400 70.000,29.400 70.000,29.400 70.000,29.400 70.000,29.400 Z " />
  <path stroke="none" fill="#f0f0f0" d="M 89.300,25.500 C 86.300,24.800 83.400,23.800 80.600,22.600 80.600,22.600 84.700,19.200 88.000,19.000 85.600,15.400 77.800,16.300 77.800,16.300 77.800,16.300 78.500,13.800 82.700,11.500 68.400,11.500 60.800,18.700 60.300,18.900 70.700,15.700 80.100,11.800 75.300,14.400 68.200,18.300 70.400,19.900 70.400,19.900 70.400,19.900 87.000,18.000 80.300,20.400 73.600,22.800 75.300,23.900 75.300,23.900 77.867,24.400 80.433,24.900 83.000,25.400 85.100,25.800 87.200,26.800 83.500,27.700 81.000,28.300 78.600,29.000 76.200,30.000 76.200,30.000 73.800,31.500 80.200,33.300 86.600,35.100 72.000,34.900 72.000,34.900 72.000,34.900 67.600,33.700 74.900,38.700 78.400,41.200 68.700,38.000 60.300,34.900 60.300,34.900 66.300,40.800 71.500,42.300 76.700,43.800 79.000,41.900 84.500,38.800 82.900,39.200 81.600,38.600 77.900,38.000 80.500,37.800 85.700,34.400 89.100,31.000 87.400,31.500 85.200,31.500 81.700,31.000 82.400,30.000 86.800,28.000 89.300,27.000 91.800,26.000 92.900,26.300 89.300,25.500 89.300,25.500 89.300,25.500 89.300,25.500 Z " />
</svg>