<?xml version="1.0" encoding="UTF-8" standalone="no"?>
<!DOCTYPE svg PUBLIC "-//W3C//DTD SVG 20010904//EN" "http://www.w3.org/TR/2001/REC-SVG-20010904/DTD/svg10.dtd"[]>
<svg version="1.1" xmlns="http://www.w3.org/2000/svg" d1p1:xlink="http://www.w3.org/1999/xlink" viewBox="0 0 100 50" xmlns:d1p1="xmlns">
  <path stroke="none" fill="#f0f0f0" d="M 49.100,19.200 C 49.100,19.400 48.900,19.600 48.700,19.600 48.700,19.600 48.700,19.600 48.700,19.600 48.067,19.600 47.433,19.600 46.800,19.600 47.000,21.100 48.100,22.200 49.600,22.400 49.600,21.767 49.600,21.133 49.600,20.500 49.600,20.300 49.800,20.200 50.000,20.200 50.200,20.200 50.400,20.300 50.400,20.500 50.400,21.133 50.400,21.767 50.400,22.400 51.900,22.200 53.000,21.100 53.200,19.600 52.567,19.600 51.933,19.600 51.300,19.600 51.100,19.600 50.900,19.400 50.900,19.200 50.900,19.200 50.900,19.200 50.900,19.200 50.900,19.000 51.100,18.900 51.300,18.900 51.933,18.900 52.567,18.900 53.200,18.900 53.100,17.400 51.900,16.200 50.400,16.000 50.400,16.633 50.400,17.267 50.400,17.900 50.400,18.100 50.200,18.300 50.000,18.300 49.800,18.300 49.600,18.100 49.600,17.900 49.600,17.900 49.600,17.900 49.600,17.900 49.600,17.267 49.600,16.633 49.600,16.000 48.100,16.200 46.900,17.400 46.800,18.900 47.433,18.900 48.067,18.900 48.700,18.900 48.900,18.900 49.100,19.000 49.100,19.200 49.100,19.200 49.100,19.200 49.100,19.200 Z " />
  <path stroke="none" fill="#f0f0f0" d="M 56.800,28.700 C 55.700,29.600 54.300,29.900 53.000,29.500 51.800,29.200 51.000,28.000 51.100,26.800 52.000,26.200 52.900,25.700 53.900,25.300 54.800,25.100 55.700,25.200 56.500,25.600 56.500,25.600 57.300,28.300 56.800,28.700 56.800,28.700 56.800,28.700 56.800,28.700 Z M 50.800,33.300 C 50.500,33.400 50.300,33.200 50.100,32.900 50.033,32.900 49.967,32.900 49.900,32.900 49.700,33.200 49.500,33.400 49.200,33.300 48.600,33.100 48.300,32.400 48.500,31.800 48.500,31.800 48.500,31.800 48.500,31.700 48.867,30.933 49.233,30.167 49.600,29.400 49.733,29.667 49.867,29.933 50.000,30.200 50.000,30.200 50.000,30.200 50.000,30.200 50.133,29.933 50.267,29.667 50.400,29.400 50.767,30.167 51.133,30.933 51.500,31.700 51.800,32.300 51.500,33.000 50.800,33.300 50.800,33.300 50.800,33.300 50.800,33.300 50.800,33.300 50.800,33.300 50.800,33.300 Z M 47.000,29.500 C 45.700,29.900 44.300,29.600 43.200,28.700 42.700,28.300 43.400,25.600 43.400,25.600 44.200,25.200 45.200,25.100 46.100,25.300 47.100,25.700 48.000,26.200 48.900,26.800 49.000,28.000 48.200,29.200 47.000,29.500 47.000,29.500 47.000,29.500 47.000,29.500 Z M 44.500,18.900 C 45.000,18.900 45.500,18.900 46.000,18.900 46.200,17.000 47.700,15.400 49.600,15.200 49.600,14.700 49.600,14.200 49.600,13.700 49.600,13.500 49.800,13.300 50.000,13.300 50.200,13.300 50.400,13.500 50.400,13.700 50.400,14.200 50.400,14.700 50.400,15.200 52.300,15.400 53.800,17.000 54.000,18.900 54.500,18.900 55.000,18.900 55.500,18.900 55.700,18.900 55.900,19.000 55.900,19.200 55.900,19.400 55.700,19.600 55.500,19.600 55.500,19.600 55.500,19.600 55.500,19.600 55.000,19.600 54.500,19.600 54.000,19.600 53.800,21.500 52.300,23.000 50.400,23.200 50.400,23.733 50.400,24.267 50.400,24.800 50.400,25.000 50.200,25.100 50.000,25.100 49.800,25.100 49.600,25.000 49.600,24.800 49.600,24.267 49.600,23.733 49.600,23.200 47.700,23.000 46.200,21.500 46.000,19.600 45.500,19.600 45.000,19.600 44.500,19.600 44.300,19.600 44.100,19.400 44.100,19.200 44.100,19.200 44.100,19.200 44.100,19.200 44.100,19.000 44.300,18.900 44.500,18.900 44.500,18.900 44.500,18.900 44.500,18.900 Z M 50.800,12.100 C 49.967,12.100 49.133,12.100 48.300,12.100 45.400,12.400 42.700,14.000 41.200,16.500 38.300,21.400 40.300,22.500 40.600,23.900 40.900,25.300 41.200,26.400 41.200,26.400 42.200,25.100 42.600,23.500 42.200,21.900 42.500,22.400 42.700,22.900 42.700,23.500 42.900,24.500 42.700,25.500 42.100,26.400 41.400,27.200 40.900,28.200 40.800,29.300 40.800,29.900 42.900,32.500 42.900,32.500 43.800,32.400 44.700,32.300 45.600,32.300 45.500,32.433 45.400,32.567 45.300,32.700 45.233,33.467 45.167,34.233 45.100,35.000 45.500,35.267 45.900,35.533 46.300,35.800 46.500,35.500 46.700,35.200 46.900,34.900 46.900,35.233 46.900,35.567 46.900,35.900 47.000,36.100 48.200,36.300 48.200,36.300 48.267,36.000 48.333,35.700 48.400,35.400 48.467,35.700 48.533,36.000 48.600,36.300 49.000,36.367 49.400,36.433 49.800,36.500 49.867,36.167 49.933,35.833 50.000,35.500 50.000,35.500 50.000,35.500 50.000,35.500 50.067,35.833 50.133,36.167 50.200,36.500 50.600,36.433 51.000,36.367 51.400,36.300 51.467,36.000 51.533,35.700 51.600,35.400 51.667,35.700 51.733,36.000 51.800,36.300 51.800,36.300 53.000,36.100 53.100,35.900 53.100,35.567 53.100,35.233 53.100,34.900 53.300,35.200 53.500,35.500 53.700,35.800 54.067,35.533 54.433,35.267 54.800,35.000 54.800,34.267 54.800,33.533 54.800,32.800 54.700,32.667 54.600,32.533 54.500,32.400 55.400,32.400 56.300,32.500 57.200,32.600 57.200,32.600 59.300,30.000 59.300,29.400 59.200,28.300 58.700,27.300 58.000,26.500 57.400,25.600 57.200,24.600 57.400,23.600 57.400,23.000 57.600,22.500 57.900,22.000 57.500,23.600 57.900,25.200 58.900,26.500 58.900,26.500 59.100,25.400 59.500,24.000 59.900,22.600 61.800,21.500 58.900,16.600 56.000,11.700 52.600,12.200 50.800,12.100 50.800,12.100 50.800,12.100 50.800,12.100 Z " />
  <path stroke="none" fill="#f0f0f0" d="M 64.000,27.100 C 62.800,32.800 58.200,37.200 52.400,38.200 51.600,38.400 50.800,38.400 50.000,38.400 49.200,38.400 48.400,38.400 47.600,38.200 41.800,37.200 37.200,32.800 36.000,27.100 35.800,26.100 35.700,25.100 35.700,24.100 35.700,23.200 35.700,22.400 35.900,21.500 37.000,15.500 41.700,10.900 47.700,9.900 49.233,9.900 50.767,9.900 52.300,9.900 58.300,10.900 63.000,15.500 64.100,21.500 64.300,22.400 64.300,23.200 64.300,24.100 64.300,25.100 64.200,26.100 64.000,27.100 64.000,27.100 64.000,27.100 64.000,27.100 Z M 80.800,24.200 C 73.800,23.100 68.800,22.500 65.100,21.700 64.100,15.000 58.700,9.700 51.900,8.900 51.300,7.300 50.700,5.500 50.100,3.400 50.100,3.333 50.100,3.267 50.100,3.200 50.100,3.200 50.100,3.200 50.100,3.200 50.100,3.267 50.100,3.333 50.100,3.400 49.500,5.500 48.900,7.300 48.300,8.900 41.400,9.600 35.900,14.900 34.900,21.700 31.200,22.500 26.200,23.100 19.200,24.200 19.200,24.200 19.200,24.200 19.200,24.200 26.200,25.300 31.200,26.000 34.900,26.700 36.100,33.300 41.400,38.400 48.000,39.300 48.600,41.000 49.200,42.900 49.900,45.200 50.000,45.300 50.000,45.300 50.000,45.400 50.000,45.400 50.000,45.400 50.000,45.400 50.000,45.300 50.000,45.300 50.100,45.200 50.800,42.900 51.400,41.000 52.000,39.300 58.600,38.400 63.900,33.400 65.100,26.900 68.800,26.200 73.800,25.500 80.800,24.400 80.800,24.400 80.800,24.400 80.800,24.400 80.800,24.333 80.800,24.267 80.800,24.200 80.800,24.200 80.800,24.200 80.800,24.200 Z " />
</svg>