<?xml version="1.0" encoding="UTF-8" standalone="no"?>
<!DOCTYPE svg PUBLIC "-//W3C//DTD SVG 20010904//EN" "http://www.w3.org/TR/2001/REC-SVG-20010904/DTD/svg10.dtd"[]>
<svg version="1.1" xmlns="http://www.w3.org/2000/svg" d1p1:xlink="http://www.w3.org/1999/xlink" viewBox="0 0 100 50" xmlns:d1p1="xmlns">
  <path stroke="none" fill="#f0f0f0" d="M 38.800,12.500 C 31.867,12.767 24.933,13.033 18.000,13.300 24.933,13.567 31.867,13.833 38.800,14.100 38.800,13.567 38.800,13.033 38.800,12.500 Z " />
  <path stroke="none" fill="#f0f0f0" d="M 52.200,26.000 C 52.200,25.333 52.200,24.667 52.200,24.000 44.267,24.333 36.333,24.667 28.400,25.000 36.333,25.333 44.267,25.667 52.200,26.000 Z " />
  <path stroke="none" fill="#f0f0f0" d="M 57.200,16.000 C 60.500,16.000 65.100,14.000 65.100,14.000 65.100,13.567 65.100,13.133 65.100,12.700 65.100,12.700 60.000,10.700 57.200,10.700 53.200,10.700 49.200,10.700 45.200,10.700 44.833,10.833 44.467,10.967 44.100,11.100 44.100,12.600 44.100,14.100 44.100,15.600 44.467,15.733 44.833,15.867 45.200,16.000 49.200,16.000 53.200,16.000 57.200,16.000 57.200,16.000 57.200,16.000 57.200,16.000 Z " />
  <path stroke="none" fill="#f0f0f0" d="M 38.600,36.300 C 38.600,35.767 38.600,35.233 38.600,34.700 31.700,34.967 24.800,35.233 17.900,35.500 24.800,35.767 31.700,36.033 38.600,36.300 Z " />
  <path stroke="none" fill="#f0f0f0" d="M 45.000,32.800 C 44.633,32.967 44.267,33.133 43.900,33.300 43.900,34.800 43.900,36.300 43.900,37.800 44.267,37.933 44.633,38.067 45.000,38.200 49.033,38.200 53.067,38.200 57.100,38.200 60.300,38.200 64.900,36.200 64.900,36.200 64.900,35.733 64.900,35.267 64.900,34.800 64.900,34.800 59.800,32.800 57.100,32.800 53.067,32.800 49.033,32.800 45.000,32.800 45.000,32.800 45.000,32.800 45.000,32.800 Z " />
  <path stroke="none" fill="#f0f0f0" d="M 77.800,22.000 C 72.933,22.000 68.067,22.000 63.200,22.000 62.733,22.167 62.267,22.333 61.800,22.500 61.800,24.333 61.800,26.167 61.800,28.000 62.267,28.167 62.733,28.333 63.200,28.500 68.067,28.500 72.933,28.500 77.800,28.500 81.900,28.500 87.400,26.100 87.400,26.100 87.400,25.533 87.400,24.967 87.400,24.400 87.400,24.400 81.200,22.000 77.800,22.000 77.800,22.000 77.800,22.000 77.800,22.000 Z " />
</svg>