<?xml version="1.0" encoding="UTF-8" standalone="no"?>
<!DOCTYPE svg PUBLIC "-//W3C//DTD SVG 20010904//EN" "http://www.w3.org/TR/2001/REC-SVG-20010904/DTD/svg10.dtd"[]>
<svg version="1.1" xmlns="http://www.w3.org/2000/svg" d1p1:xlink="http://www.w3.org/1999/xlink" viewBox="0 0 100 50" xmlns:d1p1="xmlns">
  <path stroke="none" fill="#f0f0f0" d="M 50.000,43.300 C 39.900,43.300 31.700,35.100 31.700,25.000 31.700,14.900 39.900,6.700 50.000,6.700 60.100,6.700 68.300,14.900 68.300,25.000 68.300,35.100 60.100,43.300 50.000,43.300 50.000,43.300 50.000,43.300 50.000,43.300 50.000,43.300 50.000,43.300 50.000,43.300 Z M 50.000,4.700 C 38.800,4.700 29.700,13.800 29.700,25.000 29.700,36.200 38.800,45.300 50.000,45.300 61.200,45.300 70.300,36.200 70.300,25.000 70.300,13.800 61.200,4.700 50.000,4.700 50.000,4.700 50.000,4.700 50.000,4.700 50.000,4.700 50.000,4.700 50.000,4.700 Z " />
  <path stroke="none" fill="#f0f0f0" d="M 50.000,38.700 C 42.400,38.700 36.300,32.600 36.300,25.000 36.300,17.400 42.400,11.300 50.000,11.300 57.600,11.300 63.700,17.400 63.700,25.000 63.600,32.500 57.500,38.600 50.000,38.700 50.000,38.700 50.000,38.700 50.000,38.700 Z M 50.000,10.300 C 41.900,10.300 35.300,16.900 35.300,25.000 35.300,33.100 41.900,39.700 50.000,39.700 58.100,39.700 64.700,33.100 64.700,25.000 64.700,25.000 64.700,25.000 64.700,25.000 64.700,16.900 58.100,10.300 50.000,10.300 50.000,10.300 50.000,10.300 50.000,10.300 Z " />
  <path stroke="none" fill="#f0f0f0" d="M 50.000,33.500 C 45.300,33.500 41.500,29.700 41.500,25.000 41.500,20.300 45.300,16.500 50.000,16.500 54.700,16.500 58.500,20.300 58.500,25.000 58.500,29.700 54.700,33.500 50.000,33.500 50.000,33.500 50.000,33.500 50.000,33.500 50.000,33.500 50.000,33.500 50.000,33.500 Z M 50.000,15.700 C 44.900,15.700 40.700,19.900 40.700,25.000 40.700,30.100 44.900,34.300 50.000,34.300 55.100,34.300 59.300,30.100 59.300,25.000 59.300,25.000 59.300,25.000 59.300,25.000 59.300,19.900 55.100,15.700 50.000,15.700 50.000,15.700 50.000,15.700 50.000,15.700 Z " />
  <path stroke="none" fill="#f0f0f0" d="M 50.000,28.300 C 49.300,28.300 48.700,28.000 48.100,27.700 48.400,27.400 48.600,26.900 48.600,26.500 48.600,25.800 48.100,25.100 47.500,24.800 48.100,24.500 48.600,23.900 48.600,23.200 48.600,22.800 48.500,22.500 48.300,22.200 48.633,22.067 48.967,21.933 49.300,21.800 49.600,22.500 50.200,23.000 50.900,23.100 50.900,23.300 51.000,23.500 51.100,23.700 50.767,23.700 50.433,23.700 50.100,23.700 49.100,24.000 48.500,25.000 48.800,26.000 49.000,26.700 49.600,27.200 50.300,27.400 50.100,27.700 50.000,28.000 50.000,28.300 50.000,28.300 50.000,28.300 50.000,28.300 50.000,28.300 50.000,28.300 50.000,28.300 Z M 53.300,25.000 C 53.300,25.600 53.100,26.200 52.800,26.700 52.500,26.500 52.200,26.400 51.900,26.400 52.200,26.000 52.300,25.600 52.200,25.100 52.200,24.900 52.100,24.700 52.000,24.500 52.233,24.567 52.467,24.633 52.700,24.700 52.867,24.700 53.033,24.700 53.200,24.700 53.200,24.700 53.300,24.800 53.300,25.000 53.300,25.000 53.300,25.000 53.300,25.000 Z M 52.900,21.000 C 53.000,20.000 52.200,19.200 51.200,19.100 50.200,19.000 49.400,19.800 49.300,20.800 48.700,20.900 48.100,21.200 47.500,21.500 47.233,21.433 46.967,21.367 46.700,21.300 45.700,21.300 44.900,22.100 44.900,23.100 44.900,23.100 44.900,23.200 44.900,23.200 44.900,23.800 45.200,24.400 45.800,24.700 45.800,24.800 45.800,24.800 45.700,24.900 45.200,25.300 44.900,25.900 44.900,26.500 44.900,27.500 45.700,28.300 46.700,28.300 46.900,28.300 47.100,28.300 47.300,28.300 48.000,29.000 49.000,29.300 50.000,29.300 50.100,29.300 50.200,29.300 50.300,29.300 50.600,29.900 51.200,30.200 51.800,30.200 52.800,30.300 53.600,29.500 53.700,28.500 53.700,28.500 53.700,28.400 53.700,28.400 53.700,28.100 53.600,27.800 53.500,27.500 54.000,26.800 54.300,26.000 54.300,25.100 54.300,24.700 54.200,24.400 54.100,24.000 54.400,23.700 54.500,23.300 54.500,22.900 54.600,21.900 53.900,21.100 52.900,21.000 52.900,21.000 52.900,21.000 52.900,21.000 Z " />
</svg>