<?xml version="1.0" encoding="UTF-8" standalone="no"?>
<!DOCTYPE svg PUBLIC "-//W3C//DTD SVG 20010904//EN" "http://www.w3.org/TR/2001/REC-SVG-20010904/DTD/svg10.dtd"[]>
<svg version="1.1" xmlns="http://www.w3.org/2000/svg" d1p1:xlink="http://www.w3.org/1999/xlink" viewBox="0 0 100 50" xmlns:d1p1="xmlns">
  <path stroke="none" fill="#f0f0f0" d="M 53.800,6.200 C 53.800,14.567 53.800,22.933 53.800,31.300 53.433,31.733 53.067,32.167 52.700,32.600 50.900,32.600 49.100,32.600 47.300,32.600 46.933,32.167 46.567,31.733 46.200,31.300 46.200,22.933 46.200,14.567 46.200,6.200 48.733,6.200 51.267,6.200 53.800,6.200 53.800,6.200 53.800,6.200 53.800,6.200 Z M 50.000,34.300 C 50.767,34.300 51.533,34.300 52.300,34.300 53.800,34.300 53.800,35.100 53.800,36.300 53.800,37.633 53.800,38.967 53.800,40.300 53.100,40.300 52.400,40.300 51.700,40.300 51.700,41.100 51.700,41.900 51.700,42.700 50.567,42.700 49.433,42.700 48.300,42.700 48.300,41.900 48.300,41.100 48.300,40.300 47.600,40.300 46.900,40.300 46.200,40.300 46.200,38.967 46.200,37.633 46.200,36.300 46.200,35.100 46.300,34.300 47.700,34.300 48.467,34.300 49.233,34.300 50.000,34.300 50.000,34.300 50.000,34.300 50.000,34.300 Z M 45.300,43.300 C 45.000,43.300 44.700,43.300 44.400,43.300 44.400,43.800 44.400,44.300 44.400,44.800 48.133,44.800 51.867,44.800 55.600,44.800 55.600,44.300 55.600,43.800 55.600,43.300 55.333,43.300 55.067,43.300 54.800,43.300 54.800,30.600 54.800,17.900 54.800,5.200 51.633,5.200 48.467,5.200 45.300,5.200 45.300,17.900 45.300,30.600 45.300,43.300 45.300,43.300 45.300,43.300 45.300,43.300 Z " />
  <path stroke="none" fill="#f0f0f0" d="M 63.400,35.100 C 61.900,35.100 60.400,35.100 58.900,35.100 58.900,28.667 58.900,22.233 58.900,15.800 60.400,15.800 61.900,15.800 63.400,15.800 63.400,22.233 63.400,28.667 63.400,35.100 63.400,35.100 63.400,35.100 63.400,35.100 Z M 64.500,41.200 C 64.500,32.367 64.500,23.533 64.500,14.700 62.300,14.700 60.100,14.700 57.900,14.700 57.900,23.533 57.900,32.367 57.900,41.200 57.700,41.200 57.500,41.200 57.300,41.200 57.300,41.533 57.300,41.867 57.300,42.200 59.900,42.200 62.500,42.200 65.100,42.200 65.100,41.867 65.100,41.533 65.100,41.200 64.900,41.200 64.700,41.200 64.500,41.200 64.500,41.200 64.500,41.200 64.500,41.200 Z " />
  <path stroke="none" fill="#f0f0f0" d="M 41.100,35.100 C 39.600,35.100 38.100,35.100 36.600,35.100 36.600,28.667 36.600,22.233 36.600,15.800 38.100,15.800 39.600,15.800 41.100,15.800 41.100,22.233 41.100,28.667 41.100,35.100 41.100,35.100 41.100,35.100 41.100,35.100 Z M 42.200,41.200 C 42.200,32.367 42.200,23.533 42.200,14.700 40.000,14.700 37.800,14.700 35.600,14.700 35.600,23.533 35.600,32.367 35.600,41.200 35.400,41.200 35.200,41.200 35.000,41.200 35.000,41.533 35.000,41.867 35.000,42.200 37.567,42.200 40.133,42.200 42.700,42.200 42.700,41.867 42.700,41.533 42.700,41.200 42.533,41.200 42.367,41.200 42.200,41.200 42.200,41.200 42.200,41.200 42.200,41.200 Z " />
  <path stroke="none" fill="#f0f0f0" d="M 51.600,8.100 C 51.600,8.500 51.900,8.800 52.300,8.800 52.700,8.800 53.000,8.500 53.000,8.100 53.000,7.700 52.700,7.400 52.300,7.400 51.900,7.400 51.600,7.700 51.600,8.100 51.600,8.100 51.600,8.100 51.600,8.100 51.600,8.100 51.600,8.100 51.600,8.100 Z " />
  <path stroke="none" fill="#f0f0f0" d="M 49.300,8.100 C 49.300,8.500 49.600,8.800 50.000,8.800 50.400,8.800 50.700,8.500 50.700,8.100 50.700,7.700 50.400,7.400 50.000,7.400 49.600,7.400 49.300,7.700 49.300,8.100 49.300,8.100 49.300,8.100 49.300,8.100 49.300,8.100 49.300,8.100 49.300,8.100 Z " />
  <path stroke="none" fill="#f0f0f0" d="M 47.000,8.100 C 47.000,8.500 47.300,8.800 47.700,8.800 48.100,8.800 48.400,8.500 48.400,8.100 48.400,7.700 48.100,7.400 47.700,7.400 47.300,7.400 47.000,7.700 47.000,8.100 47.000,8.100 47.000,8.100 47.000,8.100 47.000,8.100 47.000,8.100 47.000,8.100 Z " />
  <path stroke="none" fill="#f0f0f0" d="M 51.600,10.200 C 51.600,10.600 51.900,10.900 52.300,10.900 52.700,10.900 53.000,10.600 53.000,10.200 53.000,9.800 52.700,9.500 52.300,9.500 51.900,9.500 51.600,9.800 51.600,10.200 51.600,10.200 51.600,10.200 51.600,10.200 51.600,10.200 51.600,10.200 51.600,10.200 Z " />
  <path stroke="none" fill="#f0f0f0" d="M 49.300,10.200 C 49.300,10.600 49.600,10.900 50.000,10.900 50.400,10.900 50.700,10.600 50.700,10.200 50.700,9.800 50.400,9.500 50.000,9.500 49.600,9.500 49.300,9.800 49.300,10.200 49.300,10.200 49.300,10.200 49.300,10.200 49.300,10.200 49.300,10.200 49.300,10.200 Z " />
  <path stroke="none" fill="#f0f0f0" d="M 47.000,10.200 C 47.000,10.600 47.300,10.900 47.700,10.900 48.100,10.900 48.400,10.600 48.400,10.200 48.400,9.800 48.100,9.500 47.700,9.500 47.300,9.500 47.000,9.800 47.000,10.200 47.000,10.200 47.000,10.200 47.000,10.200 47.000,10.200 47.000,10.200 47.000,10.200 Z " />
  <path stroke="none" fill="#f0f0f0" d="M 51.600,12.300 C 51.600,12.700 51.900,13.000 52.300,13.000 52.700,13.000 53.000,12.700 53.000,12.300 53.000,11.900 52.700,11.600 52.300,11.600 51.900,11.600 51.600,11.900 51.600,12.300 51.600,12.300 51.600,12.300 51.600,12.300 51.600,12.300 51.600,12.300 51.600,12.300 Z " />
  <path stroke="none" fill="#f0f0f0" d="M 49.300,12.300 C 49.300,12.700 49.600,13.000 50.000,13.000 50.400,13.000 50.700,12.700 50.700,12.300 50.700,11.900 50.400,11.600 50.000,11.600 49.600,11.600 49.300,11.900 49.300,12.300 49.300,12.300 49.300,12.300 49.300,12.300 49.300,12.300 49.300,12.300 49.300,12.300 Z " />
  <path stroke="none" fill="#f0f0f0" d="M 47.000,12.300 C 47.000,12.700 47.300,13.000 47.700,13.000 48.100,13.000 48.400,12.700 48.400,12.300 48.400,11.900 48.100,11.600 47.700,11.600 47.300,11.600 47.000,11.900 47.000,12.300 47.000,12.300 47.000,12.300 47.000,12.300 47.000,12.300 47.000,12.300 47.000,12.300 Z " />
  <path stroke="none" fill="#f0f0f0" d="M 51.600,14.400 C 51.600,14.800 51.900,15.100 52.300,15.100 52.700,15.100 53.000,14.800 53.000,14.400 53.000,14.000 52.700,13.700 52.300,13.700 51.900,13.700 51.600,14.000 51.600,14.400 51.600,14.400 51.600,14.400 51.600,14.400 51.600,14.400 51.600,14.400 51.600,14.400 Z " />
  <path stroke="none" fill="#f0f0f0" d="M 49.300,14.400 C 49.300,14.800 49.600,15.100 50.000,15.100 50.400,15.100 50.700,14.800 50.700,14.400 50.700,14.000 50.400,13.700 50.000,13.700 49.600,13.700 49.300,14.000 49.300,14.400 49.300,14.400 49.300,14.400 49.300,14.400 49.300,14.400 49.300,14.400 49.300,14.400 Z " />
  <path stroke="none" fill="#f0f0f0" d="M 47.000,14.400 C 47.000,14.800 47.300,15.100 47.700,15.100 48.100,15.100 48.400,14.800 48.400,14.400 48.400,14.000 48.100,13.700 47.700,13.700 47.300,13.700 47.000,14.000 47.000,14.400 47.000,14.400 47.000,14.400 47.000,14.400 47.000,14.400 47.000,14.400 47.000,14.400 Z " />
  <path stroke="none" fill="#f0f0f0" d="M 51.600,16.500 C 51.600,16.900 51.900,17.200 52.300,17.200 52.700,17.200 53.000,16.900 53.000,16.500 53.000,16.100 52.700,15.800 52.300,15.800 51.900,15.800 51.600,16.100 51.600,16.500 51.600,16.500 51.600,16.500 51.600,16.500 51.600,16.500 51.600,16.500 51.600,16.500 Z " />
  <path stroke="none" fill="#f0f0f0" d="M 49.300,16.500 C 49.300,16.900 49.600,17.200 50.000,17.200 50.400,17.200 50.700,16.900 50.700,16.500 50.700,16.100 50.400,15.800 50.000,15.800 49.600,15.800 49.300,16.100 49.300,16.500 49.300,16.500 49.300,16.500 49.300,16.500 49.300,16.500 49.300,16.500 49.300,16.500 Z " />
  <path stroke="none" fill="#f0f0f0" d="M 47.000,16.500 C 47.000,16.900 47.300,17.200 47.700,17.200 48.100,17.200 48.400,16.900 48.400,16.500 48.400,16.100 48.100,15.800 47.700,15.800 47.300,15.800 47.000,16.100 47.000,16.500 47.000,16.500 47.000,16.500 47.000,16.500 47.000,16.500 47.000,16.500 47.000,16.500 Z " />
  <path stroke="none" fill="#f0f0f0" d="M 51.600,18.600 C 51.600,19.000 51.900,19.300 52.300,19.300 52.700,19.300 53.000,19.000 53.000,18.600 53.000,18.200 52.700,17.900 52.300,17.900 51.900,17.900 51.600,18.200 51.600,18.600 51.600,18.600 51.600,18.600 51.600,18.600 51.600,18.600 51.600,18.600 51.600,18.600 Z " />
  <path stroke="none" fill="#f0f0f0" d="M 49.300,18.600 C 49.300,19.000 49.600,19.300 50.000,19.300 50.400,19.300 50.700,19.000 50.700,18.600 50.700,18.200 50.400,17.900 50.000,17.900 49.600,17.900 49.300,18.200 49.300,18.600 49.300,18.600 49.300,18.600 49.300,18.600 49.300,18.600 49.300,18.600 49.300,18.600 Z " />
  <path stroke="none" fill="#f0f0f0" d="M 47.000,18.600 C 47.000,19.000 47.300,19.300 47.700,19.300 48.100,19.300 48.400,19.000 48.400,18.600 48.400,18.200 48.100,17.900 47.700,17.900 47.300,17.900 47.000,18.200 47.000,18.600 47.000,18.600 47.000,18.600 47.000,18.600 47.000,18.600 47.000,18.600 47.000,18.600 Z " />
  <path stroke="none" fill="#f0f0f0" d="M 51.600,20.700 C 51.600,21.100 51.900,21.400 52.300,21.400 52.700,21.400 53.000,21.100 53.000,20.700 53.000,20.300 52.700,20.000 52.300,20.000 51.900,20.000 51.600,20.300 51.600,20.700 51.600,20.700 51.600,20.700 51.600,20.700 51.600,20.700 51.600,20.700 51.600,20.700 Z " />
  <path stroke="none" fill="#f0f0f0" d="M 49.300,20.700 C 49.300,21.100 49.600,21.400 50.000,21.400 50.400,21.400 50.700,21.100 50.700,20.700 50.700,20.300 50.400,20.000 50.000,20.000 49.600,20.000 49.300,20.300 49.300,20.700 49.300,20.700 49.300,20.700 49.300,20.700 49.300,20.700 49.300,20.700 49.300,20.700 Z " />
  <path stroke="none" fill="#f0f0f0" d="M 47.000,20.700 C 47.000,21.100 47.300,21.400 47.700,21.400 48.100,21.400 48.400,21.100 48.400,20.700 48.400,20.300 48.100,20.000 47.700,20.000 47.300,20.000 47.000,20.300 47.000,20.700 47.000,20.700 47.000,20.700 47.000,20.700 47.000,20.700 47.000,20.700 47.000,20.700 Z " />
  <path stroke="none" fill="#f0f0f0" d="M 51.600,22.800 C 51.600,23.200 51.900,23.500 52.300,23.500 52.700,23.500 53.000,23.200 53.000,22.800 53.000,22.400 52.700,22.100 52.300,22.100 51.900,22.100 51.600,22.400 51.600,22.800 51.600,22.800 51.600,22.800 51.600,22.800 51.600,22.800 51.600,22.800 51.600,22.800 Z " />
  <path stroke="none" fill="#f0f0f0" d="M 49.300,22.800 C 49.300,23.200 49.600,23.500 50.000,23.500 50.400,23.500 50.700,23.200 50.700,22.800 50.700,22.400 50.400,22.100 50.000,22.100 49.600,22.100 49.300,22.400 49.300,22.800 49.300,22.800 49.300,22.800 49.300,22.800 49.300,22.800 49.300,22.800 49.300,22.800 Z " />
  <path stroke="none" fill="#f0f0f0" d="M 47.000,22.800 C 47.000,23.200 47.300,23.500 47.700,23.500 48.100,23.500 48.400,23.200 48.400,22.800 48.400,22.400 48.100,22.100 47.700,22.100 47.300,22.100 47.000,22.400 47.000,22.800 47.000,22.800 47.000,22.800 47.000,22.800 47.000,22.800 47.000,22.800 47.000,22.800 Z " />
  <path stroke="none" fill="#f0f0f0" d="M 51.600,24.900 C 51.600,25.300 51.900,25.600 52.300,25.600 52.700,25.600 53.000,25.300 53.000,24.900 53.000,24.500 52.700,24.200 52.300,24.200 51.900,24.200 51.600,24.500 51.600,24.900 51.600,24.900 51.600,24.900 51.600,24.900 Z " />
  <path stroke="none" fill="#f0f0f0" d="M 49.300,24.900 C 49.300,25.300 49.600,25.600 50.000,25.600 50.400,25.600 50.700,25.300 50.700,24.900 50.700,24.500 50.400,24.200 50.000,24.200 49.600,24.200 49.300,24.500 49.300,24.900 49.300,24.900 49.300,24.900 49.300,24.900 Z " />
  <path stroke="none" fill="#f0f0f0" d="M 47.000,24.900 C 47.000,25.300 47.300,25.600 47.700,25.600 48.100,25.600 48.400,25.300 48.400,24.900 48.400,24.500 48.100,24.200 47.700,24.200 47.300,24.200 47.000,24.500 47.000,24.900 47.000,24.900 47.000,24.900 47.000,24.900 Z " />
  <path stroke="none" fill="#f0f0f0" d="M 51.600,27.100 C 51.600,27.500 51.900,27.800 52.300,27.800 52.700,27.800 53.000,27.500 53.000,27.100 53.000,26.700 52.700,26.400 52.300,26.400 51.900,26.400 51.600,26.700 51.600,27.100 51.600,27.100 51.600,27.100 51.600,27.100 Z " />
  <path stroke="none" fill="#f0f0f0" d="M 49.300,27.100 C 49.300,27.500 49.600,27.800 50.000,27.800 50.400,27.800 50.700,27.500 50.700,27.100 50.700,26.700 50.400,26.400 50.000,26.400 49.600,26.400 49.300,26.700 49.300,27.100 49.300,27.100 49.300,27.100 49.300,27.100 Z " />
  <path stroke="none" fill="#f0f0f0" d="M 47.000,27.100 C 47.000,27.500 47.300,27.800 47.700,27.800 48.100,27.800 48.400,27.500 48.400,27.100 48.400,26.700 48.100,26.400 47.700,26.400 47.300,26.400 47.000,26.700 47.000,27.100 47.000,27.100 47.000,27.100 47.000,27.100 Z " />
  <path stroke="none" fill="#f0f0f0" d="M 51.600,29.200 C 51.600,29.600 51.900,29.900 52.300,29.900 52.700,29.900 53.000,29.600 53.000,29.200 53.000,28.800 52.700,28.500 52.300,28.500 51.900,28.500 51.600,28.800 51.600,29.200 51.600,29.200 51.600,29.200 51.600,29.200 51.600,29.200 51.600,29.200 51.600,29.200 Z " />
  <path stroke="none" fill="#f0f0f0" d="M 49.300,29.200 C 49.300,29.600 49.600,29.900 50.000,29.900 50.400,29.900 50.700,29.600 50.700,29.200 50.700,28.800 50.400,28.500 50.000,28.500 49.600,28.500 49.300,28.800 49.300,29.200 49.300,29.200 49.300,29.200 49.300,29.200 49.300,29.200 49.300,29.200 49.300,29.200 Z " />
  <path stroke="none" fill="#f0f0f0" d="M 47.000,29.200 C 47.000,29.600 47.300,29.900 47.700,29.900 48.100,29.900 48.400,29.600 48.400,29.200 48.400,28.800 48.100,28.500 47.700,28.500 47.300,28.500 47.000,28.800 47.000,29.200 47.000,29.200 47.000,29.200 47.000,29.200 47.000,29.200 47.000,29.200 47.000,29.200 Z " />
</svg>