<?xml version="1.0" encoding="UTF-8" standalone="no"?>
<!DOCTYPE svg PUBLIC "-//W3C//DTD SVG 20010904//EN" "http://www.w3.org/TR/2001/REC-SVG-20010904/DTD/svg10.dtd"[]>
<svg version="1.1" xmlns="http://www.w3.org/2000/svg" d1p1:xlink="http://www.w3.org/1999/xlink" viewBox="0 0 100 50" xmlns:d1p1="xmlns">
  <path stroke="none" fill="#f0f0f0" d="M 88.300,17.700 C 85.600,16.588 82.719,15.978 79.800,15.900 79.033,15.900 78.267,15.900 77.500,15.900 77.500,17.133 77.500,18.367 77.500,19.600 78.267,19.600 79.033,19.600 79.800,19.600 82.721,19.459 85.597,18.816 88.300,17.700 88.300,17.700 88.300,17.700 88.300,17.700 Z " />
  <path stroke="none" fill="#f0f0f0" d="M 79.400,24.300 C 79.400,25.533 79.400,26.767 79.400,28.000 80.167,28.000 80.933,28.000 81.700,28.000 84.621,27.859 87.497,27.216 90.200,26.100 87.500,24.988 84.619,24.378 81.700,24.300 80.933,24.300 80.167,24.300 79.400,24.300 Z " />
  <path stroke="none" fill="#f0f0f0" d="M 52.200,34.300 C 54.967,31.533 57.733,28.767 60.500,26.000 57.733,23.233 54.967,20.467 52.200,17.700 52.200,23.233 52.200,28.767 52.200,34.300 Z " />
  <path stroke="none" fill="#f0f0f0" d="M 75.500,16.700 C 72.533,16.933 69.567,17.167 66.600,17.400 69.567,17.667 72.533,17.933 75.500,18.200 75.500,17.700 75.500,17.200 75.500,16.700 75.500,16.700 75.500,16.700 75.500,16.700 Z " />
  <path stroke="none" fill="#f0f0f0" d="M 77.500,25.400 C 74.500,25.633 71.500,25.867 68.500,26.100 71.500,26.367 74.500,26.633 77.500,26.900 77.500,26.400 77.500,25.900 77.500,25.400 77.500,25.400 77.500,25.400 77.500,25.400 Z " />
  <path stroke="none" fill="#f0f0f0" d="M 83.900,32.500 C 83.133,32.500 82.367,32.500 81.600,32.500 81.600,33.733 81.600,34.967 81.600,36.200 82.367,36.200 83.133,36.200 83.900,36.200 86.821,36.059 89.697,35.416 92.400,34.300 89.700,33.188 86.819,32.578 83.900,32.500 83.900,32.500 83.900,32.500 83.900,32.500 Z " />
  <path stroke="none" fill="#f0f0f0" d="M 79.700,35.100 C 79.700,34.600 79.700,34.100 79.700,33.600 76.733,33.833 73.767,34.067 70.800,34.300 73.767,34.567 76.733,34.833 79.700,35.100 79.700,35.100 79.700,35.100 79.700,35.100 Z " />
  <path stroke="none" fill="#f0f0f0" d="M 27.100,16.900 C 24.397,15.784 21.521,15.141 18.600,15.000 17.833,15.000 17.067,15.000 16.300,15.000 16.300,16.267 16.300,17.533 16.300,18.800 17.067,18.800 17.833,18.800 18.600,18.800 21.526,18.690 24.406,18.046 27.100,16.900 27.100,16.900 27.100,16.900 27.100,16.900 Z " />
  <path stroke="none" fill="#f0f0f0" d="M 14.300,15.800 C 11.000,16.067 7.700,16.333 4.400,16.600 7.700,16.833 11.000,17.067 14.300,17.300 14.300,16.800 14.300,16.300 14.300,15.800 14.300,15.800 14.300,15.800 14.300,15.800 Z " />
  <path stroke="none" fill="#f0f0f0" d="M 25.500,27.900 C 26.233,27.900 26.967,27.900 27.700,27.900 30.621,27.759 33.497,27.116 36.200,26.000 33.497,24.884 30.621,24.241 27.700,24.100 26.967,24.100 26.233,24.100 25.500,24.100 25.500,25.367 25.500,26.633 25.500,27.900 Z " />
  <path stroke="none" fill="#f0f0f0" d="M 23.400,24.900 C 20.100,25.167 16.800,25.433 13.500,25.700 16.800,25.933 20.100,26.167 23.400,26.400 23.400,25.900 23.400,25.400 23.400,24.900 23.400,24.900 23.400,24.900 23.400,24.900 Z " />
  <path stroke="none" fill="#f0f0f0" d="M 33.700,32.400 C 33.700,33.667 33.700,34.933 33.700,36.200 34.467,36.200 35.233,36.200 36.000,36.200 38.921,36.059 41.797,35.416 44.500,34.300 41.797,33.184 38.921,32.541 36.000,32.400 35.233,32.400 34.467,32.400 33.700,32.400 Z " />
  <path stroke="none" fill="#f0f0f0" d="M 31.700,34.700 C 31.700,34.200 31.700,33.700 31.700,33.200 28.400,33.467 25.100,33.733 21.800,34.000 25.100,34.233 28.400,34.467 31.700,34.700 31.700,34.700 31.700,34.700 31.700,34.700 Z " />
</svg>