<?xml version="1.0" encoding="UTF-8" standalone="no"?>
<!DOCTYPE svg PUBLIC "-//W3C//DTD SVG 20010904//EN" "http://www.w3.org/TR/2001/REC-SVG-20010904/DTD/svg10.dtd"[]>
<svg version="1.1" xmlns="http://www.w3.org/2000/svg" d1p1:xlink="http://www.w3.org/1999/xlink" viewBox="0 0 100 50" xmlns:d1p1="xmlns">
  <path stroke="none" fill="#f0f0f0" d="M 56.300,24.600 C 55.033,24.600 53.767,24.600 52.500,24.600 52.300,23.500 51.500,22.700 50.400,22.500 50.400,21.267 50.400,20.033 50.400,18.800 50.400,18.600 50.200,18.400 50.000,18.400 49.800,18.400 49.600,18.600 49.600,18.800 49.600,20.033 49.600,21.267 49.600,22.500 48.500,22.700 47.700,23.500 47.500,24.600 46.233,24.600 44.967,24.600 43.700,24.600 43.500,24.600 43.400,24.800 43.400,25.000 43.400,25.200 43.500,25.400 43.700,25.400 44.967,25.400 46.233,25.400 47.500,25.400 47.700,26.500 48.500,27.300 49.600,27.500 49.600,28.767 49.600,30.033 49.600,31.300 49.600,31.500 49.800,31.600 50.000,31.600 50.200,31.600 50.400,31.500 50.400,31.300 50.400,30.033 50.400,28.767 50.400,27.500 51.500,27.300 52.300,26.500 52.500,25.400 53.767,25.400 55.033,25.400 56.300,25.400 56.500,25.400 56.600,25.200 56.600,25.000 56.600,24.800 56.500,24.600 56.300,24.600 56.300,24.600 56.300,24.600 56.300,24.600 Z " />
  <path stroke="none" fill="#f0f0f0" d="M 51.400,37.700 C 51.400,37.067 51.400,36.433 51.400,35.800 50.733,35.800 50.067,35.800 49.400,35.800 49.400,36.433 49.400,37.067 49.400,37.700 43.100,37.400 38.000,32.400 37.600,26.100 38.300,26.100 39.000,26.100 39.700,26.100 39.700,25.433 39.700,24.767 39.700,24.100 39.000,24.100 38.300,24.100 37.600,24.100 38.000,17.800 43.100,12.900 49.400,12.600 49.400,13.200 49.400,13.800 49.400,14.400 50.067,14.400 50.733,14.400 51.400,14.400 51.400,13.800 51.400,13.200 51.400,12.600 57.400,13.200 62.200,18.100 62.700,24.100 62.167,24.100 61.633,24.100 61.100,24.100 61.100,24.767 61.100,25.433 61.100,26.100 61.633,26.100 62.167,26.100 62.700,26.100 62.200,32.200 57.500,37.000 51.400,37.700 51.400,37.700 51.400,37.700 51.400,37.700 Z M 68.600,21.200 C 68.100,21.667 67.600,22.133 67.100,22.600 67.600,23.100 68.100,23.600 68.600,24.100 66.967,24.100 65.333,24.100 63.700,24.100 63.200,17.500 58.000,12.200 51.400,11.600 51.400,10.033 51.400,8.467 51.400,6.900 51.900,7.400 52.400,7.900 52.900,8.400 53.367,7.933 53.833,7.467 54.300,7.000 53.000,5.700 51.700,4.400 50.400,3.100 49.100,4.400 47.800,5.700 46.500,7.000 46.967,7.467 47.433,7.933 47.900,8.400 48.400,7.900 48.900,7.400 49.400,6.900 49.400,8.467 49.400,10.033 49.400,11.600 42.600,11.900 37.100,17.300 36.600,24.100 35.133,24.100 33.667,24.100 32.200,24.100 32.667,23.600 33.133,23.100 33.600,22.600 33.133,22.133 32.667,21.667 32.200,21.200 30.933,22.500 29.667,23.800 28.400,25.100 29.667,26.400 30.933,27.700 32.200,29.000 32.667,28.533 33.133,28.067 33.600,27.600 33.133,27.100 32.667,26.600 32.200,26.100 33.667,26.100 35.133,26.100 36.600,26.100 37.100,32.900 42.600,38.300 49.400,38.700 49.400,40.267 49.400,41.833 49.400,43.400 48.900,42.900 48.400,42.400 47.900,41.900 47.433,42.367 46.967,42.833 46.500,43.300 47.800,44.600 49.100,45.900 50.400,47.200 51.700,45.900 53.000,44.600 54.300,43.300 53.833,42.833 53.367,42.367 52.900,41.900 52.400,42.400 51.900,42.900 51.400,43.400 51.400,41.833 51.400,40.267 51.400,38.700 58.000,38.000 63.200,32.700 63.700,26.100 65.333,26.100 66.967,26.100 68.600,26.100 68.100,26.600 67.600,27.100 67.100,27.600 67.600,28.067 68.100,28.533 68.600,29.000 69.867,27.700 71.133,26.400 72.400,25.100 71.133,23.800 69.867,22.500 68.600,21.200 68.600,21.200 68.600,21.200 68.600,21.200 Z " />
  <path stroke="none" fill="#f0f0f0" d="M 34.300,18.800 C 34.367,18.800 34.433,18.800 34.500,18.800 34.700,18.800 34.900,18.700 35.000,18.500 36.700,14.700 39.600,11.800 43.400,10.100 43.600,9.900 43.700,9.700 43.600,9.400 43.500,9.200 43.200,9.100 43.000,9.200 39.000,10.900 35.800,14.100 34.100,18.100 34.000,18.300 34.000,18.600 34.300,18.800 34.300,18.800 34.300,18.800 34.300,18.800 34.300,18.800 34.300,18.800 34.300,18.800 Z " />
  <path stroke="none" fill="#f0f0f0" d="M 57.400,10.100 C 61.200,11.800 64.100,14.700 65.800,18.500 65.900,18.700 66.100,18.800 66.300,18.800 66.367,18.800 66.433,18.800 66.500,18.800 66.700,18.600 66.800,18.400 66.700,18.100 65.000,14.100 61.800,10.900 57.800,9.200 57.600,9.100 57.300,9.200 57.200,9.400 57.100,9.700 57.200,9.900 57.400,10.100 57.400,10.100 57.400,10.100 57.400,10.100 Z " />
  <path stroke="none" fill="#f0f0f0" d="M 66.500,31.500 C 66.200,31.400 66.000,31.500 65.800,31.700 64.200,35.500 61.200,38.500 57.400,40.100 57.200,40.300 57.100,40.500 57.200,40.800 57.300,41.000 57.400,41.100 57.600,41.100 57.667,41.100 57.733,41.100 57.800,41.100 61.800,39.300 65.000,36.100 66.700,32.100 66.800,31.900 66.700,31.600 66.500,31.500 66.500,31.500 66.500,31.500 66.500,31.500 Z " />
  <path stroke="none" fill="#f0f0f0" d="M 43.400,40.100 C 39.600,38.500 36.600,35.500 35.000,31.700 34.800,31.500 34.600,31.400 34.300,31.500 34.100,31.600 33.900,31.900 34.100,32.100 35.800,36.100 39.000,39.300 43.000,41.100 43.067,41.100 43.133,41.100 43.200,41.100 43.400,41.100 43.500,41.000 43.600,40.800 43.700,40.500 43.600,40.300 43.400,40.100 43.400,40.100 43.400,40.100 43.400,40.100 Z " />
</svg>