<?xml version="1.0" encoding="UTF-8" standalone="no"?>
<!DOCTYPE svg PUBLIC "-//W3C//DTD SVG 20010904//EN" "http://www.w3.org/TR/2001/REC-SVG-20010904/DTD/svg10.dtd"[]>
<svg version="1.1" xmlns="http://www.w3.org/2000/svg" d1p1:xlink="http://www.w3.org/1999/xlink" viewBox="0 0 100 50" xmlns:d1p1="xmlns">
  <path stroke="none" fill="#f0f0f0" d="M 38.800,30.300 C 38.800,29.967 38.800,29.633 38.800,29.300 33.133,29.467 27.467,29.633 21.800,29.800 27.467,29.967 33.133,30.133 38.800,30.300 Z " />
  <path stroke="none" fill="#f0f0f0" d="M 37.000,25.100 C 31.333,25.267 25.667,25.433 20.000,25.600 25.667,25.767 31.333,25.933 37.000,26.100 37.000,25.767 37.000,25.433 37.000,25.100 Z " />
  <path stroke="none" fill="#f0f0f0" d="M 39.200,22.200 C 39.200,21.867 39.200,21.533 39.200,21.200 33.533,21.367 27.867,21.533 22.200,21.700 27.867,21.867 33.533,22.033 39.200,22.200 Z " />
  <path stroke="none" fill="#f0f0f0" d="M 56.500,17.600 C 57.067,17.700 57.633,17.800 58.200,17.900 58.400,17.600 58.600,17.200 58.800,16.800 59.000,16.200 61.700,16.200 61.700,16.200 58.600,15.600 58.800,14.200 58.800,14.200 58.800,11.733 58.800,9.267 58.800,6.800 56.467,6.800 54.133,6.800 51.800,6.800 51.800,9.833 51.800,12.867 51.800,15.900 52.733,15.900 53.667,15.900 54.600,15.900 55.233,16.467 55.867,17.033 56.500,17.600 56.500,17.600 56.500,17.600 56.500,17.600 Z " />
  <path stroke="none" fill="#f0f0f0" d="M 64.700,16.600 C 65.900,17.167 67.100,17.733 68.300,18.300 68.900,18.000 69.500,17.700 70.100,17.400 70.100,17.400 70.400,15.800 70.400,15.600 68.500,15.800 66.600,16.200 64.700,16.600 64.700,16.600 64.700,16.600 64.700,16.600 Z " />
  <path stroke="none" fill="#f0f0f0" d="M 79.700,13.700 C 79.600,13.500 77.700,14.800 77.700,14.800 78.033,15.400 78.367,16.000 78.700,16.600 79.133,16.300 79.567,16.000 80.000,15.700 79.900,15.000 79.800,14.400 79.700,13.700 79.700,13.700 79.700,13.700 79.700,13.700 Z " />
  <path stroke="none" fill="#f0f0f0" d="M 73.300,19.700 C 72.467,19.933 71.633,20.167 70.800,20.400 70.800,20.800 70.800,21.200 70.800,21.600 71.233,21.800 71.667,22.000 72.100,22.200 72.600,21.400 73.000,20.600 73.300,19.700 73.300,19.700 73.300,19.700 73.300,19.700 Z " />
  <path stroke="none" fill="#f0f0f0" d="M 58.800,34.300 C 58.600,33.967 58.400,33.633 58.200,33.300 57.633,33.400 57.067,33.500 56.500,33.600 55.867,34.100 55.233,34.600 54.600,35.100 53.667,35.100 52.733,35.100 51.800,35.100 51.800,37.800 51.800,40.500 51.800,43.200 54.133,43.200 56.467,43.200 58.800,43.200 58.800,41.000 58.800,38.800 58.800,36.600 58.800,36.600 58.600,35.400 61.700,34.800 61.700,34.800 59.000,34.800 58.800,34.300 58.800,34.300 58.800,34.300 58.800,34.300 Z " />
  <path stroke="none" fill="#f0f0f0" d="M 65.800,35.300 C 64.600,35.867 63.400,36.433 62.200,37.000 64.100,37.400 66.000,37.800 67.900,38.000 67.900,37.800 67.500,36.200 67.500,36.200 66.933,35.900 66.367,35.600 65.800,35.300 65.800,35.300 65.800,35.300 65.800,35.300 Z " />
  <path stroke="none" fill="#f0f0f0" d="M 73.900,35.300 C 73.267,35.867 72.633,36.433 72.000,37.000 73.100,37.333 74.200,37.667 75.300,38.000 75.200,37.300 75.100,36.600 75.000,35.900 74.633,35.700 74.267,35.500 73.900,35.300 Z " />
  <path stroke="none" fill="#f0f0f0" d="M 68.100,33.200 C 68.100,33.200 70.000,34.400 70.100,34.200 70.200,33.600 70.300,32.900 70.400,32.300 69.967,32.000 69.533,31.700 69.100,31.400 68.767,32.000 68.433,32.600 68.100,33.200 68.100,33.200 68.100,33.200 68.100,33.200 Z " />
  <path stroke="none" fill="#f0f0f0" d="M 66.000,26.400 C 66.500,26.100 66.500,25.800 66.000,25.500 64.900,24.800 58.900,21.200 53.500,21.100 50.067,21.100 46.633,21.100 43.200,21.100 43.200,21.733 43.200,22.367 43.200,23.000 42.900,23.000 42.600,23.000 42.300,23.000 42.300,23.433 42.300,23.867 42.300,24.300 42.000,24.300 41.700,24.300 41.400,24.300 41.400,25.367 41.400,26.433 41.400,27.500 41.700,27.500 42.000,27.500 42.300,27.500 42.300,27.933 42.300,28.367 42.300,28.800 42.600,28.800 42.900,28.800 43.200,28.800 43.200,29.433 43.200,30.067 43.200,30.700 46.633,30.700 50.067,30.700 53.500,30.700 58.900,30.600 64.900,27.100 66.000,26.400 66.000,26.400 66.000,26.400 66.000,26.400 Z " />
</svg>