<?xml version="1.0" encoding="UTF-8" standalone="no"?>
<!DOCTYPE svg PUBLIC "-//W3C//DTD SVG 20010904//EN" "http://www.w3.org/TR/2001/REC-SVG-20010904/DTD/svg10.dtd"[]>
<svg version="1.1" xmlns="http://www.w3.org/2000/svg" d1p1:xlink="http://www.w3.org/1999/xlink" viewBox="0 0 100 50" xmlns:d1p1="xmlns">
  <path stroke="none" fill="#f0f0f0" d="M 36.900,13.000 C 31.700,13.333 26.500,13.667 21.300,14.000 21.300,14.000 21.300,14.000 21.300,14.000 26.467,13.267 31.633,12.533 36.800,11.800 36.833,12.200 36.867,12.600 36.900,13.000 Z " />
  <path stroke="none" fill="#f0f0f0" d="M 53.200,25.700 C 45.267,25.400 37.333,25.100 29.400,24.800 29.400,24.800 29.400,24.800 29.400,24.800 37.333,24.533 45.267,24.267 53.200,24.000 53.200,24.567 53.200,25.133 53.200,25.700 Z " />
  <path stroke="none" fill="#f0f0f0" d="M 40.000,14.000 C 43.000,13.700 46.000,13.400 49.000,13.100 51.000,12.700 52.900,12.000 54.700,11.100 54.700,10.800 54.700,10.500 54.700,10.200 52.700,9.700 50.700,9.400 48.700,9.400 45.667,9.700 42.633,10.000 39.600,10.300 39.333,10.433 39.067,10.567 38.800,10.700 38.933,11.733 39.067,12.767 39.200,13.800 39.467,13.867 39.733,13.933 40.000,14.000 40.000,14.000 40.000,14.000 40.000,14.000 Z " />
  <path stroke="none" fill="#f0f0f0" d="M 47.000,34.200 C 41.800,33.533 36.600,32.867 31.400,32.200 31.400,32.200 31.400,32.200 31.400,32.200 36.633,32.500 41.867,32.800 47.100,33.100 47.067,33.467 47.033,33.833 47.000,34.200 Z " />
  <path stroke="none" fill="#f0f0f0" d="M 49.300,35.900 C 52.300,36.167 55.300,36.433 58.300,36.700 60.400,36.700 62.400,36.400 64.400,35.900 64.400,35.567 64.400,35.233 64.400,34.900 62.600,34.000 60.700,33.400 58.700,33.000 55.700,32.733 52.700,32.467 49.700,32.200 49.400,32.267 49.100,32.333 48.800,32.400 48.700,33.433 48.600,34.467 48.500,35.500 48.767,35.633 49.033,35.767 49.300,35.900 49.300,35.900 49.300,35.900 49.300,35.900 Z " />
  <path stroke="none" fill="#f0f0f0" d="M 57.200,28.100 C 62.100,28.100 67.000,28.100 71.900,28.100 75.900,28.100 81.500,25.800 81.500,25.800 81.500,25.333 81.500,24.867 81.500,24.400 81.500,24.400 75.200,22.100 71.900,22.100 67.000,22.100 62.100,22.100 57.200,22.100 56.733,22.267 56.267,22.433 55.800,22.600 55.800,24.267 55.800,25.933 55.800,27.600 56.267,27.767 56.733,27.933 57.200,28.100 57.200,28.100 57.200,28.100 57.200,28.100 Z " />
  <path stroke="none" fill="#f0f0f0" d="M 58.200,16.700 C 54.500,16.933 50.800,17.167 47.100,17.400 47.100,17.400 47.100,17.400 47.100,17.400 50.767,16.900 54.433,16.400 58.100,15.900 58.133,16.167 58.167,16.433 58.200,16.700 Z " />
  <path stroke="none" fill="#f0f0f0" d="M 60.100,17.300 C 62.233,17.067 64.367,16.833 66.500,16.600 67.900,16.300 69.300,15.900 70.600,15.200 70.600,15.000 70.600,14.800 70.600,14.600 69.200,14.200 67.800,14.000 66.300,14.000 64.167,14.233 62.033,14.467 59.900,14.700 59.700,14.767 59.500,14.833 59.300,14.900 59.400,15.633 59.500,16.367 59.600,17.100 59.767,17.167 59.933,17.233 60.100,17.300 60.100,17.300 60.100,17.300 60.100,17.300 Z " />
  <path stroke="none" fill="#f0f0f0" d="M 34.600,38.500 C 31.033,37.633 27.467,36.767 23.900,35.900 23.900,35.900 23.900,35.900 23.900,35.900 27.533,36.500 31.167,37.100 34.800,37.700 34.733,37.967 34.667,38.233 34.600,38.500 Z " />
  <path stroke="none" fill="#f0f0f0" d="M 36.600,40.000 C 38.700,40.433 40.800,40.867 42.900,41.300 44.300,41.500 45.800,41.400 47.200,41.200 47.267,40.967 47.333,40.733 47.400,40.500 46.200,39.800 44.900,39.100 43.500,38.700 41.400,38.300 39.300,37.900 37.200,37.500 37.000,37.500 36.800,37.500 36.600,37.500 36.400,38.233 36.200,38.967 36.000,39.700 36.200,39.800 36.400,39.900 36.600,40.000 36.600,40.000 36.600,40.000 36.600,40.000 Z " />
</svg>