<?xml version="1.0" encoding="UTF-8" standalone="no"?>
<!DOCTYPE svg PUBLIC "-//W3C//DTD SVG 20010904//EN" "http://www.w3.org/TR/2001/REC-SVG-20010904/DTD/svg10.dtd"[]>
<svg version="1.1" xmlns="http://www.w3.org/2000/svg" d1p1:xlink="http://www.w3.org/1999/xlink" viewBox="0 0 100 50" xmlns:d1p1="xmlns">
  <path stroke="none" fill="#f0f0f0" d="M 67.600,25.400 C 67.600,23.967 67.600,22.533 67.600,21.100 68.300,21.600 69.000,22.100 69.700,22.600 69.700,24.000 69.700,25.400 69.700,26.800 69.000,26.333 68.300,25.867 67.600,25.400 67.600,25.400 67.600,25.400 67.600,25.400 Z M 32.600,20.700 C 32.600,22.233 32.600,23.767 32.600,25.300 31.867,25.833 31.133,26.367 30.400,26.900 30.400,25.367 30.400,23.833 30.400,22.300 31.133,21.767 31.867,21.233 32.600,20.700 32.600,20.700 32.600,20.700 32.600,20.700 Z M 64.700,18.900 C 65.333,19.400 65.967,19.900 66.600,20.400 66.600,21.833 66.600,23.267 66.600,24.700 65.967,24.267 65.333,23.833 64.700,23.400 64.700,21.900 64.700,20.400 64.700,18.900 64.700,18.900 64.700,18.900 64.700,18.900 Z M 61.900,16.900 C 62.500,17.333 63.100,17.767 63.700,18.200 63.700,19.700 63.700,21.200 63.700,22.700 63.100,22.300 62.500,21.900 61.900,21.500 61.900,19.967 61.900,18.433 61.900,16.900 61.900,16.900 61.900,16.900 61.900,16.900 Z M 59.100,14.800 C 59.700,15.233 60.300,15.667 60.900,16.100 60.900,17.667 60.900,19.233 60.900,20.800 60.300,20.367 59.700,19.933 59.100,19.500 59.100,17.933 59.100,16.367 59.100,14.800 59.100,14.800 59.100,14.800 59.100,14.800 Z M 56.400,12.800 C 56.967,13.200 57.533,13.600 58.100,14.000 58.100,15.600 58.100,17.200 58.100,18.800 57.533,18.400 56.967,18.000 56.400,17.600 56.400,16.000 56.400,14.400 56.400,12.800 56.400,12.800 56.400,12.800 56.400,12.800 Z M 53.500,10.600 C 54.133,11.067 54.767,11.533 55.400,12.000 55.400,13.633 55.400,15.267 55.400,16.900 54.767,16.467 54.133,16.033 53.500,15.600 53.500,13.933 53.500,12.267 53.500,10.600 53.500,10.600 53.500,10.600 53.500,10.600 Z M 50.600,8.400 C 51.233,8.900 51.867,9.400 52.500,9.900 52.500,11.600 52.500,13.300 52.500,15.000 52.067,14.700 51.633,14.400 51.200,14.100 51.000,13.933 50.800,13.767 50.600,13.600 50.600,11.867 50.600,10.133 50.600,8.400 50.600,8.400 50.600,8.400 50.600,8.400 Z M 35.500,23.300 C 34.867,23.733 34.233,24.167 33.600,24.600 33.600,23.067 33.600,21.533 33.600,20.000 34.233,19.533 34.867,19.067 35.500,18.600 35.500,20.167 35.500,21.733 35.500,23.300 35.500,23.300 35.500,23.300 35.500,23.300 Z M 38.300,21.400 C 37.700,21.833 37.100,22.267 36.500,22.700 36.500,21.100 36.500,19.500 36.500,17.900 37.100,17.467 37.700,17.033 38.300,16.600 38.300,18.200 38.300,19.800 38.300,21.400 38.300,21.400 38.300,21.400 38.300,21.400 Z M 41.100,19.500 C 40.500,19.900 39.900,20.300 39.300,20.700 39.300,19.100 39.300,17.500 39.300,15.900 39.900,15.467 40.500,15.033 41.100,14.600 41.100,16.233 41.100,17.867 41.100,19.500 41.100,19.500 41.100,19.500 41.100,19.500 Z M 43.700,17.700 C 43.167,18.067 42.633,18.433 42.100,18.800 42.100,17.167 42.100,15.533 42.100,13.900 42.633,13.500 43.167,13.100 43.700,12.700 43.700,14.367 43.700,16.033 43.700,17.700 43.700,17.700 43.700,17.700 43.700,17.700 Z M 47.400,10.100 C 48.133,9.567 48.867,9.033 49.600,8.500 49.600,10.200 49.600,11.900 49.600,13.600 49.367,13.767 49.133,13.933 48.900,14.100 48.400,14.433 47.900,14.767 47.400,15.100 47.400,13.433 47.400,11.767 47.400,10.100 47.400,10.100 47.400,10.100 47.400,10.100 Z M 46.400,15.800 C 45.833,16.200 45.267,16.600 44.700,17.000 44.700,15.333 44.700,13.667 44.700,12.000 45.267,11.600 45.833,11.200 46.400,10.800 46.400,12.467 46.400,14.133 46.400,15.800 46.400,15.800 46.400,15.800 46.400,15.800 Z M 71.700,30.700 C 71.700,27.633 71.700,24.567 71.700,21.500 64.500,16.167 57.300,10.833 50.100,5.500 42.867,10.700 35.633,15.900 28.400,21.100 28.400,21.100 28.400,21.100 28.400,21.100 28.400,24.300 28.400,27.500 28.400,30.700 35.600,25.700 42.800,20.700 50.000,15.700 57.233,20.700 64.467,25.700 71.700,30.700 71.700,30.700 71.700,30.700 71.700,30.700 71.700,30.700 71.700,30.700 71.700,30.700 Z " />
  <path stroke="none" fill="#f0f0f0" d="M 69.800,38.700 C 69.000,38.033 68.200,37.367 67.400,36.700 67.000,36.500 66.600,36.400 66.200,36.600 62.933,33.867 59.667,31.133 56.400,28.400 56.533,28.267 56.667,28.133 56.800,28.000 55.967,27.367 55.133,26.733 54.300,26.100 54.167,26.233 54.033,26.367 53.900,26.500 53.900,26.100 53.400,26.100 53.000,26.100 53.000,26.100 53.000,26.100 53.000,26.100 51.033,26.100 49.067,26.100 47.100,26.100 46.800,26.100 46.500,26.300 46.400,26.500 46.267,26.367 46.133,26.233 46.000,26.100 45.200,26.733 44.400,27.367 43.600,28.000 43.733,28.133 43.867,28.267 44.000,28.400 40.700,31.133 37.400,33.867 34.100,36.600 33.700,36.400 33.300,36.500 32.900,36.700 32.133,37.367 31.367,38.033 30.600,38.700 30.200,39.000 30.100,39.700 30.400,40.100 30.400,40.100 30.400,40.100 30.400,40.100 29.933,40.100 29.467,40.100 29.000,40.100 29.000,40.867 29.000,41.633 29.000,42.400 30.967,42.400 32.933,42.400 34.900,42.400 34.900,41.633 34.900,40.867 34.900,40.100 34.600,40.100 34.300,40.100 34.000,40.100 34.367,39.833 34.733,39.567 35.100,39.300 35.400,39.000 35.500,38.600 35.400,38.200 38.667,35.467 41.933,32.733 45.200,30.000 45.300,30.133 45.400,30.267 45.500,30.400 46.300,29.767 47.100,29.133 47.900,28.500 47.833,28.433 47.767,28.367 47.700,28.300 48.300,28.300 48.900,28.300 49.500,28.300 49.500,28.767 49.500,29.233 49.500,29.700 49.333,29.700 49.167,29.700 49.000,29.700 48.700,29.700 48.500,29.900 48.500,30.200 48.500,30.200 48.500,30.200 48.500,30.200 48.500,30.500 48.700,30.700 49.000,30.700 49.733,30.700 50.467,30.700 51.200,30.700 51.500,30.700 51.700,30.500 51.700,30.200 51.700,30.200 51.700,30.200 51.700,30.200 51.700,29.900 51.500,29.700 51.200,29.700 51.033,29.700 50.867,29.700 50.700,29.700 50.700,29.233 50.700,28.767 50.700,28.300 51.333,28.300 51.967,28.300 52.600,28.300 52.533,28.367 52.467,28.433 52.400,28.500 53.233,29.133 54.067,29.767 54.900,30.400 55.000,30.267 55.100,30.133 55.200,30.000 58.433,32.733 61.667,35.467 64.900,38.200 64.800,38.600 65.000,39.000 65.300,39.300 65.633,39.567 65.967,39.833 66.300,40.100 66.033,40.100 65.767,40.100 65.500,40.100 65.500,40.867 65.500,41.633 65.500,42.400 67.467,42.400 69.433,42.400 71.400,42.400 71.400,41.633 71.400,40.867 71.400,40.100 70.933,40.100 70.467,40.100 70.000,40.100 70.300,39.600 70.200,39.100 69.800,38.700 69.800,38.700 69.800,38.700 69.800,38.700 Z " />
</svg>