<?xml version="1.0" encoding="UTF-8" standalone="no"?>
<!DOCTYPE svg PUBLIC "-//W3C//DTD SVG 20010904//EN" "http://www.w3.org/TR/2001/REC-SVG-20010904/DTD/svg10.dtd"[]>
<svg version="1.1" xmlns="http://www.w3.org/2000/svg" d1p1:xlink="http://www.w3.org/1999/xlink" viewBox="0 0 100 50" xmlns:d1p1="xmlns">
  <path stroke="none" fill="#f0f0f0" d="M 39.400,35.900 C 39.400,36.100 39.400,36.300 39.400,36.500 41.367,36.800 43.333,37.100 45.300,37.400 45.867,37.400 46.433,37.400 47.000,37.400 47.000,36.633 47.000,35.867 47.000,35.100 46.433,35.100 45.867,35.100 45.300,35.100 43.333,35.367 41.367,35.633 39.400,35.900 Z " />
  <path stroke="none" fill="#f0f0f0" d="M 59.000,34.500 C 56.633,34.500 54.267,34.500 51.900,34.500 51.333,34.500 50.767,34.500 50.200,34.500 49.767,34.700 49.333,34.900 48.900,35.100 48.467,35.100 48.033,35.100 47.600,35.100 47.600,35.867 47.600,36.633 47.600,37.400 48.033,37.400 48.467,37.400 48.900,37.400 49.333,37.600 49.767,37.800 50.200,38.000 50.767,38.000 51.333,38.000 51.900,38.000 54.267,38.000 56.633,38.000 59.000,38.000 59.000,38.100 59.000,38.200 59.000,38.300 59.167,38.300 59.333,38.300 59.500,38.300 59.500,36.933 59.500,35.567 59.500,34.200 59.333,34.200 59.167,34.200 59.000,34.200 59.000,34.300 59.000,34.400 59.000,34.500 Z " />
  <path stroke="none" fill="#f0f0f0" d="M 47.000,29.800 C 46.433,29.800 45.867,29.800 45.300,29.800 43.333,30.100 41.367,30.400 39.400,30.700 39.400,30.900 39.400,31.100 39.400,31.300 41.367,31.567 43.333,31.833 45.300,32.100 45.867,32.100 46.433,32.100 47.000,32.100 47.000,31.333 47.000,30.567 47.000,29.800 Z " />
  <path stroke="none" fill="#f0f0f0" d="M 50.200,29.200 C 49.767,29.400 49.333,29.600 48.900,29.800 48.467,29.800 48.033,29.800 47.600,29.800 47.600,30.567 47.600,31.333 47.600,32.100 48.033,32.100 48.467,32.100 48.900,32.100 49.333,32.300 49.767,32.500 50.200,32.700 50.767,32.700 51.333,32.700 51.900,32.700 54.267,32.700 56.633,32.700 59.000,32.700 59.000,32.833 59.000,32.967 59.000,33.100 59.167,33.100 59.333,33.100 59.500,33.100 59.500,31.700 59.500,30.300 59.500,28.900 59.333,28.900 59.167,28.900 59.000,28.900 59.000,29.000 59.000,29.100 59.000,29.200 56.633,29.200 54.267,29.200 51.900,29.200 51.333,29.200 50.767,29.200 50.200,29.200 Z " />
  <path stroke="none" fill="#f0f0f0" d="M 45.300,26.900 C 45.867,26.900 46.433,26.900 47.000,26.900 47.000,26.133 47.000,25.367 47.000,24.600 46.433,24.600 45.867,24.600 45.300,24.600 43.333,24.867 41.367,25.133 39.400,25.400 39.400,25.600 39.400,25.800 39.400,26.000 41.367,26.300 43.333,26.600 45.300,26.900 Z " />
  <path stroke="none" fill="#f0f0f0" d="M 48.900,26.900 C 49.333,27.100 49.767,27.300 50.200,27.500 50.767,27.500 51.333,27.500 51.900,27.500 54.267,27.500 56.633,27.500 59.000,27.500 59.000,27.600 59.000,27.700 59.000,27.800 59.167,27.800 59.333,27.800 59.500,27.800 59.500,26.433 59.500,25.067 59.500,23.700 59.333,23.700 59.167,23.700 59.000,23.700 59.000,23.800 59.000,23.900 59.000,24.000 56.633,24.000 54.267,24.000 51.900,24.000 51.333,24.000 50.767,24.000 50.200,24.000 49.767,24.200 49.333,24.400 48.900,24.600 48.467,24.600 48.033,24.600 47.600,24.600 47.600,25.367 47.600,26.133 47.600,26.900 48.033,26.900 48.467,26.900 48.900,26.900 Z " />
  <path stroke="none" fill="#f0f0f0" d="M 39.400,20.300 C 39.400,20.500 39.400,20.700 39.400,20.900 41.367,21.200 43.333,21.500 45.300,21.800 45.867,21.800 46.433,21.800 47.000,21.800 47.000,21.033 47.000,20.267 47.000,19.500 46.433,19.500 45.867,19.500 45.300,19.500 43.333,19.767 41.367,20.033 39.400,20.300 Z " />
  <path stroke="none" fill="#f0f0f0" d="M 59.000,18.900 C 56.633,18.900 54.267,18.900 51.900,18.900 51.333,18.900 50.767,18.900 50.200,18.900 49.767,19.100 49.333,19.300 48.900,19.500 48.467,19.500 48.033,19.500 47.600,19.500 47.600,20.267 47.600,21.033 47.600,21.800 48.033,21.800 48.467,21.800 48.900,21.800 49.333,22.000 49.767,22.200 50.200,22.400 50.767,22.400 51.333,22.400 51.900,22.400 54.267,22.400 56.633,22.400 59.000,22.400 59.000,22.500 59.000,22.600 59.000,22.700 59.167,22.700 59.333,22.700 59.500,22.700 59.500,21.333 59.500,19.967 59.500,18.600 59.333,18.600 59.167,18.600 59.000,18.600 59.000,18.700 59.000,18.800 59.000,18.900 Z " />
  <path stroke="none" fill="#f0f0f0" d="M 45.300,16.600 C 45.867,16.600 46.433,16.600 47.000,16.600 47.000,15.800 47.000,15.000 47.000,14.200 46.433,14.200 45.867,14.200 45.300,14.200 43.333,14.500 41.367,14.800 39.400,15.100 39.400,15.300 39.400,15.500 39.400,15.700 41.367,16.000 43.333,16.300 45.300,16.600 Z " />
  <path stroke="none" fill="#f0f0f0" d="M 48.900,16.600 C 49.333,16.767 49.767,16.933 50.200,17.100 50.767,17.100 51.333,17.100 51.900,17.100 54.267,17.100 56.633,17.100 59.000,17.100 59.000,17.233 59.000,17.367 59.000,17.500 59.167,17.500 59.333,17.500 59.500,17.500 59.500,16.100 59.500,14.700 59.500,13.300 59.333,13.300 59.167,13.300 59.000,13.300 59.000,13.400 59.000,13.500 59.000,13.600 56.633,13.600 54.267,13.600 51.900,13.600 51.333,13.600 50.767,13.600 50.200,13.600 49.767,13.800 49.333,14.000 48.900,14.200 48.467,14.200 48.033,14.200 47.600,14.200 47.600,15.000 47.600,15.800 47.600,16.600 48.033,16.600 48.467,16.600 48.900,16.600 Z " />
  <path stroke="none" fill="#f0f0f0" d="M 63.800,8.700 C 63.133,8.700 62.467,8.700 61.800,8.700 61.800,19.233 61.800,29.767 61.800,40.300 53.933,40.300 46.067,40.300 38.200,40.300 38.200,29.767 38.200,19.233 38.200,8.700 37.533,8.700 36.867,8.700 36.200,8.700 36.200,19.900 36.200,31.100 36.200,42.300 45.400,42.300 54.600,42.300 63.800,42.300 63.800,31.100 63.800,19.900 63.800,8.700 Z " />
</svg>