<?xml version="1.0" encoding="UTF-8" standalone="no"?>
<!DOCTYPE svg PUBLIC "-//W3C//DTD SVG 20010904//EN" "http://www.w3.org/TR/2001/REC-SVG-20010904/DTD/svg10.dtd"[]>
<svg version="1.1" xmlns="http://www.w3.org/2000/svg" d1p1:xlink="http://www.w3.org/1999/xlink" viewBox="0 0 100 50" xmlns:d1p1="xmlns">
  <path stroke="none" fill="#f0f0f0" d="M 44.300,25.000 C 44.300,26.000 44.000,26.900 43.600,27.800 47.300,26.867 51.000,25.933 54.700,25.000 51.000,24.067 47.300,23.133 43.600,22.200 44.000,23.100 44.300,24.000 44.300,25.000 44.300,25.000 44.300,25.000 44.300,25.000 Z " />
  <path stroke="none" fill="#f0f0f0" d="M 22.300,25.000 C 26.033,25.933 29.767,26.867 33.500,27.800 32.400,26.100 32.400,23.900 33.500,22.200 29.767,23.133 26.033,24.067 22.300,25.000 22.300,25.000 22.300,25.000 22.300,25.000 Z " />
  <path stroke="none" fill="#f0f0f0" d="M 41.300,20.000 C 40.367,16.267 39.433,12.533 38.500,8.800 37.567,12.533 36.633,16.267 35.700,20.000 36.500,19.500 37.500,19.200 38.500,19.200 39.500,19.200 40.500,19.500 41.300,20.000 41.300,20.000 41.300,20.000 41.300,20.000 Z " />
  <path stroke="none" fill="#f0f0f0" d="M 35.700,30.000 C 36.633,33.733 37.567,37.467 38.500,41.200 39.433,37.467 40.367,33.733 41.300,30.000 40.500,30.500 39.500,30.800 38.500,30.800 37.500,30.800 36.500,30.500 35.700,30.000 35.700,30.000 35.700,30.000 35.700,30.000 Z " />
  <path stroke="none" fill="#f0f0f0" d="M 41.500,25.000 C 41.500,24.800 41.400,24.500 41.400,24.300 44.433,20.633 47.467,16.967 50.500,13.300 47.100,16.433 43.700,19.567 40.300,22.700 39.800,22.400 39.200,22.200 38.600,22.200 38.200,22.267 37.800,22.333 37.400,22.400 33.933,19.533 30.467,16.667 27.000,13.800 30.033,17.100 33.067,20.400 36.100,23.700 35.900,24.100 35.800,24.500 35.800,25.000 35.800,25.600 36.000,26.200 36.400,26.700 33.433,30.233 30.467,33.767 27.500,37.300 31.000,34.133 34.500,30.967 38.000,27.800 38.200,27.800 38.400,27.800 38.600,27.800 39.100,27.800 39.500,27.700 39.900,27.500 43.600,30.600 47.300,33.700 51.000,36.800 47.733,33.233 44.467,29.667 41.200,26.100 41.400,25.800 41.500,25.400 41.500,25.000 41.500,25.000 41.500,25.000 41.500,25.000 Z " />
  <path stroke="none" fill="#f0f0f0" d="M 61.200,22.100 C 61.200,21.467 61.200,20.833 61.200,20.200 60.900,17.967 60.600,15.733 60.300,13.500 60.067,13.500 59.833,13.500 59.600,13.500 59.267,15.733 58.933,17.967 58.600,20.200 58.600,20.833 58.600,21.467 58.600,22.100 59.467,22.100 60.333,22.100 61.200,22.100 Z " />
  <path stroke="none" fill="#f0f0f0" d="M 61.900,35.500 C 61.900,32.833 61.900,30.167 61.900,27.500 61.900,26.900 61.900,26.300 61.900,25.700 61.667,25.200 61.433,24.700 61.200,24.200 61.200,23.700 61.200,23.200 61.200,22.700 60.333,22.700 59.467,22.700 58.600,22.700 58.600,23.200 58.600,23.700 58.600,24.200 58.400,24.700 58.200,25.200 58.000,25.700 58.000,26.333 58.000,26.967 58.000,27.600 58.000,30.233 58.000,32.867 58.000,35.500 57.867,35.500 57.733,35.500 57.600,35.500 57.600,35.700 57.600,35.900 57.600,36.100 59.167,36.100 60.733,36.100 62.300,36.100 62.300,35.900 62.300,35.700 62.300,35.500 62.167,35.500 62.033,35.500 61.900,35.500 Z " />
  <path stroke="none" fill="#f0f0f0" d="M 67.100,22.100 C 67.100,21.467 67.100,20.833 67.100,20.200 66.767,17.967 66.433,15.733 66.100,13.500 65.900,13.500 65.700,13.500 65.500,13.500 65.167,15.733 64.833,17.967 64.500,20.200 64.500,20.833 64.500,21.467 64.500,22.100 65.367,22.100 66.233,22.100 67.100,22.100 Z " />
  <path stroke="none" fill="#f0f0f0" d="M 67.800,35.500 C 67.800,32.833 67.800,30.167 67.800,27.500 67.800,26.900 67.800,26.300 67.800,25.700 67.567,25.200 67.333,24.700 67.100,24.200 67.100,23.700 67.100,23.200 67.100,22.700 66.233,22.700 65.367,22.700 64.500,22.700 64.500,23.200 64.500,23.700 64.500,24.200 64.300,24.700 64.100,25.200 63.900,25.700 63.900,26.300 63.900,26.900 63.900,27.500 63.900,30.167 63.900,32.833 63.900,35.500 63.767,35.500 63.633,35.500 63.500,35.500 63.500,35.700 63.500,35.900 63.500,36.100 65.033,36.100 66.567,36.100 68.100,36.100 68.100,35.900 68.100,35.700 68.100,35.500 68.000,35.500 67.900,35.500 67.800,35.500 Z " />
  <path stroke="none" fill="#f0f0f0" d="M 73.000,22.100 C 73.000,21.467 73.000,20.833 73.000,20.200 72.667,17.967 72.333,15.733 72.000,13.500 71.800,13.500 71.600,13.500 71.400,13.500 71.067,15.733 70.733,17.967 70.400,20.200 70.400,20.833 70.400,21.467 70.400,22.100 71.267,22.100 72.133,22.100 73.000,22.100 Z " />
  <path stroke="none" fill="#f0f0f0" d="M 74.000,35.500 C 73.900,35.500 73.800,35.500 73.700,35.500 73.700,32.833 73.700,30.167 73.700,27.500 73.700,26.900 73.700,26.300 73.700,25.700 73.467,25.200 73.233,24.700 73.000,24.200 73.000,23.700 73.000,23.200 73.000,22.700 72.133,22.700 71.267,22.700 70.400,22.700 70.400,23.200 70.400,23.700 70.400,24.200 70.200,24.700 70.000,25.200 69.800,25.700 69.800,26.300 69.800,26.900 69.800,27.500 69.800,30.167 69.800,32.833 69.800,35.500 69.667,35.500 69.533,35.500 69.400,35.500 69.400,35.700 69.400,35.900 69.400,36.100 70.933,36.100 72.467,36.100 74.000,36.100 74.000,35.900 74.000,35.700 74.000,35.500 Z " />
</svg>