<?xml version="1.0" encoding="UTF-8" standalone="no"?>
<!DOCTYPE svg PUBLIC "-//W3C//DTD SVG 20010904//EN" "http://www.w3.org/TR/2001/REC-SVG-20010904/DTD/svg10.dtd"[]>
<svg version="1.1" xmlns="http://www.w3.org/2000/svg" d1p1:xlink="http://www.w3.org/1999/xlink" viewBox="0 0 100 50" xmlns:d1p1="xmlns">
  <path stroke="none" fill="#f0f0f0" d="M 62.300,7.100 C 63.000,6.800 63.700,6.500 64.400,6.200 64.600,6.100 64.800,5.800 64.600,5.600 64.600,5.400 64.400,5.200 64.200,5.200 64.100,5.200 64.100,5.200 64.000,5.300 62.633,5.900 61.267,6.500 59.900,7.100 60.800,8.233 61.700,9.367 62.600,10.500 62.733,10.567 62.867,10.633 63.000,10.700 63.100,10.700 63.200,10.700 63.300,10.700 63.500,10.500 63.600,10.200 63.400,10.000 62.933,9.367 62.467,8.733 62.000,8.100 70.900,10.200 76.500,19.100 74.400,28.000 72.900,34.300 68.000,39.100 61.700,40.500 61.767,40.833 61.833,41.167 61.900,41.500 70.000,39.700 75.700,32.600 75.800,24.300 75.800,16.200 70.200,9.100 62.300,7.100 62.300,7.100 62.300,7.100 62.300,7.100 Z " />
  <path stroke="none" fill="#f0f0f0" d="M 52.900,38.100 C 52.700,38.300 52.600,38.600 52.800,38.800 52.800,38.800 52.800,38.800 52.800,38.800 53.233,39.333 53.667,39.867 54.100,40.400 45.200,38.200 39.700,29.200 41.900,20.300 43.500,14.100 48.500,9.300 54.800,8.000 54.733,7.667 54.667,7.333 54.600,7.000 45.100,8.900 38.900,18.200 40.900,27.800 42.300,34.600 47.500,39.900 54.200,41.400 53.400,41.733 52.600,42.067 51.800,42.400 51.600,42.600 51.500,42.800 51.600,43.100 51.600,43.300 51.800,43.400 52.000,43.400 52.067,43.400 52.133,43.400 52.200,43.400 53.567,42.800 54.933,42.200 56.300,41.600 55.400,40.467 54.500,39.333 53.600,38.200 53.400,38.000 53.100,37.900 52.900,38.100 52.900,38.100 52.900,38.100 52.900,38.100 Z " />
  <path stroke="none" fill="#f0f0f0" d="M 59.900,25.100 C 59.100,25.200 58.200,25.300 57.400,25.200 56.700,25.100 56.100,24.500 56.000,23.800 56.000,23.000 56.100,22.400 56.800,22.400 57.567,22.400 58.333,22.400 59.100,22.400 59.000,22.900 58.700,23.300 58.400,23.700 58.300,24.000 57.800,24.400 57.900,24.500 58.000,24.600 58.600,24.500 58.800,24.300 59.100,24.100 59.400,23.900 59.700,23.600 59.800,23.300 59.900,23.100 60.100,22.800 60.300,23.300 60.500,23.800 60.600,24.300 60.700,24.700 60.400,25.000 59.900,25.100 59.900,25.100 59.900,25.100 59.900,25.100 Z M 62.200,27.400 C 62.200,29.000 62.300,30.000 62.400,31.500 62.500,33.000 62.600,33.600 63.800,33.600 64.833,33.600 65.867,33.600 66.900,33.600 68.600,33.600 68.800,32.900 68.500,31.200 68.200,29.500 67.800,28.000 67.600,26.500 67.400,25.300 67.300,24.000 67.500,22.800 67.700,21.900 67.800,21.800 68.700,21.600 68.900,21.600 69.100,21.600 69.300,21.600 69.300,20.400 69.300,19.200 69.300,18.000 69.000,17.700 68.600,17.500 68.200,17.400 67.700,17.400 67.600,17.900 67.100,17.900 60.600,17.900 54.100,17.900 47.600,17.900 47.467,17.767 47.333,17.633 47.200,17.500 46.767,17.500 46.333,17.500 45.900,17.500 45.900,18.533 45.900,19.567 45.900,20.600 45.900,20.600 46.000,21.400 46.400,21.400 46.800,21.400 51.500,21.600 52.900,21.600 54.000,21.800 54.800,22.600 55.100,23.700 55.100,23.933 55.100,24.167 55.100,24.400 55.400,25.200 56.000,25.800 56.900,26.000 58.200,26.100 58.800,26.000 60.200,26.000 61.600,26.000 62.200,26.500 62.200,27.400 62.200,27.400 62.200,27.400 62.200,27.400 Z " />
  <path stroke="none" fill="#f0f0f0" d="M 38.600,15.500 C 32.933,15.833 27.267,16.167 21.600,16.500 27.267,16.833 32.933,17.167 38.600,17.500 38.600,16.833 38.600,16.167 38.600,15.500 Z " />
  <path stroke="none" fill="#f0f0f0" d="M 36.800,24.000 C 31.133,24.333 25.467,24.667 19.800,25.000 25.467,25.333 31.133,25.667 36.800,26.000 36.800,25.333 36.800,24.667 36.800,24.000 Z " />
  <path stroke="none" fill="#f0f0f0" d="M 39.000,34.000 C 39.000,33.333 39.000,32.667 39.000,32.000 33.333,32.333 27.667,32.667 22.000,33.000 27.667,33.333 33.333,33.667 39.000,34.000 Z " />
</svg>