<?xml version="1.0" encoding="UTF-8" standalone="no"?>
<!DOCTYPE svg PUBLIC "-//W3C//DTD SVG 20010904//EN" "http://www.w3.org/TR/2001/REC-SVG-20010904/DTD/svg10.dtd"[]>
<svg version="1.1" xmlns="http://www.w3.org/2000/svg" d1p1:xlink="http://www.w3.org/1999/xlink" viewBox="0 0 100 50" xmlns:d1p1="xmlns">
  <path stroke="none" fill="#f0f0f0" d="M 44.300,19.200 C 40.800,19.200 37.300,19.200 33.800,19.200 33.800,20.633 33.800,22.067 33.800,23.500 35.467,23.500 37.133,23.500 38.800,23.500 40.633,22.067 42.467,20.633 44.300,19.200 44.300,19.200 44.300,19.200 44.300,19.200 Z " />
  <path stroke="none" fill="#f0f0f0" d="M 60.300,19.200 C 56.100,19.200 51.900,19.200 47.700,19.200 45.467,21.000 43.233,22.800 41.000,24.600 43.167,26.333 45.333,28.067 47.500,29.800 51.767,29.800 56.033,29.800 60.300,29.800 62.570,29.644 64.434,27.946 64.800,25.700 65.167,25.700 65.533,25.700 65.900,25.700 65.900,24.967 65.900,24.233 65.900,23.500 65.533,23.500 65.167,23.500 64.800,23.500 64.600,21.137 62.670,19.292 60.300,19.200 60.300,19.200 60.300,19.200 60.300,19.200 Z " />
  <path stroke="none" fill="#f0f0f0" d="M 33.800,25.700 C 33.800,27.067 33.800,28.433 33.800,29.800 37.200,29.800 40.600,29.800 44.000,29.800 42.267,28.433 40.533,27.067 38.800,25.700 37.133,25.700 35.467,25.700 33.800,25.700 33.800,25.700 33.800,25.700 33.800,25.700 Z " />
  <path stroke="none" fill="#f0f0f0" d="M 28.100,29.100 C 28.100,28.767 28.100,28.433 28.100,28.100 22.433,28.267 16.767,28.433 11.100,28.600 16.767,28.767 22.433,28.933 28.100,29.100 28.100,29.100 28.100,29.100 28.100,29.100 Z " />
  <path stroke="none" fill="#f0f0f0" d="M 26.300,23.900 C 20.633,24.067 14.967,24.233 9.300,24.400 14.967,24.567 20.633,24.733 26.300,24.900 26.300,24.567 26.300,24.233 26.300,23.900 26.300,23.900 26.300,23.900 26.300,23.900 Z " />
  <path stroke="none" fill="#f0f0f0" d="M 28.500,20.900 C 28.500,20.567 28.500,20.233 28.500,19.900 22.833,20.067 17.167,20.233 11.500,20.400 17.167,20.567 22.833,20.733 28.500,20.900 28.500,20.900 28.500,20.900 28.500,20.900 Z " />
  <path stroke="none" fill="#f0f0f0" d="M 56.000,14.500 C 56.900,14.500 57.800,14.500 58.700,14.500 59.333,15.067 59.967,15.633 60.600,16.200 60.600,16.200 60.600,16.200 60.600,16.200 61.133,16.300 61.667,16.400 62.200,16.500 62.483,16.185 62.689,15.809 62.800,15.400 63.000,15.000 64.200,14.900 65.000,14.900 65.800,14.900 65.100,14.700 65.000,14.700 62.800,14.000 62.900,12.800 62.900,12.800 62.900,12.800 62.900,12.800 62.900,12.800 62.900,10.633 62.900,8.467 62.900,6.300 60.567,6.300 58.233,6.300 55.900,6.300 55.900,9.000 55.900,11.700 55.900,14.400 55.933,14.433 55.967,14.467 56.000,14.500 Z " />
  <path stroke="none" fill="#f0f0f0" d="M 68.700,16.100 C 69.933,16.667 71.167,17.233 72.400,17.800 72.967,17.500 73.533,17.200 74.100,16.900 74.100,16.900 74.500,15.300 74.500,15.100 72.551,15.336 70.615,15.670 68.700,16.100 68.700,16.100 68.700,16.100 68.700,16.100 Z " />
  <path stroke="none" fill="#f0f0f0" d="M 83.800,13.200 C 83.700,13.000 81.700,14.300 81.700,14.300 82.067,14.900 82.433,15.500 82.800,16.100 83.233,15.800 83.667,15.500 84.100,15.200 84.034,14.529 83.934,13.861 83.800,13.200 83.800,13.200 83.800,13.200 83.800,13.200 Z " />
  <path stroke="none" fill="#f0f0f0" d="M 77.300,19.200 C 76.500,19.433 75.700,19.667 74.900,19.900 74.900,20.300 74.900,20.700 74.900,21.100 75.367,21.300 75.833,21.500 76.300,21.700 76.676,20.885 77.010,20.050 77.300,19.200 77.300,19.200 77.300,19.200 77.300,19.200 Z " />
  <path stroke="none" fill="#f0f0f0" d="M 62.800,34.400 C 62.672,34.028 62.468,33.688 62.200,33.400 61.667,33.500 61.133,33.600 60.600,33.700 59.967,34.233 59.333,34.767 58.700,35.300 57.767,35.300 56.833,35.300 55.900,35.300 55.900,37.767 55.900,40.233 55.900,42.700 58.233,42.700 60.567,42.700 62.900,42.700 62.900,40.733 62.900,38.767 62.900,36.800 62.900,36.800 62.700,35.500 65.700,34.900 65.700,34.900 63.100,35.000 62.800,34.400 62.800,34.400 62.800,34.400 62.800,34.400 Z " />
  <path stroke="none" fill="#f0f0f0" d="M 69.800,34.800 C 68.600,35.567 67.400,36.333 66.200,37.100 68.125,37.333 70.061,37.466 72.000,37.500 72.000,37.300 71.600,35.700 71.600,35.700 71.000,35.400 70.400,35.100 69.800,34.800 Z " />
  <path stroke="none" fill="#f0f0f0" d="M 77.900,34.800 C 77.300,35.367 76.700,35.933 76.100,36.500 77.167,36.833 78.233,37.167 79.300,37.500 79.233,36.800 79.167,36.100 79.100,35.400 78.700,35.200 78.300,35.000 77.900,34.800 77.900,34.800 77.900,34.800 77.900,34.800 Z " />
  <path stroke="none" fill="#f0f0f0" d="M 72.100,32.700 C 72.100,32.700 74.100,33.900 74.200,33.700 74.334,33.072 74.434,32.438 74.500,31.800 74.067,31.500 73.633,31.200 73.200,30.900 72.833,31.500 72.467,32.100 72.100,32.700 Z " />
</svg>