<?xml version="1.0" encoding="UTF-8" standalone="no"?>
<!DOCTYPE svg PUBLIC "-//W3C//DTD SVG 20010904//EN" "http://www.w3.org/TR/2001/REC-SVG-20010904/DTD/svg10.dtd"[]>
<svg version="1.1" xmlns="http://www.w3.org/2000/svg" d1p1:xlink="http://www.w3.org/1999/xlink" viewBox="0 0 100 50" xmlns:d1p1="xmlns">
  <path stroke="none" fill="#f0f0f0" d="M 23.600,18.600 C 26.033,18.600 28.467,18.600 30.900,18.600 30.900,23.600 30.900,28.600 30.900,33.600 28.467,33.600 26.033,33.600 23.600,33.600 23.600,28.600 23.600,23.600 23.600,18.600 Z " />
  <path stroke="none" fill="#f0f0f0" d="M 32.300,22.700 C 38.567,22.700 44.833,22.700 51.100,22.700 51.100,24.970 51.100,27.240 51.100,29.510 44.833,29.510 38.567,29.510 32.300,29.510 32.300,27.240 32.300,24.970 32.300,22.700 Z " />
  <path stroke="none" fill="#f0f0f0" d="M 19.300,22.700 C 20.300,22.700 21.300,22.700 22.300,22.700 22.300,24.970 22.300,27.240 22.300,29.510 21.300,29.510 20.300,29.510 19.300,29.510 19.300,27.240 19.300,24.970 19.300,22.700 Z " />
  <path stroke="none" fill="#f0f0f0" d="M 12.100,24.200 C 12.100,25.500 12.100,26.800 12.100,28.100 12.100,28.597 12.503,29.000 13.000,29.000 14.700,29.000 16.400,29.000 18.100,29.000 18.100,27.100 18.100,25.200 18.100,23.300 16.400,23.300 14.700,23.300 13.000,23.300 12.761,23.300 12.532,23.395 12.364,23.564 12.195,23.732 12.100,23.961 12.100,24.200 12.100,24.200 12.100,24.200 12.100,24.200 Z " />
  <path stroke="none" fill="#f0f0f0" d="M 52.400,22.800 C 52.400,25.000 52.400,27.200 52.400,29.400 52.400,29.433 52.400,29.467 52.400,29.500 53.833,30.667 55.267,31.833 56.700,33.000 56.700,28.433 56.700,23.867 56.700,19.300 55.267,20.467 53.833,21.633 52.400,22.800 52.400,22.800 52.400,22.800 52.400,22.800 52.400,22.800 52.400,22.800 52.400,22.800 Z " />
  <path stroke="none" fill="#f0f0f0" d="M 58.100,21.500 C 58.500,21.300 58.900,21.100 59.300,20.900 59.367,20.300 59.433,19.700 59.500,19.100 59.033,19.400 58.567,19.700 58.100,20.000 58.100,20.500 58.100,21.000 58.100,21.500 58.100,21.500 58.100,21.500 58.100,21.500 Z " />
  <path stroke="none" fill="#f0f0f0" d="M 61.200,20.600 C 62.033,20.333 62.867,20.067 63.700,19.800 63.700,19.167 63.700,18.533 63.700,17.900 62.867,18.167 62.033,18.433 61.200,18.700 61.200,19.333 61.200,19.967 61.200,20.600 61.200,20.600 61.200,20.600 61.200,20.600 Z " />
  <path stroke="none" fill="#f0f0f0" d="M 65.600,19.600 C 66.400,19.667 67.200,19.733 68.000,19.800 68.000,19.100 68.000,18.400 68.000,17.700 67.200,17.700 66.400,17.700 65.600,17.700 65.600,18.333 65.600,18.967 65.600,19.600 Z " />
  <path stroke="none" fill="#f0f0f0" d="M 70.500,19.900 C 71.400,20.133 72.300,20.367 73.200,20.600 73.200,20.000 73.200,19.400 73.200,18.800 72.300,18.500 71.400,18.200 70.500,17.900 70.500,18.567 70.500,19.233 70.500,19.900 70.500,19.900 70.500,19.900 70.500,19.900 Z " />
  <path stroke="none" fill="#f0f0f0" d="M 74.800,21.500 C 76.333,22.267 77.867,23.033 79.400,23.800 79.400,23.533 79.400,23.267 79.400,23.000 77.867,22.100 76.333,21.200 74.800,20.300 74.800,20.700 74.800,21.100 74.800,21.500 74.800,21.500 74.800,21.500 74.800,21.500 Z " />
  <path stroke="none" fill="#f0f0f0" d="M 59.200,22.300 C 58.833,22.400 58.467,22.500 58.100,22.600 58.100,23.567 58.100,24.533 58.100,25.500 58.433,25.500 58.767,25.500 59.100,25.500 59.133,24.433 59.167,23.367 59.200,22.300 59.200,22.300 59.200,22.300 59.200,22.300 Z " />
  <path stroke="none" fill="#f0f0f0" d="M 63.300,21.500 C 62.600,21.700 61.900,21.900 61.200,22.100 61.200,23.200 61.200,24.300 61.200,25.400 61.900,25.400 62.600,25.400 63.300,25.400 63.300,24.100 63.300,22.800 63.300,21.500 63.300,21.500 63.300,21.500 63.300,21.500 Z " />
  <path stroke="none" fill="#f0f0f0" d="M 67.900,21.500 C 67.033,21.500 66.167,21.500 65.300,21.500 65.300,22.800 65.300,24.100 65.300,25.400 66.133,25.400 66.967,25.400 67.800,25.400 67.833,24.100 67.867,22.800 67.900,21.500 67.900,21.500 67.900,21.500 67.900,21.500 Z " />
  <path stroke="none" fill="#f0f0f0" d="M 73.000,22.300 C 72.167,22.133 71.333,21.967 70.500,21.800 70.500,23.033 70.500,24.267 70.500,25.500 71.367,25.500 72.233,25.500 73.100,25.500 73.067,24.433 73.033,23.367 73.000,22.300 73.000,22.300 73.000,22.300 73.000,22.300 Z " />
  <path stroke="none" fill="#f0f0f0" d="M 74.800,25.400 C 76.333,25.500 77.867,25.600 79.400,25.700 79.400,25.400 79.400,25.100 79.400,24.800 77.867,24.200 76.333,23.600 74.800,23.000 74.800,23.800 74.800,24.600 74.800,25.400 74.800,25.400 74.800,25.400 74.800,25.400 Z " />
  <path stroke="none" fill="#f0f0f0" d="M 58.100,30.900 C 58.100,31.400 58.100,31.900 58.100,32.400 58.567,32.733 59.033,33.067 59.500,33.400 59.433,32.767 59.367,32.133 59.300,31.500 58.900,31.300 58.500,31.100 58.100,30.900 58.100,30.900 58.100,30.900 58.100,30.900 Z " />
  <path stroke="none" fill="#f0f0f0" d="M 61.200,33.800 C 62.033,34.033 62.867,34.267 63.700,34.500 63.700,33.867 63.700,33.233 63.700,32.600 62.867,32.333 62.033,32.067 61.200,31.800 61.200,32.467 61.200,33.133 61.200,33.800 61.200,33.800 61.200,33.800 61.200,33.800 Z " />
  <path stroke="none" fill="#f0f0f0" d="M 65.600,34.700 C 66.400,34.700 67.200,34.700 68.000,34.700 68.000,34.000 68.000,33.300 68.000,32.600 67.200,32.667 66.400,32.733 65.600,32.800 65.600,33.433 65.600,34.067 65.600,34.700 Z " />
  <path stroke="none" fill="#f0f0f0" d="M 70.500,34.500 C 71.400,34.233 72.300,33.967 73.200,33.700 73.200,33.067 73.200,32.433 73.200,31.800 72.300,32.033 71.400,32.267 70.500,32.500 70.500,33.167 70.500,33.833 70.500,34.500 70.500,34.500 70.500,34.500 70.500,34.500 Z " />
  <path stroke="none" fill="#f0f0f0" d="M 74.800,32.100 C 76.333,31.200 77.867,30.300 79.400,29.400 79.400,29.133 79.400,28.867 79.400,28.600 77.867,29.367 76.333,30.133 74.800,30.900 74.800,31.300 74.800,31.700 74.800,32.100 74.800,32.100 74.800,32.100 74.800,32.100 Z " />
  <path stroke="none" fill="#f0f0f0" d="M 59.100,26.900 C 58.767,26.900 58.433,26.900 58.100,26.900 58.100,27.867 58.100,28.833 58.100,29.800 58.467,29.900 58.833,30.000 59.200,30.100 59.167,29.033 59.133,27.967 59.100,26.900 59.100,26.900 59.100,26.900 59.100,26.900 Z " />
  <path stroke="none" fill="#f0f0f0" d="M 61.200,30.300 C 61.900,30.500 62.600,30.700 63.300,30.900 63.300,29.633 63.300,28.367 63.300,27.100 62.600,27.100 61.900,27.100 61.200,27.100 61.200,28.167 61.200,29.233 61.200,30.300 61.200,30.300 61.200,30.300 61.200,30.300 Z " />
  <path stroke="none" fill="#f0f0f0" d="M 65.300,30.900 C 66.167,30.900 67.033,30.900 67.900,30.900 67.867,29.633 67.833,28.367 67.800,27.100 66.967,27.100 66.133,27.100 65.300,27.100 65.300,28.367 65.300,29.633 65.300,30.900 65.300,30.900 65.300,30.900 65.300,30.900 Z " />
  <path stroke="none" fill="#f0f0f0" d="M 70.500,30.600 C 71.333,30.433 72.167,30.267 73.000,30.100 73.033,29.033 73.067,27.967 73.100,26.900 72.233,26.900 71.367,26.900 70.500,26.900 70.500,28.133 70.500,29.367 70.500,30.600 70.500,30.600 70.500,30.600 70.500,30.600 Z " />
  <path stroke="none" fill="#f0f0f0" d="M 74.800,29.400 C 76.333,28.867 77.867,28.333 79.400,27.800 79.400,27.500 79.400,27.200 79.400,26.900 77.867,26.967 76.333,27.033 74.800,27.100 74.800,27.867 74.800,28.633 74.800,29.400 74.800,29.400 74.800,29.400 74.800,29.400 Z " />
  <path stroke="none" fill="#f0f0f0" d="M 87.900,29.200 C 87.900,26.633 87.900,24.067 87.900,21.500 82.033,19.400 76.167,17.300 70.300,15.200 70.300,14.600 70.300,14.000 70.300,13.400 67.967,13.333 65.633,13.267 63.300,13.200 63.300,13.733 63.300,14.267 63.300,14.800 61.633,14.800 59.967,14.800 58.300,14.800 58.300,15.100 58.300,15.400 58.300,15.700 59.967,15.700 61.633,15.700 63.300,15.700 65.600,15.900 67.900,16.100 70.200,16.300 73.833,17.567 77.467,18.833 81.100,20.100 81.100,20.100 81.000,29.200 81.100,29.200 82.800,29.200 84.500,29.200 86.200,29.200 86.300,29.200 86.300,30.600 87.100,30.600 87.900,30.600 87.900,29.200 87.900,29.200 87.900,29.200 87.900,29.200 87.900,29.200 Z " />
</svg>