<?xml version="1.0" encoding="UTF-8" standalone="no"?>
<!DOCTYPE svg PUBLIC "-//W3C//DTD SVG 20010904//EN" "http://www.w3.org/TR/2001/REC-SVG-20010904/DTD/svg10.dtd"[]>
<svg version="1.1" xmlns="http://www.w3.org/2000/svg" d1p1:xlink="http://www.w3.org/1999/xlink" viewBox="0 0 100 50" xmlns:d1p1="xmlns">
  <path stroke="none" fill="#f0f0f0" d="M 49.500,7.600 C 49.600,6.900 49.800,6.200 50.100,5.600 50.500,6.200 50.700,6.900 50.700,7.600 50.300,7.600 49.900,7.600 49.500,7.600 49.500,7.600 49.500,7.600 49.500,7.600 Z M 52.300,12.500 C 52.100,9.500 51.400,6.500 50.000,3.800 50.000,3.800 47.700,8.900 47.700,12.500 47.700,13.733 47.700,14.967 47.700,16.200 49.233,16.200 50.767,16.200 52.300,16.200 52.300,14.967 52.300,13.733 52.300,12.500 52.300,12.500 52.300,12.500 52.300,12.500 Z " />
  <path stroke="none" fill="#f0f0f0" d="M 47.800,42.200 C 47.400,42.533 47.000,42.867 46.600,43.200 46.600,43.567 46.600,43.933 46.600,44.300 48.900,44.300 51.200,44.300 53.500,44.300 53.500,43.933 53.500,43.567 53.500,43.200 53.100,42.867 52.700,42.533 52.300,42.200 50.800,42.200 49.300,42.200 47.800,42.200 Z " />
  <path stroke="none" fill="#f0f0f0" d="M 53.500,23.500 C 51.200,23.500 48.900,23.500 46.600,23.500 46.600,24.567 46.600,25.633 46.600,26.700 46.600,31.633 46.600,36.567 46.600,41.500 48.900,41.500 51.200,41.500 53.500,41.500 53.500,36.567 53.500,31.633 53.500,26.700 53.500,25.633 53.500,24.567 53.500,23.500 Z " />
  <path stroke="none" fill="#f0f0f0" d="M 52.300,20.200 C 52.300,19.267 52.300,18.333 52.300,17.400 50.767,17.400 49.233,17.400 47.700,17.400 47.700,18.367 47.700,19.333 47.700,20.300 47.367,21.133 47.033,21.967 46.700,22.800 48.900,22.800 51.100,22.800 53.300,22.800 52.967,21.933 52.633,21.067 52.300,20.200 Z " />
  <path stroke="none" fill="#f0f0f0" d="M 60.700,17.900 C 60.800,17.400 60.900,17.000 61.100,16.600 61.400,17.000 61.600,17.400 61.600,17.900 61.300,17.900 61.000,17.900 60.700,17.900 60.700,17.900 60.700,17.900 60.700,17.900 Z M 63.400,28.000 C 63.133,27.400 62.867,26.800 62.600,26.200 62.600,25.567 62.600,24.933 62.600,24.300 62.600,24.300 62.600,24.300 62.600,24.300 62.600,23.267 62.600,22.233 62.600,21.200 62.500,19.200 62.000,17.200 61.100,15.400 60.300,17.200 59.800,19.200 59.600,21.200 59.600,22.233 59.600,23.267 59.600,24.300 59.600,24.300 59.600,24.300 59.600,24.300 59.600,24.900 59.600,25.500 59.600,26.100 59.333,26.733 59.067,27.367 58.800,28.000 58.800,32.733 58.800,37.467 58.800,42.200 60.333,42.200 61.867,42.200 63.400,42.200 63.400,42.200 63.400,28.000 63.400,28.000 63.400,28.000 63.400,28.000 63.400,28.000 Z " />
  <path stroke="none" fill="#f0f0f0" d="M 38.100,17.900 C 38.200,17.400 38.300,17.000 38.500,16.600 38.800,17.000 39.000,17.400 39.000,17.900 38.700,17.900 38.400,17.900 38.100,17.900 38.100,17.900 38.100,17.900 38.100,17.900 Z M 40.800,28.000 C 40.533,27.400 40.267,26.800 40.000,26.200 40.000,25.567 40.000,24.933 40.000,24.300 40.000,24.300 40.000,24.300 40.000,24.300 40.000,23.267 40.000,22.233 40.000,21.200 39.900,19.200 39.400,17.200 38.500,15.400 37.700,17.200 37.200,19.200 37.000,21.200 37.000,22.233 37.000,23.267 37.000,24.300 37.000,24.300 37.000,24.300 37.000,24.300 37.000,24.900 37.000,25.500 37.000,26.100 36.733,26.733 36.467,27.367 36.200,28.000 36.200,32.733 36.200,37.467 36.200,42.200 37.733,42.200 39.267,42.200 40.800,42.200 40.800,37.467 40.800,32.733 40.800,28.000 40.800,28.000 40.800,28.000 40.800,28.000 Z " />
  <path stroke="none" fill="#f0f0f0" d="M 83.300,20.500 C 82.900,20.200 82.400,20.200 82.000,20.500 82.000,20.600 81.900,20.600 81.900,20.700 81.600,21.200 81.700,21.700 82.100,22.100 83.000,22.733 83.900,23.367 84.800,24.000 78.933,24.000 73.067,24.000 67.200,24.000 67.200,24.667 67.200,25.333 67.200,26.000 73.067,26.000 78.933,26.000 84.800,26.000 83.900,26.633 83.000,27.267 82.100,27.900 81.700,28.300 81.600,28.800 81.900,29.300 82.100,29.600 82.400,29.700 82.700,29.700 82.900,29.700 83.100,29.700 83.300,29.500 85.400,28.000 87.500,26.500 89.600,25.000 87.500,23.500 85.400,22.000 83.300,20.500 83.300,20.500 83.300,20.500 83.300,20.500 Z " />
  <path stroke="none" fill="#f0f0f0" d="M 11.600,24.000 C 18.467,24.000 25.333,24.000 32.200,24.000 32.200,24.667 32.200,25.333 32.200,26.000 25.333,26.000 18.467,26.000 11.600,26.000 11.600,25.333 11.600,24.667 11.600,24.000 Z " />
</svg>