<?xml version="1.0" encoding="UTF-8" standalone="no"?>
<!DOCTYPE svg PUBLIC "-//W3C//DTD SVG 20010904//EN" "http://www.w3.org/TR/2001/REC-SVG-20010904/DTD/svg10.dtd"[]>
<svg version="1.1" xmlns="http://www.w3.org/2000/svg" d1p1:xlink="http://www.w3.org/1999/xlink" viewBox="0 0 100 50" xmlns:d1p1="xmlns">
  <path stroke="none" fill="#f0f0f0" d="M 72.600,23.500 C 72.400,23.900 70.700,24.400 70.700,24.400 70.700,24.400 69.100,25.900 68.200,26.200 67.300,26.500 64.500,24.800 63.100,24.000 62.867,23.867 62.633,23.733 62.400,23.600 62.300,23.600 62.200,23.600 62.100,23.600 59.800,24.700 57.200,24.800 54.900,23.900 54.900,22.900 54.900,21.900 54.900,20.900 55.867,20.900 56.833,20.900 57.800,20.900 57.800,21.533 57.800,22.167 57.800,22.800 60.033,22.633 62.267,22.467 64.500,22.300 64.667,22.600 64.833,22.900 65.000,23.200 65.100,23.400 65.400,23.400 65.600,23.300 65.700,23.200 65.800,23.000 65.700,22.800 65.367,22.267 65.033,21.733 64.700,21.200 64.200,20.500 64.000,20.000 64.200,19.600 64.267,19.600 64.333,19.600 64.400,19.600 64.700,19.600 65.100,20.100 65.500,20.700 65.700,21.000 65.900,21.300 66.100,21.600 66.500,22.400 67.000,23.200 67.500,24.000 67.700,24.200 67.900,24.200 68.000,24.000 68.100,23.800 68.000,23.500 67.900,23.400 67.600,23.000 67.400,22.600 67.200,22.100 66.800,21.500 66.600,20.800 66.200,20.300 65.800,19.800 65.800,19.000 66.100,18.800 66.400,18.600 66.700,19.100 67.100,19.700 67.733,20.667 68.367,21.633 69.000,22.600 69.000,22.600 69.700,23.700 69.900,23.600 70.000,23.500 70.000,23.200 69.900,23.100 69.567,22.600 69.233,22.100 68.900,21.600 68.500,20.800 68.100,20.000 67.700,19.200 67.600,18.900 67.600,18.600 67.700,18.300 67.900,18.100 68.300,18.400 68.500,18.500 69.300,19.500 69.900,20.500 70.400,21.700 70.400,21.700 71.200,23.200 71.300,23.100 71.400,23.000 71.500,22.800 71.400,22.600 71.300,22.400 70.900,21.300 70.700,20.800 70.500,20.300 69.600,18.900 70.000,18.700 70.400,18.500 71.600,20.000 72.100,20.800 72.300,21.400 72.500,21.900 72.600,22.500 72.800,22.800 72.800,23.200 72.600,23.500 72.600,23.500 72.600,23.500 72.600,23.500 Z M 47.500,25.700 C 47.267,25.700 47.033,25.700 46.800,25.700 46.900,25.300 46.900,24.900 46.700,24.500 46.533,24.300 46.367,24.100 46.200,23.900 46.633,23.900 47.067,23.900 47.500,23.900 48.000,23.800 48.400,24.200 48.500,24.700 48.500,24.800 48.500,24.800 48.500,24.900 48.400,25.400 48.000,25.800 47.500,25.700 47.500,25.700 47.500,25.700 47.500,25.700 47.500,25.700 47.500,25.700 47.500,25.700 Z M 84.600,16.900 C 84.600,16.267 84.600,15.633 84.600,15.000 83.967,15.000 83.333,15.000 82.700,15.000 82.567,15.633 82.433,16.267 82.300,16.900 74.600,16.900 66.900,16.900 59.200,16.900 57.733,16.033 56.267,15.167 54.800,14.300 53.800,13.033 52.800,11.767 51.800,10.500 51.700,10.300 51.500,10.300 51.300,10.400 51.200,10.600 51.100,10.800 51.200,11.000 52.200,12.267 53.200,13.533 54.200,14.800 55.033,15.300 55.867,15.800 56.700,16.300 52.933,16.300 49.167,16.300 45.400,16.300 44.900,15.800 43.100,14.200 42.800,12.100 42.700,11.900 42.500,11.800 42.300,11.800 42.100,11.800 42.000,12.000 42.000,12.200 42.300,13.800 43.100,15.200 44.300,16.300 40.700,16.300 40.200,16.400 40.000,16.600 39.600,16.867 39.200,17.133 38.800,17.400 34.500,17.500 30.200,17.600 25.900,17.700 25.800,19.133 25.700,20.567 25.600,22.000 25.967,22.000 26.333,22.000 26.700,22.000 26.600,22.400 26.500,23.000 26.100,23.200 25.700,23.400 25.400,23.300 24.900,22.800 24.633,22.633 24.367,22.467 24.100,22.300 23.400,21.800 19.400,23.200 19.400,23.200 20.467,23.700 21.533,24.200 22.600,24.700 22.633,24.700 22.667,24.700 22.700,24.700 26.000,24.600 31.600,24.700 32.400,25.200 32.467,25.200 32.533,25.200 32.600,25.200 33.700,25.200 34.800,24.900 35.800,24.400 36.300,24.100 36.800,23.900 37.400,23.700 37.433,23.700 37.467,23.700 37.500,23.700 40.000,22.800 44.400,23.900 44.400,23.900 44.400,23.900 45.900,24.600 46.000,24.900 46.100,25.200 46.200,25.200 46.100,25.300 44.800,25.900 43.400,26.000 42.000,25.600 41.900,25.600 41.800,25.600 41.700,25.600 41.633,25.700 41.567,25.800 41.500,25.900 41.400,26.300 41.800,26.400 42.200,26.600 42.600,26.800 43.900,27.200 44.100,27.800 44.200,28.000 44.100,28.300 44.000,28.500 44.000,28.700 43.800,28.800 43.700,28.900 42.900,28.600 42.000,28.200 41.300,27.700 41.100,27.600 40.900,27.600 40.800,27.800 40.700,28.000 40.700,28.200 40.900,28.300 41.700,28.800 42.500,29.400 43.200,30.000 43.200,30.100 43.200,30.300 43.100,30.400 42.933,30.500 42.767,30.600 42.600,30.700 42.100,30.800 41.200,30.100 40.900,29.900 40.600,29.700 40.500,29.500 40.200,29.800 39.900,30.100 40.500,30.500 40.500,30.500 40.500,30.500 40.500,30.500 40.500,30.500 41.400,31.400 42.400,32.100 42.100,32.400 41.800,32.700 41.600,33.000 39.800,32.100 38.000,31.200 38.900,32.100 38.100,32.300 37.400,32.600 36.600,32.700 35.900,32.600 35.500,32.600 35.000,32.400 34.700,32.100 34.400,31.800 34.000,31.600 33.600,31.600 33.200,31.600 32.900,31.700 32.600,31.900 32.500,32.100 32.400,32.200 32.400,32.400 32.400,32.600 28.200,33.100 26.400,32.500 25.600,32.200 24.800,32.200 24.000,32.400 22.900,32.600 21.900,32.700 20.800,32.800 19.367,32.700 17.933,32.600 16.500,32.500 15.700,32.400 14.900,32.300 14.100,32.200 13.900,32.200 13.800,32.400 13.800,32.600 13.800,32.800 13.900,33.000 14.100,33.000 14.867,33.067 15.633,33.133 16.400,33.200 17.767,33.300 19.133,33.400 20.500,33.500 21.700,33.500 23.000,33.400 24.200,33.100 24.800,32.900 25.000,32.900 26.100,33.300 27.200,33.700 32.700,33.100 32.900,33.100 33.033,33.100 33.167,33.100 33.300,33.100 33.300,33.100 33.300,31.800 34.300,32.800 35.800,33.500 37.300,34.100 38.800,34.500 39.400,34.300 39.800,33.700 39.800,33.100 41.500,33.800 42.000,33.700 42.700,33.000 42.900,32.800 42.900,32.600 42.900,32.300 42.900,32.000 42.700,31.700 42.500,31.500 42.600,31.500 42.700,31.500 42.800,31.500 43.200,31.400 43.500,31.200 43.700,30.900 43.900,30.600 44.000,30.300 44.000,29.900 43.900,29.800 43.900,29.800 43.900,29.700 43.900,29.600 44.500,29.300 44.700,29.000 44.900,28.600 45.000,28.100 44.800,27.700 44.700,27.500 44.600,27.200 44.400,27.000 45.367,27.000 46.333,27.000 47.300,27.000 48.000,27.100 48.700,26.800 49.200,26.300 49.200,26.300 49.200,26.300 49.200,26.300 49.200,26.433 49.200,26.567 49.200,26.700 49.400,26.700 49.600,26.700 49.800,26.700 49.800,26.967 49.800,27.233 49.800,27.500 49.800,27.500 49.800,27.500 49.800,27.500 49.800,31.900 49.700,36.200 49.700,40.300 49.700,40.500 49.900,40.700 50.100,40.700 50.100,40.700 50.100,40.700 50.100,40.700 51.400,40.700 52.700,40.700 54.000,40.700 54.100,40.700 54.100,40.600 54.100,40.500 54.100,36.200 54.200,31.900 54.200,27.600 54.200,27.600 54.200,27.600 54.200,27.600 54.200,27.333 54.200,27.067 54.200,26.800 54.400,26.800 54.600,26.800 54.800,26.800 54.800,26.067 54.800,25.333 54.800,24.600 57.200,25.400 59.800,25.300 62.100,24.300 62.300,24.400 62.500,24.500 62.700,24.600 64.900,25.900 66.800,26.900 67.900,26.900 68.033,26.900 68.167,26.900 68.300,26.900 69.300,26.400 70.200,25.800 71.100,25.100 71.200,25.000 71.300,24.900 71.400,24.800 72.100,24.800 72.700,24.400 73.100,23.900 73.400,23.400 73.500,22.800 73.200,22.300 73.200,22.100 73.100,22.000 73.100,21.800 74.867,21.667 76.633,21.533 78.400,21.400 78.833,21.400 79.267,21.400 79.700,21.400 79.700,21.300 79.700,21.200 79.700,21.100 79.800,20.300 80.300,19.600 81.000,19.200 82.567,19.200 84.133,19.200 85.700,19.200 85.700,18.433 85.700,17.667 85.700,16.900 85.333,16.900 84.967,16.900 84.600,16.900 84.600,16.900 84.600,16.900 84.600,16.900 Z " />
</svg>