<?xml version="1.0" encoding="UTF-8" standalone="no"?>
<!DOCTYPE svg PUBLIC "-//W3C//DTD SVG 20010904//EN" "http://www.w3.org/TR/2001/REC-SVG-20010904/DTD/svg10.dtd"[]>
<svg version="1.1" xmlns="http://www.w3.org/2000/svg" d1p1:xlink="http://www.w3.org/1999/xlink" viewBox="0 0 100 50" xmlns:d1p1="xmlns">
  <path stroke="none" fill="#f0f0f0" d="M 54.200,20.900 C 53.900,18.900 53.600,16.900 53.300,14.900 53.100,14.900 52.900,14.900 52.700,14.900 52.400,16.900 52.100,18.900 51.800,20.900 51.800,21.467 51.800,22.033 51.800,22.600 52.600,22.600 53.400,22.600 54.200,22.600 54.200,22.033 54.200,21.467 54.200,20.900 Z " />
  <path stroke="none" fill="#f0f0f0" d="M 50.900,35.200 C 52.300,35.200 53.700,35.200 55.100,35.200 55.100,35.033 55.100,34.867 55.100,34.700 55.000,34.700 54.900,34.700 54.800,34.700 54.800,32.300 54.800,29.900 54.800,27.500 54.800,26.933 54.800,26.367 54.800,25.800 54.600,25.367 54.400,24.933 54.200,24.500 54.200,24.067 54.200,23.633 54.200,23.200 53.400,23.200 52.600,23.200 51.800,23.200 51.800,23.633 51.800,24.067 51.800,24.500 51.600,24.933 51.400,25.367 51.200,25.800 51.200,26.367 51.200,26.933 51.200,27.500 51.233,29.900 51.267,32.300 51.300,34.700 51.167,34.700 51.033,34.700 50.900,34.700 50.900,34.867 50.900,35.033 50.900,35.200 Z " />
  <path stroke="none" fill="#f0f0f0" d="M 59.500,22.600 C 59.500,22.033 59.500,21.467 59.500,20.900 59.200,18.900 58.900,16.900 58.600,14.900 58.400,14.900 58.200,14.900 58.000,14.900 57.700,16.900 57.400,18.900 57.100,20.900 57.100,21.467 57.100,22.033 57.100,22.600 57.900,22.600 58.700,22.600 59.500,22.600 Z " />
  <path stroke="none" fill="#f0f0f0" d="M 60.100,34.700 C 60.100,32.300 60.100,29.900 60.100,27.500 60.100,26.933 60.100,26.367 60.100,25.800 59.900,25.367 59.700,24.933 59.500,24.500 59.500,24.067 59.500,23.633 59.500,23.200 58.700,23.200 57.900,23.200 57.100,23.200 57.100,23.633 57.100,24.067 57.100,24.500 56.900,24.933 56.700,25.367 56.500,25.800 56.500,26.367 56.500,26.933 56.500,27.500 56.500,29.900 56.500,32.300 56.500,34.700 56.400,34.700 56.300,34.700 56.200,34.700 56.200,34.867 56.200,35.033 56.200,35.200 57.600,35.200 59.000,35.200 60.400,35.200 60.400,35.033 60.400,34.867 60.400,34.700 60.300,34.700 60.200,34.700 60.100,34.700 Z " />
  <path stroke="none" fill="#f0f0f0" d="M 64.800,20.900 C 64.500,18.900 64.200,16.900 63.900,14.900 63.700,14.900 63.500,14.900 63.300,14.900 63.000,16.900 62.700,18.900 62.400,20.900 62.400,21.467 62.400,22.033 62.400,22.600 63.200,22.600 64.000,22.600 64.800,22.600 64.800,22.033 64.800,21.467 64.800,20.900 Z " />
  <path stroke="none" fill="#f0f0f0" d="M 65.700,34.600 C 65.600,34.600 65.500,34.600 65.400,34.600 65.400,32.233 65.400,29.867 65.400,27.500 65.400,26.933 65.400,26.367 65.400,25.800 65.200,25.367 65.000,24.933 64.800,24.500 64.800,24.067 64.800,23.633 64.800,23.200 64.000,23.200 63.200,23.200 62.400,23.200 62.400,23.633 62.400,24.067 62.400,24.500 62.200,24.933 62.000,25.367 61.800,25.800 61.800,26.367 61.800,26.933 61.800,27.500 61.800,29.900 61.800,32.300 61.800,34.700 61.700,34.700 61.600,34.700 61.500,34.700 61.500,34.867 61.500,35.033 61.500,35.200 62.900,35.200 64.300,35.200 65.700,35.200 65.700,35.000 65.700,34.800 65.700,34.600 Z " />
  <path stroke="none" fill="#f0f0f0" d="M 62.200,9.000 C 62.833,8.733 63.467,8.467 64.100,8.200 64.300,8.200 64.500,8.000 64.500,7.800 64.500,7.700 64.500,7.700 64.400,7.600 64.300,7.300 64.000,7.200 63.800,7.300 63.800,7.300 63.700,7.300 63.700,7.300 62.433,7.833 61.167,8.367 59.900,8.900 60.767,10.000 61.633,11.100 62.500,12.200 62.633,12.267 62.767,12.333 62.900,12.400 63.000,12.400 63.100,12.400 63.200,12.400 63.400,12.200 63.400,11.900 63.200,11.700 62.800,11.133 62.400,10.567 62.000,10.000 70.300,11.900 75.500,20.200 73.500,28.500 72.100,34.400 67.500,38.900 61.600,40.100 61.667,40.433 61.733,40.767 61.800,41.100 70.700,39.100 76.300,30.300 74.300,21.400 72.900,15.300 68.200,10.500 62.200,9.000 62.200,9.000 62.200,9.000 62.200,9.000 Z " />
  <path stroke="none" fill="#f0f0f0" d="M 53.400,37.900 C 53.200,38.100 53.100,38.400 53.300,38.600 53.300,38.600 53.300,38.600 53.300,38.600 53.667,39.067 54.033,39.533 54.400,40.000 46.100,38.000 41.100,29.700 43.100,21.400 44.500,15.500 49.300,11.000 55.200,9.900 55.133,9.567 55.067,9.233 55.000,8.900 46.100,10.600 40.300,19.200 42.000,28.100 43.200,34.500 48.100,39.600 54.500,41.000 53.800,41.300 53.100,41.600 52.400,41.900 52.100,42.000 52.000,42.300 52.100,42.500 52.100,42.500 52.100,42.600 52.100,42.600 52.200,42.800 52.400,42.900 52.600,42.900 52.667,42.900 52.733,42.900 52.800,42.900 54.067,42.367 55.333,41.833 56.600,41.300 55.767,40.200 54.933,39.100 54.100,38.000 54.000,37.800 53.800,37.700 53.600,37.800 53.500,37.800 53.400,37.800 53.400,37.900 53.400,37.900 53.400,37.900 53.400,37.900 Z " />
  <path stroke="none" fill="#f0f0f0" d="M 38.600,15.400 C 32.933,15.733 27.267,16.067 21.600,16.400 27.267,16.733 32.933,17.067 38.600,17.400 38.600,16.733 38.600,16.067 38.600,15.400 Z " />
  <path stroke="none" fill="#f0f0f0" d="M 36.800,23.900 C 31.133,24.233 25.467,24.567 19.800,24.900 25.467,25.233 31.133,25.567 36.800,25.900 36.800,25.233 36.800,24.567 36.800,23.900 Z " />
  <path stroke="none" fill="#f0f0f0" d="M 39.000,33.900 C 39.000,33.233 39.000,32.567 39.000,31.900 33.333,32.233 27.667,32.567 22.000,32.900 27.667,33.233 33.333,33.567 39.000,33.900 Z " />
</svg>