<?xml version="1.0" encoding="UTF-8" standalone="no"?>
<!DOCTYPE svg PUBLIC "-//W3C//DTD SVG 20010904//EN" "http://www.w3.org/TR/2001/REC-SVG-20010904/DTD/svg10.dtd"[]>
<svg version="1.1" xmlns="http://www.w3.org/2000/svg" d1p1:xlink="http://www.w3.org/1999/xlink" viewBox="0 0 100 50" xmlns:d1p1="xmlns">
  <path stroke="none" fill="#f0f0f0" d="M 89.800,21.900 C 78.467,21.900 67.133,21.900 55.800,21.900 55.800,24.000 55.800,26.100 55.800,28.200 67.133,28.100 78.467,28.000 89.800,27.900 89.933,27.600 90.067,27.300 90.200,27.000 90.200,25.500 90.200,24.000 90.200,22.500 90.067,22.300 89.933,22.100 89.800,21.900 89.800,21.900 89.800,21.900 89.800,21.900 Z " />
  <path stroke="none" fill="#f0f0f0" d="M 50.900,21.500 C 50.900,21.500 50.900,21.500 50.900,21.500 50.900,23.867 50.900,26.233 50.900,28.600 50.767,28.900 50.633,29.200 50.500,29.500 38.933,29.500 27.367,29.500 15.800,29.500 15.800,26.500 15.800,23.500 15.800,20.500 27.333,20.467 38.867,20.433 50.400,20.400 50.567,20.767 50.733,21.133 50.900,21.500 50.900,21.500 50.900,21.500 50.900,21.500 Z " />
  <path stroke="none" fill="#f0f0f0" d="M 54.200,21.900 C 54.200,24.000 54.200,26.100 54.200,28.200 54.000,28.333 53.800,28.467 53.600,28.600 52.867,28.600 52.133,28.600 51.400,28.600 51.400,26.200 51.400,23.800 51.400,21.400 52.133,21.400 52.867,21.400 53.600,21.400 53.800,21.567 54.000,21.733 54.200,21.900 54.200,21.900 54.200,21.900 54.200,21.900 Z " />
  <path stroke="none" fill="#f0f0f0" d="M 9.500,19.000 C 9.500,22.967 9.500,26.933 9.500,30.900 9.633,31.067 9.767,31.233 9.900,31.400 10.633,31.400 11.367,31.400 12.100,31.400 12.567,30.833 13.033,30.267 13.500,29.700 13.500,26.633 13.500,23.567 13.500,20.500 13.467,20.500 13.433,20.500 13.400,20.500 12.967,19.867 12.533,19.233 12.100,18.600 11.367,18.600 10.633,18.600 9.900,18.600 9.767,18.733 9.633,18.867 9.500,19.000 9.500,19.000 9.500,19.000 9.500,19.000 Z " />
</svg>