<?xml version="1.0" encoding="UTF-8" standalone="no"?>
<!DOCTYPE svg PUBLIC "-//W3C//DTD SVG 20010904//EN" "http://www.w3.org/TR/2001/REC-SVG-20010904/DTD/svg10.dtd"[]>
<svg version="1.1" xmlns="http://www.w3.org/2000/svg" d1p1:xlink="http://www.w3.org/1999/xlink" viewBox="0 0 100 50" xmlns:d1p1="xmlns">
  <path stroke="none" fill="#f0f0f0" d="M 59.900,34.800 C 58.400,32.600 56.900,30.400 55.400,28.200 55.567,28.067 55.733,27.933 55.900,27.800 55.300,26.967 54.700,26.133 54.100,25.300 53.767,25.533 53.433,25.767 53.100,26.000 52.200,26.000 51.300,26.000 50.400,26.000 50.400,25.267 50.400,24.533 50.400,23.800 52.733,23.800 55.067,23.800 57.400,23.800 57.600,23.800 57.700,23.600 57.700,23.400 57.700,23.200 57.600,23.000 57.400,23.000 55.067,23.000 52.733,23.000 50.400,23.000 50.400,20.667 50.400,18.333 50.400,16.000 50.400,15.800 50.200,15.600 50.000,15.600 49.800,15.600 49.600,15.800 49.600,16.000 49.600,16.000 49.600,16.000 49.600,16.000 49.600,18.333 49.600,20.667 49.600,23.000 47.267,23.000 44.933,23.000 42.600,23.000 42.400,23.000 42.200,23.200 42.200,23.400 42.200,23.600 42.400,23.800 42.600,23.800 44.933,23.800 47.267,23.800 49.600,23.800 49.600,24.533 49.600,25.267 49.600,26.000 48.667,26.000 47.733,26.000 46.800,26.000 46.467,25.767 46.133,25.533 45.800,25.300 45.200,26.133 44.600,26.967 44.000,27.800 44.167,27.933 44.333,28.067 44.500,28.200 43.033,30.333 41.567,32.467 40.100,34.600 37.200,32.000 35.400,28.400 35.100,24.500 35.833,24.500 36.567,24.500 37.300,24.500 37.800,24.500 38.300,24.000 38.300,23.500 38.300,22.900 37.900,22.500 37.300,22.500 36.600,22.500 35.900,22.500 35.200,22.500 35.600,15.000 41.600,9.000 49.100,8.600 49.100,9.167 49.100,9.733 49.100,10.300 49.100,10.900 49.500,11.300 50.100,11.300 50.600,11.400 51.000,11.000 51.100,10.500 51.100,10.400 51.100,10.400 51.100,10.300 51.100,9.733 51.100,9.167 51.100,8.600 58.600,9.100 64.600,15.000 65.100,22.500 64.333,22.500 63.567,22.500 62.800,22.500 62.300,22.500 61.800,23.000 61.800,23.500 61.800,24.100 62.200,24.500 62.800,24.500 63.567,24.500 64.333,24.500 65.100,24.500 64.800,28.500 63.000,32.200 59.900,34.800 59.900,34.800 59.900,34.800 59.900,34.800 Z M 50.100,38.500 C 47.100,38.500 44.100,37.600 41.600,35.900 43.100,33.700 44.600,31.500 46.100,29.300 46.233,29.400 46.367,29.500 46.500,29.600 46.867,29.133 47.233,28.667 47.600,28.200 48.200,28.200 48.800,28.200 49.400,28.200 49.400,28.300 49.400,28.400 49.400,28.500 49.267,28.500 49.133,28.500 49.000,28.500 48.700,28.500 48.500,28.700 48.500,29.000 48.500,29.067 48.500,29.133 48.500,29.200 48.500,29.500 48.700,29.700 49.000,29.700 49.200,29.700 49.400,29.700 49.600,29.700 49.600,30.067 49.600,30.433 49.600,30.800 49.600,31.000 49.800,31.200 50.000,31.200 50.200,31.200 50.400,31.000 50.400,30.800 50.400,30.433 50.400,30.067 50.400,29.700 50.633,29.700 50.867,29.700 51.100,29.700 51.400,29.700 51.600,29.500 51.600,29.200 51.600,29.133 51.600,29.067 51.600,29.000 51.600,28.700 51.400,28.500 51.100,28.500 50.933,28.500 50.767,28.500 50.600,28.500 50.600,28.400 50.600,28.300 50.600,28.200 51.167,28.200 51.733,28.200 52.300,28.200 52.667,28.667 53.033,29.133 53.400,29.600 53.533,29.500 53.667,29.400 53.800,29.300 55.333,31.533 56.867,33.767 58.400,36.000 55.900,37.600 53.100,38.500 50.100,38.500 50.100,38.500 50.100,38.500 50.100,38.500 Z M 70.800,22.500 C 69.233,22.500 67.667,22.500 66.100,22.500 65.600,14.500 59.100,8.100 51.100,7.600 51.100,6.733 51.100,5.867 51.100,5.000 51.100,4.400 50.700,4.000 50.100,4.000 49.600,4.000 49.100,4.500 49.100,5.000 49.100,5.867 49.100,6.733 49.100,7.600 41.100,8.100 34.700,14.500 34.200,22.500 32.567,22.500 30.933,22.500 29.300,22.500 28.700,22.500 28.300,22.900 28.300,23.500 28.300,24.000 28.800,24.500 29.300,24.500 30.900,24.500 32.500,24.500 34.100,24.500 34.400,28.700 36.300,32.700 39.500,35.500 38.733,36.600 37.967,37.700 37.200,38.800 36.800,38.700 36.400,38.900 36.100,39.200 35.533,40.067 34.967,40.933 34.400,41.800 34.100,42.100 34.100,42.700 34.400,43.000 34.100,43.000 33.800,43.000 33.500,43.000 33.500,43.767 33.500,44.533 33.500,45.300 35.000,45.300 36.500,45.300 38.000,45.300 38.000,44.533 38.000,43.767 38.000,43.000 37.833,43.000 37.667,43.000 37.500,43.000 37.967,42.367 38.433,41.733 38.900,41.100 39.100,40.700 39.100,40.300 38.900,39.900 39.633,38.833 40.367,37.767 41.100,36.700 43.700,38.500 46.900,39.500 50.100,39.500 53.200,39.500 56.300,38.600 58.900,36.900 59.600,37.900 60.300,38.900 61.000,39.900 60.800,40.300 60.800,40.700 61.000,41.100 61.467,41.733 61.933,42.367 62.400,43.000 62.233,43.000 62.067,43.000 61.900,43.000 61.900,43.767 61.900,44.533 61.900,45.300 63.400,45.300 64.900,45.300 66.400,45.300 66.400,44.533 66.400,43.767 66.400,43.000 66.100,43.000 65.800,43.000 65.500,43.000 65.800,42.700 65.800,42.100 65.500,41.800 64.933,40.933 64.367,40.067 63.800,39.200 63.500,38.900 63.100,38.700 62.700,38.800 61.967,37.733 61.233,36.667 60.500,35.600 63.800,32.800 65.800,28.800 66.100,24.500 67.667,24.500 69.233,24.500 70.800,24.500 71.400,24.500 71.800,24.100 71.800,23.500 71.800,23.000 71.300,22.500 70.800,22.500 70.800,22.500 70.800,22.500 70.800,22.500 Z " />
</svg>