<?xml version="1.0" encoding="UTF-8" standalone="no"?>
<!DOCTYPE svg PUBLIC "-//W3C//DTD SVG 20010904//EN" "http://www.w3.org/TR/2001/REC-SVG-20010904/DTD/svg10.dtd"[]>
<svg version="1.1" xmlns="http://www.w3.org/2000/svg" d1p1:xlink="http://www.w3.org/1999/xlink" viewBox="0 0 100 50" xmlns:d1p1="xmlns">
  <path stroke="none" fill="#f0f0f0" d="M 50.000,28.700 C 49.400,28.700 48.900,28.600 48.400,28.300 48.900,27.900 49.300,27.300 49.300,26.600 49.300,25.500 48.400,24.500 47.200,24.500 46.800,24.500 46.500,24.600 46.200,24.800 46.300,22.800 47.900,21.200 49.900,21.200 52.000,21.200 53.600,22.900 53.600,24.900 53.600,26.900 52.100,28.700 50.000,28.700 50.000,28.700 50.000,28.700 50.000,28.700 Z M 50.000,20.300 C 47.400,20.300 45.300,22.400 45.300,25.000 45.300,25.300 45.300,25.600 45.400,25.900 45.300,26.100 45.200,26.400 45.200,26.700 45.200,27.800 46.000,28.700 47.100,28.700 47.900,29.300 48.900,29.700 50.000,29.700 52.600,29.700 54.700,27.600 54.700,25.000 54.700,22.400 52.600,20.300 50.000,20.300 50.000,20.300 50.000,20.300 50.000,20.300 Z " />
  <path stroke="none" fill="#f0f0f0" d="M 59.600,25.000 C 59.600,28.700 57.500,31.900 54.400,33.500 54.000,33.100 53.500,32.900 52.900,32.900 51.900,32.900 51.100,33.600 50.900,34.500 50.600,34.500 50.300,34.500 50.000,34.500 44.700,34.500 40.400,30.200 40.400,24.900 40.400,19.600 44.700,15.300 50.000,15.300 51.900,15.300 53.700,15.900 55.200,16.800 55.200,16.900 55.200,16.900 55.200,17.000 55.200,18.100 56.100,19.100 57.300,19.100 57.400,19.100 57.500,19.100 57.600,19.100 58.800,20.700 59.600,22.800 59.600,25.000 59.600,25.000 59.600,25.000 59.600,25.000 Z M 59.300,17.100 C 59.300,16.000 58.400,15.000 57.200,15.000 56.400,15.000 55.700,15.500 55.400,16.200 53.800,15.200 52.000,14.700 50.000,14.700 44.300,14.700 39.700,19.300 39.700,25.000 39.700,25.400 39.700,25.700 39.800,26.100 39.400,25.500 38.800,25.100 38.100,25.100 37.000,25.100 36.000,26.000 36.000,27.200 36.000,28.400 36.900,29.300 38.100,29.300 39.100,29.300 39.900,28.600 40.100,27.600 41.200,32.100 45.300,35.400 50.100,35.400 50.400,35.400 50.700,35.400 51.000,35.400 51.200,36.400 52.000,37.100 53.000,37.100 54.000,37.000 55.000,36.100 55.000,35.000 55.000,34.700 54.900,34.400 54.800,34.200 58.100,32.500 60.400,29.000 60.400,25.000 60.400,22.700 59.600,20.600 58.400,18.800 58.900,18.500 59.300,17.800 59.300,17.100 59.300,17.100 59.300,17.100 59.300,17.100 Z " />
  <path stroke="none" fill="#f0f0f0" d="M 55.200,25.900 C 55.200,27.000 56.100,28.000 57.300,28.000 58.500,28.000 59.400,27.100 59.400,25.900 59.400,24.700 58.500,23.800 57.300,23.800 56.100,23.800 55.200,24.800 55.200,25.900 55.200,25.900 55.200,25.900 55.200,25.900 Z " />
  <path stroke="none" fill="#f0f0f0" d="M 48.400,19.200 C 48.400,20.360 47.460,21.300 46.300,21.300 45.140,21.300 44.200,20.360 44.200,19.200 44.200,18.040 45.140,17.100 46.300,17.100 47.460,17.100 48.400,18.040 48.400,19.200 48.400,19.200 48.400,19.200 48.400,19.200 Z " />
  <path stroke="none" fill="#f0f0f0" d="M 44.300,34.600 C 43.200,34.600 42.200,35.500 42.200,36.700 42.200,37.800 43.100,38.800 44.300,38.800 45.400,38.800 46.400,37.900 46.400,36.700 46.300,35.500 45.400,34.600 44.300,34.600 44.300,34.600 44.300,34.600 44.300,34.600 Z " />
  <path stroke="none" fill="#f0f0f0" d="M 50.000,40.500 C 41.400,40.500 34.500,33.500 34.500,25.000 34.500,19.300 37.600,14.300 42.300,11.600 42.500,12.500 43.300,13.200 44.300,13.200 45.400,13.200 46.400,12.300 46.400,11.100 46.400,10.700 46.300,10.300 46.100,10.000 47.400,9.700 48.700,9.500 50.100,9.500 57.200,9.500 63.200,14.300 65.100,20.900 64.900,20.800 64.700,20.800 64.400,20.800 63.300,20.800 62.300,21.700 62.300,22.900 62.300,24.000 63.200,25.000 64.400,25.000 64.800,25.000 65.300,24.900 65.600,24.600 65.600,24.800 65.600,24.900 65.600,25.100 65.500,33.600 58.600,40.500 50.000,40.500 50.000,40.500 50.000,40.500 50.000,40.500 Z M 65.900,21.600 C 64.300,14.200 57.800,8.700 50.000,8.700 48.400,8.700 46.800,8.900 45.300,9.400 45.000,9.200 44.600,9.100 44.200,9.100 43.200,9.100 42.400,9.800 42.200,10.700 37.100,13.500 33.700,18.800 33.700,25.000 33.700,34.000 41.000,41.300 50.000,41.300 59.000,41.300 66.300,34.000 66.300,25.000 66.300,24.500 66.300,24.100 66.200,23.600 66.300,23.400 66.400,23.100 66.400,22.800 66.400,22.300 66.200,21.900 65.900,21.600 65.900,21.600 65.900,21.600 65.900,21.600 Z " />
  <path stroke="none" fill="#f0f0f0" d="M 50.000,46.300 C 38.300,46.300 28.700,36.800 28.700,25.000 28.700,13.200 38.300,3.700 50.000,3.700 61.700,3.700 71.300,13.300 71.300,25.000 71.300,36.700 61.700,46.300 50.000,46.300 50.000,46.300 50.000,46.300 50.000,46.300 Z M 79.300,17.600 C 78.700,17.000 77.800,17.000 77.200,17.600 76.600,18.200 76.600,19.100 77.200,19.700 78.333,20.833 79.467,21.967 80.600,23.100 77.733,23.100 74.867,23.100 72.000,23.100 71.000,11.800 61.500,3.000 50.000,3.000 38.500,3.000 29.000,11.900 28.100,23.100 25.233,23.100 22.367,23.100 19.500,23.100 20.633,21.967 21.767,20.833 22.900,19.700 23.500,19.100 23.500,18.200 22.900,17.600 22.300,17.000 21.400,17.000 20.800,17.600 18.467,19.933 16.133,22.267 13.800,24.600 16.133,26.933 18.467,29.267 20.800,31.600 21.100,31.900 21.500,32.000 21.900,32.000 22.300,32.000 22.700,31.900 23.000,31.600 23.600,31.000 23.600,30.100 23.000,29.500 21.867,28.367 20.733,27.233 19.600,26.100 22.400,26.100 25.200,26.100 28.000,26.100 28.600,37.700 38.200,47.000 50.000,47.000 61.800,47.000 71.400,37.700 72.000,26.100 74.833,26.100 77.667,26.100 80.500,26.100 79.367,27.233 78.233,28.367 77.100,29.500 76.500,30.100 76.500,31.000 77.100,31.600 77.400,31.900 77.800,32.000 78.200,32.000 78.600,32.000 79.000,31.900 79.300,31.600 81.633,29.267 83.967,26.933 86.300,24.600 83.967,22.267 81.633,19.933 79.300,17.600 79.300,17.600 79.300,17.600 79.300,17.600 Z " />
</svg>