<?xml version="1.0" encoding="UTF-8" standalone="no"?>
<!DOCTYPE svg PUBLIC "-//W3C//DTD SVG 20010904//EN" "http://www.w3.org/TR/2001/REC-SVG-20010904/DTD/svg10.dtd"[]>
<svg version="1.1" xmlns="http://www.w3.org/2000/svg" d1p1:xlink="http://www.w3.org/1999/xlink" viewBox="0 0 100 50" xmlns:d1p1="xmlns">
  <path stroke="none" fill="#f0f0f0" d="M 46.200,38.500 C 49.200,36.200 49.900,36.000 52.000,32.900 52.133,32.767 52.267,32.633 52.400,32.500 53.200,31.700 54.100,31.000 55.100,30.400 54.700,28.100 53.600,27.100 51.500,26.800 49.400,26.500 50.200,28.800 49.500,29.600 48.800,30.400 49.200,29.900 49.100,30.000 46.000,32.100 45.700,32.600 43.400,35.600 42.800,36.400 42.100,37.100 41.200,37.500 40.300,37.800 39.700,38.700 39.800,39.700 40.667,40.533 41.533,41.367 42.400,42.200 43.200,42.300 44.000,42.000 44.600,40.700 45.000,39.900 45.500,39.100 46.200,38.500 46.200,38.500 46.200,38.500 46.200,38.500 Z " />
  <path stroke="none" fill="#f0f0f0" d="M 54.200,25.100 C 55.100,25.700 56.400,25.500 57.000,24.600 57.000,24.600 57.000,24.600 57.000,24.600 62.533,19.233 68.067,13.867 73.600,8.500 68.400,13.700 62.200,20.300 57.300,25.000 56.500,25.800 56.400,27.000 57.000,27.900 63.100,21.200 70.100,15.400 74.900,7.700 75.167,7.267 75.433,6.833 75.700,6.400 75.700,6.400 75.700,6.400 75.700,6.400 76.000,6.100 74.400,7.200 74.400,7.200 66.800,12.100 60.900,19.000 54.200,25.100 54.200,25.100 54.200,25.100 54.200,25.100 Z " />
  <path stroke="none" fill="#f0f0f0" d="M 50.900,25.500 C 52.100,25.700 52.900,26.800 54.000,27.100 54.500,27.200 54.800,27.600 55.000,28.000 55.300,29.100 56.300,30.000 56.500,31.100 56.667,31.033 56.833,30.967 57.000,30.900 57.100,29.800 56.300,28.900 56.200,27.900 56.200,26.800 55.300,25.900 54.200,25.800 53.300,25.800 52.300,24.900 51.100,25.000 51.033,25.167 50.967,25.333 50.900,25.500 50.900,25.500 50.900,25.500 50.900,25.500 Z " />
  <path stroke="none" fill="#f0f0f0" d="M 55.900,16.500 C 50.233,16.167 44.567,15.833 38.900,15.500 38.900,15.500 38.900,15.500 38.900,15.500 44.567,15.167 50.233,14.833 55.900,14.500 55.900,15.167 55.900,15.833 55.900,16.500 Z " />
  <path stroke="none" fill="#f0f0f0" d="M 47.400,25.000 C 41.733,24.667 36.067,24.333 30.400,24.000 30.400,24.000 30.400,24.000 30.400,24.000 36.067,23.667 41.733,23.333 47.400,23.000 47.400,23.667 47.400,24.333 47.400,25.000 Z " />
  <path stroke="none" fill="#f0f0f0" d="M 39.500,32.900 C 33.833,32.567 28.167,32.233 22.500,31.900 22.500,31.900 22.500,31.900 22.500,31.900 28.167,31.567 33.833,31.233 39.500,30.900 39.500,31.567 39.500,32.233 39.500,32.900 Z " />
</svg>