<?xml version="1.0" encoding="UTF-8" standalone="no"?>
<!DOCTYPE svg PUBLIC "-//W3C//DTD SVG 20010904//EN" "http://www.w3.org/TR/2001/REC-SVG-20010904/DTD/svg10.dtd"[]>
<svg version="1.1" xmlns="http://www.w3.org/2000/svg" d1p1:xlink="http://www.w3.org/1999/xlink" viewBox="0 0 100 50" xmlns:d1p1="xmlns">
  <path stroke="none" fill="#f0f0f0" d="M 44.200,24.900 C 41.733,25.233 39.267,25.567 36.800,25.900 36.800,26.167 36.800,26.433 36.800,26.700 39.267,27.033 41.733,27.367 44.200,27.700 44.900,27.700 45.600,27.700 46.300,27.700 46.300,26.767 46.300,25.833 46.300,24.900 45.600,24.900 44.900,24.900 44.200,24.900 Z " />
  <path stroke="none" fill="#f0f0f0" d="M 61.100,23.700 C 61.100,23.833 61.100,23.967 61.100,24.100 58.167,24.100 55.233,24.100 52.300,24.100 51.633,24.100 50.967,24.100 50.300,24.100 49.767,24.367 49.233,24.633 48.700,24.900 48.133,24.900 47.567,24.900 47.000,24.900 47.000,25.833 47.000,26.767 47.000,27.700 47.567,27.700 48.133,27.700 48.700,27.700 49.233,27.967 49.767,28.233 50.300,28.500 50.967,28.500 51.633,28.500 52.300,28.500 55.233,28.500 58.167,28.500 61.100,28.500 61.100,28.633 61.100,28.767 61.100,28.900 61.333,28.900 61.567,28.900 61.800,28.900 61.800,27.167 61.800,25.433 61.800,23.700 61.567,23.700 61.333,23.700 61.100,23.700 Z " />
  <path stroke="none" fill="#f0f0f0" d="M 46.300,21.300 C 46.300,20.333 46.300,19.367 46.300,18.400 45.600,18.400 44.900,18.400 44.200,18.400 41.733,18.767 39.267,19.133 36.800,19.500 36.800,19.733 36.800,19.967 36.800,20.200 39.267,20.567 41.733,20.933 44.200,21.300 44.900,21.300 45.600,21.300 46.300,21.300 Z " />
  <path stroke="none" fill="#f0f0f0" d="M 50.300,22.000 C 50.967,22.000 51.633,22.000 52.300,22.000 55.233,22.000 58.167,22.000 61.100,22.000 61.100,22.133 61.100,22.267 61.100,22.400 61.333,22.400 61.567,22.400 61.800,22.400 61.800,20.700 61.800,19.000 61.800,17.300 61.567,17.300 61.333,17.300 61.100,17.300 61.100,17.400 61.100,17.500 61.100,17.600 58.167,17.600 55.233,17.600 52.300,17.600 51.633,17.600 50.967,17.600 50.300,17.600 49.767,17.867 49.233,18.133 48.700,18.400 48.133,18.400 47.567,18.400 47.000,18.400 47.000,19.367 47.000,20.333 47.000,21.300 47.567,21.300 48.133,21.300 48.700,21.300 49.233,21.533 49.767,21.767 50.300,22.000 Z " />
  <path stroke="none" fill="#f0f0f0" d="M 46.300,14.800 C 46.300,13.833 46.300,12.867 46.300,11.900 45.600,11.900 44.900,11.900 44.200,11.900 41.733,12.267 39.267,12.633 36.800,13.000 36.800,13.233 36.800,13.467 36.800,13.700 39.267,14.067 41.733,14.433 44.200,14.800 44.900,14.800 45.600,14.800 46.300,14.800 Z " />
  <path stroke="none" fill="#f0f0f0" d="M 50.300,15.500 C 50.967,15.500 51.633,15.500 52.300,15.500 55.233,15.500 58.167,15.500 61.100,15.500 61.100,15.633 61.100,15.767 61.100,15.900 61.333,15.900 61.567,15.900 61.800,15.900 61.800,14.200 61.800,12.500 61.800,10.800 61.567,10.800 61.333,10.800 61.100,10.800 61.100,10.933 61.100,11.067 61.100,11.200 58.167,11.200 55.233,11.200 52.300,11.200 51.633,11.200 50.967,11.200 50.300,11.200 49.767,11.433 49.233,11.667 48.700,11.900 48.133,11.900 47.567,11.900 47.000,11.900 47.000,12.867 47.000,13.833 47.000,14.800 47.567,14.800 48.133,14.800 48.700,14.800 49.233,15.033 49.767,15.267 50.300,15.500 Z " />
  <path stroke="none" fill="#f0f0f0" d="M 34.700,32.100 C 34.700,23.867 34.700,15.633 34.700,7.400 44.900,7.400 55.100,7.400 65.300,7.400 65.300,15.633 65.300,23.867 65.300,32.100 55.100,32.100 44.900,32.100 34.700,32.100 34.700,32.100 34.700,32.100 34.700,32.100 Z M 66.300,6.400 C 55.433,6.400 44.567,6.400 33.700,6.400 33.700,15.300 33.700,24.200 33.700,33.100 44.567,33.100 55.433,33.100 66.300,33.100 66.300,24.200 66.300,15.300 66.300,6.400 66.300,6.400 66.300,6.400 66.300,6.400 Z " />
  <path stroke="none" fill="#f0f0f0" d="M 50.000,46.200 C 52.767,43.433 55.533,40.667 58.300,37.900 52.767,37.900 47.233,37.900 41.700,37.900 44.500,40.700 47.300,43.600 50.000,46.200 50.000,46.200 50.000,46.200 50.000,46.200 Z " />
</svg>