<?xml version="1.0" encoding="UTF-8" standalone="no"?>
<!DOCTYPE svg PUBLIC "-//W3C//DTD SVG 20010904//EN" "http://www.w3.org/TR/2001/REC-SVG-20010904/DTD/svg10.dtd"[]>
<svg version="1.1" xmlns="http://www.w3.org/2000/svg" d1p1:xlink="http://www.w3.org/1999/xlink" viewBox="0 0 100 50" xmlns:d1p1="xmlns">
  <path stroke="none" fill="#f0f0f0" d="M 54.500,24.400 C 54.033,24.933 53.567,25.467 53.100,26.000 51.000,26.000 48.900,26.000 46.800,26.000 46.367,25.467 45.933,24.933 45.500,24.400 45.500,18.433 45.500,12.467 45.500,6.500 48.500,6.500 51.500,6.500 54.500,6.500 54.500,12.467 54.500,18.433 54.500,24.400 54.500,24.400 54.500,24.400 54.500,24.400 Z M 54.500,37.900 C 53.667,37.900 52.833,37.900 52.000,37.900 52.000,38.867 52.000,39.833 52.000,40.800 50.667,40.800 49.333,40.800 48.000,40.800 48.000,39.833 48.000,38.867 48.000,37.900 47.167,37.900 46.333,37.900 45.500,37.900 45.500,35.300 45.500,32.700 45.500,30.100 45.500,28.600 45.600,27.700 47.300,27.700 49.100,27.700 50.900,27.700 52.700,27.700 54.400,27.700 54.500,28.600 54.500,30.100 54.500,32.700 54.500,35.300 54.500,37.900 54.500,37.900 54.500,37.900 54.500,37.900 Z M 55.600,5.300 C 51.900,5.300 48.200,5.300 44.500,5.300 44.500,17.833 44.500,30.367 44.500,42.900 44.133,42.900 43.767,42.900 43.400,42.900 43.400,43.500 43.400,44.100 43.400,44.700 47.800,44.700 52.200,44.700 56.600,44.700 56.600,44.100 56.600,43.500 56.600,42.900 56.267,42.900 55.933,42.900 55.600,42.900 55.600,30.367 55.600,17.833 55.600,5.300 55.600,5.300 55.600,5.300 55.600,5.300 Z " />
  <path stroke="none" fill="#f0f0f0" d="M 46.700,20.300 C 48.867,20.300 51.033,20.300 53.200,20.300 53.200,21.000 53.200,21.700 53.200,22.400 51.033,22.400 48.867,22.400 46.700,22.400 46.700,21.700 46.700,21.000 46.700,20.300 Z " />
  <path stroke="none" fill="#f0f0f0" d="M 53.200,19.000 C 53.200,19.000 53.200,19.000 53.200,19.000 53.200,16.233 53.200,13.467 53.200,10.700 53.300,9.800 53.000,8.900 52.300,8.300 52.000,8.000 51.600,7.900 51.200,7.900 50.367,7.900 49.533,7.900 48.700,7.900 48.300,7.900 47.900,8.000 47.600,8.300 46.900,8.900 46.600,9.800 46.700,10.700 46.700,13.467 46.700,16.233 46.700,19.000 48.867,19.000 51.033,19.000 53.200,19.000 53.200,19.000 53.200,19.000 53.200,19.000 Z " />
  <path stroke="none" fill="#f0f0f0" d="M 64.900,33.600 C 63.367,33.600 61.833,33.600 60.300,33.600 60.300,27.200 60.300,20.800 60.300,14.400 61.833,14.400 63.367,14.400 64.900,14.400 64.900,20.800 64.900,27.200 64.900,33.600 64.900,33.600 64.900,33.600 64.900,33.600 Z M 65.900,39.700 C 65.900,30.900 65.900,22.100 65.900,13.300 63.700,13.300 61.500,13.300 59.300,13.300 59.300,22.100 59.300,30.900 59.300,39.700 59.100,39.700 58.900,39.700 58.700,39.700 58.700,40.033 58.700,40.367 58.700,40.700 61.300,40.700 63.900,40.700 66.500,40.700 66.500,40.367 66.500,40.033 66.500,39.700 66.300,39.700 66.100,39.700 65.900,39.700 65.900,39.700 65.900,39.700 65.900,39.700 Z " />
  <path stroke="none" fill="#f0f0f0" d="M 39.200,33.600 C 37.667,33.600 36.133,33.600 34.600,33.600 34.600,27.200 34.600,20.800 34.600,14.400 36.133,14.400 37.667,14.400 39.200,14.400 39.200,20.800 39.200,27.200 39.200,33.600 39.200,33.600 39.200,33.600 39.200,33.600 Z M 40.200,13.300 C 38.033,13.300 35.867,13.300 33.700,13.300 33.700,22.100 33.700,30.900 33.700,39.700 33.467,39.700 33.233,39.700 33.000,39.700 33.000,40.033 33.000,40.367 33.000,40.700 35.600,40.700 38.200,40.700 40.800,40.700 40.800,40.367 40.800,40.033 40.800,39.700 40.600,39.700 40.400,39.700 40.200,39.700 40.200,30.900 40.200,22.100 40.200,13.300 40.200,13.300 40.200,13.300 40.200,13.300 Z " />
</svg>