<?xml version="1.0" encoding="UTF-8" standalone="no"?>
<!DOCTYPE svg PUBLIC "-//W3C//DTD SVG 20010904//EN" "http://www.w3.org/TR/2001/REC-SVG-20010904/DTD/svg10.dtd"[]>
<svg version="1.1" xmlns="http://www.w3.org/2000/svg" d1p1:xlink="http://www.w3.org/1999/xlink" viewBox="0 0 100 50" xmlns:d1p1="xmlns">
  <path stroke="none" fill="#f0f0f0" d="M 28.600,22.900 C 28.600,22.333 28.600,21.767 28.600,21.200 28.333,19.267 28.067,17.333 27.800,15.400 27.600,15.400 27.400,15.400 27.200,15.400 26.933,17.333 26.667,19.267 26.400,21.200 26.400,21.767 26.400,22.333 26.400,22.900 27.133,22.900 27.867,22.900 28.600,22.900 Z " />
  <path stroke="none" fill="#f0f0f0" d="M 29.200,34.500 C 29.200,32.200 29.200,29.900 29.200,27.600 29.200,27.067 29.200,26.533 29.200,26.000 29.000,25.567 28.800,25.133 28.600,24.700 28.600,24.267 28.600,23.833 28.600,23.400 27.867,23.400 27.133,23.400 26.400,23.400 26.400,23.833 26.400,24.267 26.400,24.700 26.200,25.133 26.000,25.567 25.800,26.000 25.800,26.533 25.800,27.067 25.800,27.600 25.800,29.900 25.800,32.200 25.800,34.500 25.700,34.500 25.600,34.500 25.500,34.500 25.500,34.667 25.500,34.833 25.500,35.000 26.833,35.000 28.167,35.000 29.500,35.000 29.500,34.833 29.500,34.667 29.500,34.500 29.400,34.500 29.300,34.500 29.200,34.500 Z " />
  <path stroke="none" fill="#f0f0f0" d="M 73.700,22.600 C 73.700,22.033 73.700,21.467 73.700,20.900 73.433,18.967 73.167,17.033 72.900,15.100 72.700,15.100 72.500,15.100 72.300,15.100 72.033,17.033 71.767,18.967 71.500,20.900 71.500,21.467 71.500,22.033 71.500,22.600 72.233,22.600 72.967,22.600 73.700,22.600 Z " />
  <path stroke="none" fill="#f0f0f0" d="M 74.600,34.200 C 74.500,34.200 74.400,34.200 74.300,34.200 74.300,31.900 74.300,29.600 74.300,27.300 74.300,26.767 74.300,26.233 74.300,25.700 74.100,25.267 73.900,24.833 73.700,24.400 73.700,23.967 73.700,23.533 73.700,23.100 72.967,23.100 72.233,23.100 71.500,23.100 71.500,23.533 71.500,23.967 71.500,24.400 71.300,24.833 71.100,25.267 70.900,25.700 70.900,26.233 70.900,26.767 70.900,27.300 70.900,29.600 70.900,31.900 70.900,34.200 70.800,34.200 70.700,34.200 70.600,34.200 70.600,34.367 70.600,34.533 70.600,34.700 71.933,34.700 73.267,34.700 74.600,34.700 74.600,34.533 74.600,34.367 74.600,34.200 Z " />
  <path stroke="none" fill="#f0f0f0" d="M 50.000,35.000 C 44.400,35.000 39.900,30.500 39.900,24.900 39.900,19.300 44.400,14.800 50.000,14.800 55.600,14.800 60.100,19.300 60.100,24.900 60.100,30.500 55.600,35.000 50.000,35.000 50.000,35.000 50.000,35.000 50.000,35.000 Z M 50.000,12.800 C 43.300,12.800 37.900,18.200 37.900,24.900 37.900,31.600 43.300,37.000 50.000,37.000 56.700,37.000 62.100,31.600 62.100,24.900 62.100,18.200 56.700,12.800 50.000,12.800 50.000,12.800 50.000,12.800 50.000,12.800 Z " />
  <path stroke="none" fill="#f0f0f0" d="M 50.000,32.600 C 45.800,32.600 42.300,29.200 42.300,24.900 42.300,20.700 45.700,17.200 50.000,17.200 54.200,17.200 57.700,20.600 57.700,24.900 57.700,29.100 54.200,32.600 50.000,32.600 50.000,32.600 50.000,32.600 50.000,32.600 Z M 50.000,16.200 C 45.200,16.200 41.300,20.100 41.300,24.900 41.300,29.700 45.200,33.600 50.000,33.600 54.800,33.600 58.700,29.700 58.700,24.900 58.700,20.100 54.800,16.200 50.000,16.200 50.000,16.200 50.000,16.200 50.000,16.200 Z " />
  <path stroke="none" fill="#f0f0f0" d="M 50.000,29.500 C 47.400,29.500 45.400,27.400 45.400,24.900 45.400,22.400 47.500,20.300 50.000,20.300 52.600,20.300 54.600,22.400 54.600,24.900 54.600,27.400 52.600,29.500 50.000,29.500 50.000,29.500 50.000,29.500 50.000,29.500 Z M 50.000,19.300 C 46.900,19.300 44.400,21.800 44.400,24.900 44.400,28.000 46.900,30.500 50.000,30.500 53.100,30.500 55.600,28.000 55.600,24.900 55.600,21.800 53.100,19.300 50.000,19.300 50.000,19.300 50.000,19.300 50.000,19.300 Z " />
  <path stroke="none" fill="#f0f0f0" d="M 50.000,26.100 C 49.400,26.100 48.800,25.600 48.800,24.900 48.800,24.300 49.300,23.700 50.000,23.700 50.600,23.700 51.200,24.200 51.200,24.900 51.200,25.600 50.600,26.100 50.000,26.100 50.000,26.100 50.000,26.100 50.000,26.100 Z M 50.000,21.700 C 48.300,21.700 46.800,23.100 46.800,24.900 46.800,26.700 48.200,28.100 50.000,28.100 51.700,28.100 53.200,26.700 53.200,24.900 53.200,23.100 51.800,21.700 50.000,21.700 50.000,21.700 50.000,21.700 50.000,21.700 Z " />
  <path stroke="none" fill="#f0f0f0" d="M 66.500,35.500 C 66.200,35.500 66.000,35.700 66.000,36.000 66.000,37.500 66.000,39.000 66.000,40.500 63.933,38.433 61.867,36.367 59.800,34.300 59.600,34.100 59.300,34.100 59.100,34.300 58.900,34.500 58.900,34.800 59.100,35.000 61.167,37.067 63.233,39.133 65.300,41.200 63.800,41.200 62.300,41.200 60.800,41.200 60.500,41.200 60.300,41.400 60.300,41.700 60.300,42.000 60.500,42.200 60.800,42.200 60.800,42.200 60.800,42.200 60.800,42.200 62.867,42.200 64.933,42.200 67.000,42.200 67.000,40.133 67.000,38.067 67.000,36.000 67.000,35.700 66.800,35.500 66.500,35.500 66.500,35.500 66.500,35.500 66.500,35.500 Z " />
  <path stroke="none" fill="#f0f0f0" d="M 40.300,34.200 C 38.233,36.267 36.167,38.333 34.100,40.400 34.100,38.900 34.100,37.400 34.100,35.900 34.100,35.600 33.900,35.400 33.600,35.400 33.300,35.400 33.100,35.600 33.100,35.900 33.100,37.967 33.100,40.033 33.100,42.100 35.167,42.100 37.233,42.100 39.300,42.100 39.300,42.100 39.300,42.100 39.300,42.100 39.600,42.100 39.800,41.900 39.800,41.600 39.800,41.300 39.600,41.100 39.300,41.100 37.800,41.100 36.300,41.100 34.800,41.100 36.867,39.033 38.933,36.967 41.000,34.900 41.200,34.700 41.200,34.400 41.000,34.200 40.800,34.000 40.500,34.000 40.300,34.200 40.300,34.200 40.300,34.200 40.300,34.200 Z " />
  <path stroke="none" fill="#f0f0f0" d="M 60.800,7.800 C 60.500,7.800 60.300,8.000 60.300,8.300 60.300,8.600 60.500,8.800 60.800,8.800 62.300,8.800 63.800,8.800 65.300,8.800 63.233,10.867 61.167,12.933 59.100,15.000 58.900,15.200 58.900,15.500 59.100,15.700 59.200,15.800 59.300,15.800 59.500,15.800 59.700,15.800 59.800,15.800 59.900,15.700 61.933,13.667 63.967,11.633 66.000,9.600 66.000,11.100 66.000,12.600 66.000,14.100 66.000,14.400 66.200,14.600 66.500,14.600 66.500,14.600 66.500,14.600 66.500,14.600 66.800,14.600 67.000,14.400 67.000,14.100 67.000,12.033 67.000,9.967 67.000,7.900 64.933,7.867 62.867,7.833 60.800,7.800 60.800,7.800 60.800,7.800 60.800,7.800 Z " />
  <path stroke="none" fill="#f0f0f0" d="M 33.600,14.500 C 33.600,14.500 33.600,14.500 33.600,14.500 33.900,14.500 34.100,14.300 34.100,14.000 34.100,12.500 34.100,11.000 34.100,9.500 36.167,11.567 38.233,13.633 40.300,15.700 40.400,15.800 40.500,15.800 40.700,15.800 40.900,15.800 41.000,15.800 41.100,15.700 41.300,15.500 41.300,15.200 41.100,15.000 39.033,12.933 36.967,10.867 34.900,8.800 36.400,8.800 37.900,8.800 39.400,8.800 39.700,8.800 39.900,8.600 39.900,8.300 39.900,8.000 39.700,7.800 39.400,7.800 37.333,7.800 35.267,7.800 33.200,7.800 33.200,9.867 33.200,11.933 33.200,14.000 33.100,14.300 33.300,14.500 33.600,14.500 33.600,14.500 33.600,14.500 33.600,14.500 Z " />
</svg>