<?xml version="1.0" encoding="UTF-8" standalone="no"?>
<!DOCTYPE svg PUBLIC "-//W3C//DTD SVG 20010904//EN" "http://www.w3.org/TR/2001/REC-SVG-20010904/DTD/svg10.dtd"[]>
<svg version="1.1" xmlns="http://www.w3.org/2000/svg" d1p1:xlink="http://www.w3.org/1999/xlink" viewBox="0 0 100 50" xmlns:d1p1="xmlns">
  <path stroke="none" fill="#f0f0f0f0" d="M 36.700,42.400 C 39.600,40.800 49.500,34.600 49.500,27.300 49.500,20.733 49.500,14.167 49.500,7.600 45.233,7.600 40.967,7.600 36.700,7.600 36.700,19.200 36.700,30.800 36.700,42.400 Z " />
  <path stroke="none" fill="#f0f0f0f0" d="M 22.900,19.500 C 26.867,24.100 30.833,28.700 34.800,33.300 32.300,33.300 29.800,33.300 27.300,33.300 27.300,34.233 27.300,35.167 27.300,36.100 29.822,38.547 32.645,40.664 35.700,42.400 35.700,30.800 35.700,19.200 35.700,7.600 31.433,7.600 27.167,7.600 22.900,7.600 22.900,11.567 22.900,15.533 22.900,19.500 Z " />
  <path stroke="none" fill="#f0f0f0f0" d="M 19.500,19.800 C 16.167,23.633 12.833,27.467 9.500,31.300 11.200,31.300 12.900,31.300 14.600,31.300 14.600,34.433 14.600,37.567 14.600,40.700 17.867,40.700 21.133,40.700 24.400,40.700 24.400,37.567 24.400,34.433 24.400,31.300 26.100,31.300 27.800,31.300 29.500,31.300 26.167,27.467 22.833,23.633 19.500,19.800 19.500,19.800 19.500,19.800 19.500,19.800 Z " />
  <path stroke="none" fill="#f0f0f0f0" d="M 69.100,20.100 C 68.800,18.733 68.500,17.367 68.200,16.000 69.533,16.000 70.867,16.000 72.200,16.000 73.500,17.367 74.800,18.733 76.100,20.100 73.767,20.100 71.433,20.100 69.100,20.100 Z M 90.600,26.600 C 90.000,20.900 77.100,19.900 77.100,19.900 75.567,18.300 74.033,16.700 72.500,15.100 66.400,15.100 60.300,15.100 54.200,15.100 54.200,19.700 54.200,24.300 54.200,28.900 54.212,30.360 53.869,31.802 53.200,33.100 61.367,33.100 69.533,33.100 77.700,33.100 77.700,33.100 91.300,32.200 90.600,26.600 90.600,26.600 90.600,26.600 90.600,26.600 Z " />
</svg>