<?xml version="1.0" encoding="UTF-8" standalone="no"?>
<!DOCTYPE svg PUBLIC "-//W3C//DTD SVG 20010904//EN" "http://www.w3.org/TR/2001/REC-SVG-20010904/DTD/svg10.dtd"[]>
<svg version="1.1" xmlns="http://www.w3.org/2000/svg" d1p1:xlink="http://www.w3.org/1999/xlink" viewBox="0 0 128 128" xmlns:d1p1="xmlns">
  <path stroke="none" fill="#f0f0f0" d="M 102.000,62.000 C 96.667,62.000 91.333,62.000 86.000,62.000 78.667,54.667 71.333,47.333 64.000,40.000 56.667,47.333 49.333,54.667 42.000,62.000 36.667,62.000 31.333,62.000 26.000,62.000 38.667,49.333 51.333,36.667 64.000,24.000 76.667,36.667 89.333,49.333 102.000,62.000 102.000,62.000 102.000,62.000 102.000,62.000 Z " />
  <path stroke="none" fill="#f0f0f0" d="M 83.000,104.000 C 70.333,104.000 57.667,104.000 45.000,104.000 45.000,98.667 45.000,93.333 45.000,88.000 39.000,88.000 33.000,88.000 27.000,88.000 39.333,75.333 51.667,62.667 64.000,50.000 76.333,62.667 88.667,75.333 101.000,88.000 95.000,88.000 89.000,88.000 83.000,88.000 83.000,93.333 83.000,98.667 83.000,104.000 83.000,104.000 83.000,104.000 83.000,104.000 Z " />
</svg>