<?xml version="1.0" encoding="UTF-8" standalone="no"?>
<!DOCTYPE svg PUBLIC "-//W3C//DTD SVG 20010904//EN" "http://www.w3.org/TR/2001/REC-SVG-20010904/DTD/svg10.dtd"[]>
<svg version="1.1" xmlns="http://www.w3.org/2000/svg" d1p1:xlink="http://www.w3.org/1999/xlink" viewBox="0 0 24 24" xmlns:d1p1="xmlns">
  <path stroke="none" fill="#f0f0f0" d="M 18.000,7.000 C 18.000,6.000 18.000,5.000 18.000,4.000 18.000,3.400 17.600,3.000 17.000,3.000 13.667,3.000 10.333,3.000 7.000,3.000 6.400,3.000 6.000,3.400 6.000,4.000 6.000,5.000 6.000,6.000 6.000,7.000 10.000,7.000 14.000,7.000 18.000,7.000 18.000,7.000 18.000,7.000 18.000,7.000 Z " />
  <path stroke="none" fill="#f0f0f0" d="M 16.000,16.300 C 15.100,16.300 14.200,16.300 13.300,16.300 13.300,17.200 13.300,18.100 13.300,19.000 12.400,19.000 11.500,19.000 10.600,19.000 10.600,18.100 10.600,17.200 10.600,16.300 9.733,16.300 8.867,16.300 8.000,16.300 8.000,15.400 8.000,14.500 8.000,13.600 8.900,13.600 9.800,13.600 10.700,13.600 10.700,12.733 10.700,11.867 10.700,11.000 11.600,11.000 12.500,11.000 13.400,11.000 13.400,11.900 13.400,12.800 13.400,13.700 14.267,13.700 15.133,13.700 16.000,13.700 16.000,14.567 16.000,15.433 16.000,16.300 16.000,16.300 16.000,16.300 16.000,16.300 Z M 6.000,9.000 C 6.000,12.667 6.000,16.333 6.000,20.000 6.000,20.600 6.400,21.000 7.000,21.000 10.333,21.000 13.667,21.000 17.000,21.000 17.600,21.000 18.000,20.600 18.000,20.000 18.000,16.333 18.000,12.667 18.000,9.000 14.000,9.000 10.000,9.000 6.000,9.000 6.000,9.000 6.000,9.000 6.000,9.000 Z " />
  <path stroke="none" fill="#f0f0f0" d="M 7.500,19.500 C 7.500,16.267 7.500,13.033 7.500,9.800 10.500,9.800 13.500,9.800 16.500,9.800 16.500,13.067 16.500,16.333 16.500,19.600 13.500,19.600 10.500,19.600 7.500,19.600 7.500,19.567 7.500,19.533 7.500,19.500 Z M 16.500,4.500 C 16.500,5.767 16.500,7.033 16.500,8.300 13.500,8.300 10.500,8.300 7.500,8.300 7.500,7.033 7.500,5.767 7.500,4.500 10.500,4.500 13.500,4.500 16.500,4.500 16.500,4.500 16.500,4.500 16.500,4.500 Z M 17.000,3.000 C 13.667,3.000 10.333,3.000 7.000,3.000 6.400,3.000 6.000,3.400 6.000,4.000 6.000,9.333 6.000,14.667 6.000,20.000 6.000,20.600 6.400,21.000 7.000,21.000 10.333,21.000 13.667,21.000 17.000,21.000 17.600,21.000 18.000,20.600 18.000,20.000 18.000,14.667 18.000,9.333 18.000,4.000 18.000,3.400 17.600,3.000 17.000,3.000 17.000,3.000 17.000,3.000 17.000,3.000 Z " />
</svg>