<?xml version="1.0" encoding="UTF-8" standalone="no"?>
<!DOCTYPE svg PUBLIC "-//W3C//DTD SVG 20010904//EN" "http://www.w3.org/TR/2001/REC-SVG-20010904/DTD/svg10.dtd"[]>
<svg version="1.1" xmlns="http://www.w3.org/2000/svg" d1p1:xlink="http://www.w3.org/1999/xlink" viewBox="0 0 100 50" xmlns:d1p1="xmlns">
  <path stroke="none" fill="#f0f0f0" d="M 51.300,28.500 C 50.300,28.900 49.300,28.800 48.500,28.400 49.100,28.000 49.500,27.200 49.400,26.400 49.300,25.600 48.700,25.000 48.000,24.800 47.400,24.600 46.800,24.700 46.400,24.900 46.500,22.900 48.100,21.300 50.100,21.300 52.400,21.300 54.200,23.400 53.700,25.800 53.400,27.000 52.500,28.100 51.300,28.500 51.300,28.500 51.300,28.500 51.300,28.500 Z M 49.900,20.300 C 49.000,20.300 48.000,20.700 47.300,21.300 45.200,23.100 45.100,24.600 45.300,25.900 45.200,26.100 45.100,26.400 45.100,26.700 45.100,27.800 45.900,28.700 47.000,28.700 48.100,29.600 49.700,30.000 51.300,29.500 52.800,29.000 54.000,27.700 54.400,26.200 55.300,23.000 53.000,20.200 49.900,20.300 49.900,20.300 49.900,20.300 49.900,20.300 Z " />
  <path stroke="none" fill="#f0f0f0" d="M 57.200,19.200 C 57.300,19.200 57.400,19.200 57.500,19.200 58.800,20.800 59.500,22.900 59.500,25.100 59.500,28.800 57.400,32.000 54.300,33.600 53.900,33.200 53.400,33.000 52.800,33.000 51.800,33.000 51.000,33.700 50.800,34.600 50.500,34.600 50.200,34.600 49.900,34.600 44.000,34.600 39.400,29.300 40.500,23.200 41.200,19.400 44.200,16.300 48.000,15.600 50.600,15.100 53.100,15.700 55.100,16.900 55.100,17.000 55.100,17.000 55.100,17.100 55.200,18.200 56.100,19.200 57.200,19.200 57.200,19.200 57.200,19.200 57.200,19.200 Z M 40.700,20.600 C 39.800,22.500 39.600,24.300 39.700,26.000 39.200,25.300 38.400,24.900 37.400,25.100 36.700,25.300 36.100,25.800 36.000,26.500 35.600,27.900 36.700,29.100 38.000,29.100 39.000,29.100 39.800,28.400 40.000,27.400 41.100,31.900 45.200,35.200 50.000,35.200 50.300,35.200 50.600,35.200 50.900,35.200 51.100,36.300 52.200,37.200 53.400,36.900 54.100,36.700 54.800,36.100 54.900,35.400 55.000,34.900 54.900,34.500 54.800,34.100 58.100,32.400 60.400,28.900 60.400,24.900 60.400,22.600 59.600,20.500 58.400,18.700 59.100,18.300 59.600,17.400 59.300,16.400 59.100,15.700 58.500,15.100 57.800,14.900 56.800,14.700 55.900,15.200 55.500,16.000 53.500,14.800 51.100,14.200 48.500,14.600 45.000,15.300 42.100,17.600 40.700,20.600 40.700,20.600 40.700,20.600 40.700,20.600 Z " />
  <path stroke="none" fill="#f0f0f0" d="M 56.700,27.900 C 58.200,28.300 59.600,26.900 59.200,25.400 59.000,24.700 58.400,24.100 57.700,23.900 56.200,23.500 54.800,24.900 55.200,26.400 55.400,27.200 56.000,27.800 56.700,27.900 56.700,27.900 56.700,27.900 56.700,27.900 Z " />
  <path stroke="none" fill="#f0f0f0" d="M 47.750,17.782 C 48.570,18.602 48.602,19.900 47.821,20.682 47.040,21.463 45.742,21.431 44.922,20.611 44.101,19.791 44.070,18.493 44.851,17.712 45.632,16.931 46.930,16.962 47.750,17.782 47.750,17.782 47.750,17.782 47.750,17.782 Z " />
  <path stroke="none" fill="#f0f0f0" d="M 44.800,34.600 C 43.300,34.200 41.900,35.600 42.300,37.100 42.500,37.800 43.100,38.400 43.800,38.600 45.300,39.000 46.700,37.600 46.300,36.100 46.100,35.400 45.500,34.800 44.800,34.600 44.800,34.600 44.800,34.600 44.800,34.600 Z " />
  <path stroke="none" fill="#f0f0f0" d="M 65.000,20.900 C 64.800,20.800 64.600,20.800 64.300,20.800 63.000,20.800 62.000,22.000 62.300,23.300 62.400,24.100 63.000,24.700 63.800,24.900 64.500,25.100 65.100,24.900 65.500,24.600 65.500,24.800 65.500,24.900 65.500,25.100 65.500,33.900 58.100,41.000 49.200,40.600 41.400,40.200 34.900,33.800 34.500,26.000 34.200,19.900 37.400,14.500 42.200,11.700 42.400,12.800 43.500,13.600 44.700,13.300 45.400,13.100 46.000,12.500 46.200,11.800 46.300,11.200 46.200,10.600 45.900,10.200 47.200,9.900 48.500,9.700 49.900,9.700 57.100,9.500 63.100,14.300 65.000,20.900 65.000,20.900 65.000,20.900 65.000,20.900 Z M 50.000,8.700 C 48.400,8.700 46.800,8.900 45.300,9.400 45.000,9.200 44.600,9.100 44.200,9.100 43.200,9.100 42.400,9.800 42.200,10.700 36.600,13.800 32.900,20.100 33.800,27.100 34.700,34.400 40.700,40.300 48.100,41.200 57.900,42.300 66.300,34.600 66.300,25.000 66.300,24.500 66.300,24.100 66.200,23.600 66.300,23.400 66.400,23.100 66.400,22.800 66.400,22.300 66.200,21.900 65.900,21.500 64.300,14.200 57.800,8.700 50.000,8.700 50.000,8.700 50.000,8.700 50.000,8.700 Z " />
  <path stroke="none" fill="#f0f0f0" d="M 52.200,46.200 C 38.800,47.500 27.500,36.300 28.900,22.900 29.900,13.000 37.900,4.900 47.900,3.900 61.300,2.600 72.600,13.800 71.200,27.200 70.200,37.100 62.100,45.200 52.200,46.200 52.200,46.200 52.200,46.200 52.200,46.200 Z M 77.000,6.500 C 76.200,6.500 75.500,7.200 75.500,8.000 75.500,13.333 75.500,18.667 75.500,24.000 74.333,24.000 73.167,24.000 72.000,24.000 71.500,12.300 61.800,3.000 50.000,3.000 38.200,3.000 28.500,12.400 28.000,24.100 26.833,24.100 25.667,24.100 24.500,24.100 24.500,18.733 24.500,13.367 24.500,8.000 24.500,7.200 23.800,6.500 23.000,6.500 22.200,6.500 21.500,7.200 21.500,8.000 21.500,18.967 21.500,29.933 21.500,40.900 21.500,41.700 22.200,42.400 23.000,42.400 23.800,42.400 24.500,41.700 24.500,40.900 24.500,35.967 24.500,31.033 24.500,26.100 25.667,26.100 26.833,26.100 28.000,26.100 28.600,37.700 38.200,47.000 50.000,47.000 61.800,47.000 71.500,37.700 72.000,26.000 73.167,26.000 74.333,26.000 75.500,26.000 75.500,30.967 75.500,35.933 75.500,40.900 75.500,41.700 76.200,42.400 77.000,42.400 77.800,42.400 78.500,41.700 78.500,40.900 78.500,29.933 78.500,18.967 78.500,8.000 78.500,7.200 77.800,6.500 77.000,6.500 77.000,6.500 77.000,6.500 77.000,6.500 Z " />
</svg>