<?xml version="1.0" encoding="UTF-8" standalone="no"?>
<!DOCTYPE svg PUBLIC "-//W3C//DTD SVG 20010904//EN" "http://www.w3.org/TR/2001/REC-SVG-20010904/DTD/svg10.dtd"[]>
<svg version="1.1" xmlns="http://www.w3.org/2000/svg" d1p1:xlink="http://www.w3.org/1999/xlink" viewBox="0 0 100 50" xmlns:d1p1="xmlns">
  <path stroke="none" fill="#f0f0f0" d="M 43.000,30.100 C 43.600,29.400 44.300,28.800 44.900,28.200 44.033,27.133 43.167,26.067 42.300,25.000 43.800,25.100 45.300,25.200 46.800,25.300 46.600,23.900 46.400,22.500 46.200,21.100 47.200,22.267 48.200,23.433 49.200,24.600 49.600,23.500 49.900,22.400 50.100,21.300 50.433,22.300 50.767,23.300 51.100,24.300 52.167,23.500 53.233,22.700 54.300,21.900 54.200,23.200 54.100,24.400 54.000,25.500 55.100,25.367 56.200,25.233 57.300,25.100 56.600,25.967 55.900,26.833 55.200,27.700 56.133,28.233 57.067,28.767 58.000,29.300 56.900,29.567 55.800,29.833 54.700,30.100 56.867,30.100 59.033,30.100 61.200,30.100 60.567,29.500 59.933,28.900 59.300,28.300 60.433,28.133 61.567,27.967 62.700,27.800 61.400,27.367 60.100,26.933 58.800,26.500 60.167,25.767 61.533,25.033 62.900,24.300 61.200,24.300 59.500,24.300 57.800,24.300 58.400,23.433 59.000,22.567 59.600,21.700 58.300,22.400 57.000,23.100 55.700,23.800 56.300,21.967 56.900,20.133 57.500,18.300 56.100,19.300 54.700,20.300 53.300,21.300 53.633,20.100 53.967,18.900 54.300,17.700 53.467,18.667 52.633,19.633 51.800,20.600 51.533,18.967 51.267,17.333 51.000,15.700 50.167,17.167 49.333,18.633 48.500,20.100 47.467,18.467 46.433,16.833 45.400,15.200 45.267,17.300 45.133,19.400 45.000,21.500 44.133,20.900 43.267,20.300 42.400,19.700 43.133,21.000 43.867,22.300 44.600,23.600 42.700,23.033 40.800,22.467 38.900,21.900 39.833,23.400 40.767,24.900 41.700,26.400 40.433,26.167 39.167,25.933 37.900,25.700 38.933,26.533 39.967,27.367 41.000,28.200 39.100,28.833 37.200,29.467 35.300,30.100 37.867,30.100 40.433,30.100 43.000,30.100 43.000,30.100 43.000,30.100 43.000,30.100 Z " />
  <path stroke="none" fill="#f0f0f0" d="M 65.500,42.900 C 60.800,42.900 56.100,42.900 51.400,42.900 51.400,41.467 51.400,40.033 51.400,38.600 52.567,36.900 53.733,35.200 54.900,33.500 58.433,33.500 61.967,33.500 65.500,33.500 65.500,36.633 65.500,39.767 65.500,42.900 65.500,42.900 65.500,42.900 65.500,42.900 Z M 34.600,33.500 C 38.167,33.500 41.733,33.500 45.300,33.500 46.467,35.200 47.633,36.900 48.800,38.600 48.800,40.033 48.800,41.467 48.800,42.900 44.067,42.900 39.333,42.900 34.600,42.900 34.600,39.767 34.600,36.633 34.600,33.500 34.600,33.500 34.600,33.500 34.600,33.500 Z M 54.200,32.200 C 53.600,33.067 53.000,33.933 52.400,34.800 51.900,34.433 51.400,34.067 50.900,33.700 50.900,32.633 50.900,31.567 50.900,30.500 50.300,30.500 49.700,30.500 49.100,30.500 49.100,31.567 49.100,32.633 49.100,33.700 48.633,34.067 48.167,34.433 47.700,34.800 47.100,33.933 46.500,33.067 45.900,32.200 41.700,32.200 37.500,32.200 33.300,32.200 33.300,36.200 33.300,40.200 33.300,44.200 44.467,44.200 55.633,44.200 66.800,44.200 66.800,40.200 66.800,36.200 66.800,32.200 62.600,32.200 58.400,32.200 54.200,32.200 54.200,32.200 54.200,32.200 54.200,32.200 Z " />
  <path stroke="none" fill="#f0f0f0" d="M 51.900,4.700 C 51.900,6.600 51.900,8.500 51.900,10.400 52.467,9.833 53.033,9.267 53.600,8.700 53.900,8.300 54.600,8.200 55.000,8.500 55.400,8.800 55.500,9.500 55.200,9.900 55.100,10.000 55.100,10.000 55.000,10.100 53.633,11.467 52.267,12.833 50.900,14.200 49.500,12.833 48.100,11.467 46.700,10.100 46.500,9.900 46.400,9.700 46.400,9.400 46.400,9.100 46.500,8.900 46.700,8.700 47.100,8.300 47.700,8.300 48.100,8.700 48.700,9.267 49.300,9.833 49.900,10.400 49.900,8.500 49.900,6.600 49.900,4.700 49.900,4.200 50.400,3.700 50.900,3.700 51.500,3.700 51.900,4.100 51.900,4.700 51.900,4.700 51.900,4.700 51.900,4.700 Z " />
</svg>