<?xml version="1.0" encoding="UTF-8" standalone="no"?>
<!DOCTYPE svg PUBLIC "-//W3C//DTD SVG 20010904//EN" "http://www.w3.org/TR/2001/REC-SVG-20010904/DTD/svg10.dtd"[]>
<svg version="1.1" xmlns="http://www.w3.org/2000/svg" d1p1:xlink="http://www.w3.org/1999/xlink" viewBox="0 0 100 50" xmlns:d1p1="xmlns">
  <path stroke="none" fill="#f0f0f0" d="M 43.000,29.200 C 43.633,28.567 44.267,27.933 44.900,27.300 44.000,26.300 43.200,25.300 42.300,24.100 43.800,24.200 45.300,24.300 46.800,24.400 46.600,23.000 46.400,21.600 46.200,20.200 47.200,21.367 48.200,22.533 49.200,23.700 49.600,22.600 49.900,21.500 50.100,20.400 50.433,21.400 50.767,22.400 51.100,23.400 52.167,22.633 53.233,21.867 54.300,21.100 54.200,22.300 54.100,23.500 54.000,24.700 55.100,24.567 56.200,24.433 57.300,24.300 56.600,25.167 55.900,26.033 55.200,26.900 56.133,27.400 57.067,27.900 58.000,28.400 56.900,28.667 55.800,28.933 54.700,29.200 56.867,29.200 59.033,29.200 61.200,29.200 60.567,28.600 59.933,28.000 59.300,27.400 60.433,27.233 61.567,27.067 62.700,26.900 61.400,26.467 60.100,26.033 58.800,25.600 60.167,24.867 61.533,24.133 62.900,23.400 61.200,23.400 59.500,23.400 57.800,23.400 58.400,22.500 59.000,21.600 59.600,20.700 58.300,21.400 57.000,22.100 55.700,22.800 56.300,20.967 56.900,19.133 57.500,17.300 56.100,18.300 54.700,19.300 53.300,20.300 53.633,19.100 53.967,17.900 54.300,16.700 53.467,17.700 52.633,18.700 51.800,19.700 51.533,18.067 51.267,16.433 51.000,14.800 50.167,16.267 49.333,17.733 48.500,19.200 47.467,17.600 46.433,16.000 45.400,14.400 45.267,16.500 45.133,18.600 45.000,20.700 44.133,20.100 43.267,19.500 42.400,18.900 43.133,20.167 43.867,21.433 44.600,22.700 42.700,22.133 40.800,21.567 38.900,21.000 39.833,22.500 40.767,24.000 41.700,25.500 40.433,25.267 39.167,25.033 37.900,24.800 38.933,25.667 39.967,26.533 41.000,27.400 39.100,28.000 37.200,28.600 35.300,29.200 37.867,29.200 40.433,29.200 43.000,29.200 43.000,29.200 43.000,29.200 43.000,29.200 Z " />
  <path stroke="none" fill="#f0f0f0" d="M 65.500,42.100 C 60.800,42.100 56.100,42.100 51.400,42.100 51.400,40.667 51.400,39.233 51.400,37.800 52.567,36.100 53.733,34.400 54.900,32.700 58.433,32.700 61.967,32.700 65.500,32.700 65.500,35.833 65.500,38.967 65.500,42.100 65.500,42.100 65.500,42.100 65.500,42.100 Z M 34.600,32.700 C 38.167,32.700 41.733,32.700 45.300,32.700 46.467,34.400 47.633,36.100 48.800,37.800 48.800,39.233 48.800,40.667 48.800,42.100 44.067,42.100 39.333,42.100 34.600,42.100 34.600,38.967 34.600,35.833 34.600,32.700 34.600,32.700 34.600,32.700 34.600,32.700 Z M 54.200,31.400 C 53.600,32.233 53.000,33.067 52.400,33.900 51.900,33.533 51.400,33.167 50.900,32.800 50.900,31.767 50.900,30.733 50.900,29.700 50.300,29.700 49.700,29.700 49.100,29.700 49.100,30.733 49.100,31.767 49.100,32.800 48.633,33.167 48.167,33.533 47.700,33.900 47.100,33.067 46.500,32.233 45.900,31.400 41.700,31.400 37.500,31.400 33.300,31.400 33.300,35.400 33.300,39.400 33.300,43.400 44.467,43.400 55.633,43.400 66.800,43.400 66.800,39.400 66.800,35.400 66.800,31.400 62.600,31.400 58.400,31.400 54.200,31.400 54.200,31.400 54.200,31.400 54.200,31.400 Z " />
  <path stroke="none" fill="#f0f0f0" d="M 22.100,20.600 C 24.000,20.667 25.900,20.733 27.800,20.800 27.233,20.200 26.667,19.600 26.100,19.000 25.800,18.600 25.900,17.900 26.300,17.600 26.700,17.300 27.100,17.300 27.500,17.600 28.867,19.000 30.233,20.400 31.600,21.800 30.233,23.200 28.867,24.600 27.500,26.000 27.300,26.200 27.100,26.300 26.800,26.300 26.500,26.300 26.300,26.200 26.100,26.000 25.700,25.600 25.700,24.900 26.100,24.500 26.667,23.933 27.233,23.367 27.800,22.800 25.900,22.733 24.000,22.667 22.100,22.600 21.600,22.700 21.200,22.300 21.100,21.800 21.100,21.700 21.100,21.700 21.100,21.600 21.100,21.000 21.500,20.600 22.100,20.600 22.100,20.600 22.100,20.600 22.100,20.600 22.100,20.600 22.100,20.600 22.100,20.600 Z " />
  <path stroke="none" fill="#f0f0f0" d="M 76.300,20.600 C 74.400,20.667 72.500,20.733 70.600,20.800 71.167,20.200 71.733,19.600 72.300,19.000 72.600,18.600 72.500,17.900 72.100,17.600 71.700,17.300 71.300,17.300 70.900,17.600 69.533,19.000 68.167,20.400 66.800,21.800 68.167,23.200 69.533,24.600 70.900,26.000 71.300,26.400 71.900,26.400 72.300,26.000 72.700,25.600 72.700,24.900 72.300,24.500 71.733,23.933 71.167,23.367 70.600,22.800 72.500,22.733 74.400,22.667 76.300,22.600 76.900,22.600 77.300,22.200 77.300,21.600 77.300,21.100 76.800,20.600 76.300,20.600 76.300,20.600 76.300,20.600 76.300,20.600 Z " />
</svg>