<?xml version="1.0" encoding="UTF-8" standalone="no"?>
<!DOCTYPE svg PUBLIC "-//W3C//DTD SVG 20010904//EN" "http://www.w3.org/TR/2001/REC-SVG-20010904/DTD/svg10.dtd"[]>
<svg version="1.1" xmlns="http://www.w3.org/2000/svg" d1p1:xlink="http://www.w3.org/1999/xlink" viewBox="0 0 100 50" xmlns:d1p1="xmlns">
  <path stroke="none" fill="#f0f0f0" d="M 50.100,33.200 C 45.200,33.200 41.300,29.300 41.300,24.400 41.300,19.500 45.200,15.600 50.100,15.600 55.000,15.600 58.900,19.500 58.900,24.400 58.900,29.300 55.000,33.200 50.100,33.200 50.100,33.200 50.100,33.200 50.100,33.200 Z M 50.400,14.900 C 50.400,14.400 50.400,13.900 50.400,13.400 51.367,13.400 52.333,13.400 53.300,13.400 53.300,13.167 53.300,12.933 53.300,12.700 51.133,12.700 48.967,12.700 46.800,12.700 46.800,12.933 46.800,13.167 46.800,13.400 47.767,13.400 48.733,13.400 49.700,13.400 49.700,13.900 49.700,14.400 49.700,14.900 44.400,15.100 40.300,19.500 40.500,24.800 40.700,30.100 45.100,34.200 50.400,34.000 55.700,33.800 59.800,29.400 59.600,24.100 59.500,19.100 55.400,15.100 50.400,14.900 50.400,14.900 50.400,14.900 50.400,14.900 Z " />
  <path stroke="none" fill="#f0f0f0" d="M 50.100,31.200 C 46.300,31.300 43.300,28.300 43.200,24.500 43.100,20.700 46.100,17.700 49.900,17.600 53.700,17.500 56.700,20.500 56.800,24.300 56.800,24.300 56.800,24.400 56.800,24.400 56.900,28.100 53.900,31.100 50.200,31.200 50.200,31.200 50.100,31.200 50.100,31.200 50.100,31.200 50.100,31.200 50.100,31.200 Z M 50.100,16.900 C 45.900,16.800 42.500,20.200 42.400,24.400 42.300,28.600 45.700,32.000 49.900,32.100 54.100,32.200 57.500,28.800 57.600,24.600 57.600,24.500 57.600,24.500 57.600,24.400 57.500,20.300 54.200,17.000 50.100,16.900 50.100,16.900 50.100,16.900 50.100,16.900 Z " />
  <path stroke="none" fill="#f0f0f0" d="M 50.400,19.600 C 50.167,19.600 49.933,19.600 49.700,19.600 49.700,21.500 49.700,23.400 49.700,25.300 50.500,26.067 51.300,26.833 52.100,27.600 52.267,27.433 52.433,27.267 52.600,27.100 51.867,26.367 51.133,25.633 50.400,24.900 50.400,23.133 50.400,21.367 50.400,19.600 Z " />
  <path stroke="none" fill="#f0f0f0" d="M 51.100,41.400 C 51.100,40.800 51.100,40.200 51.100,39.600 51.100,39.100 50.600,38.600 50.100,38.600 49.500,38.600 49.100,39.000 49.100,39.600 49.100,40.200 49.100,40.800 49.100,41.400 40.500,40.900 33.600,34.000 33.200,25.400 33.867,25.400 34.533,25.400 35.200,25.400 35.800,25.400 36.200,25.000 36.200,24.400 36.200,23.900 35.700,23.400 35.200,23.400 34.533,23.400 33.867,23.400 33.200,23.400 33.700,14.900 40.500,8.000 49.100,7.600 49.100,8.167 49.100,8.733 49.100,9.300 49.100,9.900 49.500,10.300 50.100,10.300 50.600,10.300 51.100,9.800 51.100,9.300 51.100,8.733 51.100,8.167 51.100,7.600 59.600,8.100 66.500,15.000 67.000,23.500 66.267,23.500 65.533,23.500 64.800,23.500 64.300,23.500 63.800,24.000 63.800,24.500 63.800,25.100 64.200,25.500 64.800,25.500 65.533,25.500 66.267,25.500 67.000,25.500 66.500,34.000 59.600,40.900 51.100,41.400 51.100,41.400 51.100,41.400 51.100,41.400 Z M 74.000,23.500 C 72.333,23.500 70.667,23.500 69.000,23.500 68.500,13.800 60.800,6.100 51.100,5.600 51.100,4.767 51.100,3.933 51.100,3.100 51.100,2.600 50.600,2.100 50.100,2.100 49.500,2.100 49.100,2.500 49.100,3.100 49.100,3.933 49.100,4.767 49.100,5.600 39.400,6.000 31.700,13.700 31.200,23.400 29.467,23.400 27.733,23.400 26.000,23.400 25.400,23.400 25.000,23.800 25.000,24.400 24.900,24.900 25.300,25.300 25.800,25.400 25.900,25.400 25.900,25.400 26.000,25.400 27.733,25.400 29.467,25.400 31.200,25.400 31.600,35.100 39.400,42.900 49.100,43.400 49.100,44.167 49.100,44.933 49.100,45.700 49.000,46.200 49.400,46.600 49.900,46.700 50.000,46.700 50.000,46.700 50.100,46.700 50.700,46.700 51.100,46.300 51.100,45.700 51.100,44.933 51.100,44.167 51.100,43.400 60.800,42.900 68.500,35.200 69.000,25.500 70.667,25.500 72.333,25.500 74.000,25.500 74.500,25.600 74.900,25.200 75.000,24.700 75.000,24.600 75.000,24.600 75.000,24.500 75.000,23.900 74.600,23.500 74.000,23.500 74.000,23.500 74.000,23.500 74.000,23.500 Z " />
</svg>