<?xml version="1.0" encoding="UTF-8" standalone="no"?>
<!DOCTYPE svg PUBLIC "-//W3C//DTD SVG 20010904//EN" "http://www.w3.org/TR/2001/REC-SVG-20010904/DTD/svg10.dtd"[]>
<svg version="1.1" xmlns="http://www.w3.org/2000/svg" d1p1:xlink="http://www.w3.org/1999/xlink" viewBox="0 0 56 56" xmlns:d1p1="xmlns">
  <path stroke="none" fill="#f0f0f0" d="M 28.300,43.200 C 19.900,43.300 13.000,36.700 12.900,28.300 12.800,19.900 19.400,13.000 27.800,12.900 36.200,12.800 43.100,19.400 43.200,27.800 43.300,36.100 36.600,43.000 28.300,43.200 28.300,43.200 28.300,43.200 28.300,43.200 Z M 46.000,32.500 C 47.800,31.733 49.600,30.967 51.400,30.200 51.367,28.533 51.333,26.867 51.300,25.200 49.467,24.500 47.633,23.800 45.800,23.100 45.133,21.533 44.467,19.967 43.800,18.400 44.567,16.567 45.333,14.733 46.100,12.900 44.900,11.733 43.700,10.567 42.500,9.400 40.700,10.233 38.900,11.067 37.100,11.900 35.567,11.267 34.033,10.633 32.500,10.000 31.733,8.167 30.967,6.333 30.200,4.500 28.533,4.533 26.867,4.567 25.200,4.600 24.500,6.433 23.800,8.267 23.100,10.100 21.567,10.767 20.033,11.433 18.500,12.100 16.667,11.367 14.833,10.633 13.000,9.900 11.867,11.100 10.733,12.300 9.600,13.500 10.367,15.267 11.133,17.033 11.900,18.800 11.267,20.367 10.633,21.933 10.000,23.500 8.167,24.267 6.333,25.033 4.500,25.800 4.533,27.467 4.567,29.133 4.600,30.800 6.433,31.533 8.267,32.267 10.100,33.000 10.767,34.533 11.433,36.067 12.100,37.600 11.367,39.400 10.633,41.200 9.900,43.000 11.100,44.167 12.300,45.333 13.500,46.500 15.300,45.733 17.100,44.967 18.900,44.200 20.433,44.833 21.967,45.467 23.500,46.100 24.267,47.900 25.033,49.700 25.800,51.500 27.467,51.467 29.133,51.433 30.800,51.400 31.500,49.567 32.200,47.733 32.900,45.900 34.467,45.333 36.033,44.767 37.600,44.200 39.400,44.833 41.200,45.467 43.000,46.100 44.167,44.900 45.333,43.700 46.500,42.500 45.767,40.733 45.033,38.967 44.300,37.200 44.867,35.633 45.433,34.067 46.000,32.500 46.000,32.500 46.000,32.500 46.000,32.500 Z " />
  <path stroke="none" fill="#f0f0f0" d="M 28.000,44.800 C 18.700,44.800 11.200,37.200 11.200,28.000 11.200,18.700 18.800,11.200 28.000,11.200 37.300,11.200 44.800,18.800 44.800,28.000 44.800,37.300 37.300,44.800 28.000,44.800 28.000,44.800 28.000,44.800 28.000,44.800 Z M 28.000,8.900 C 17.500,8.900 8.900,17.500 8.900,28.000 8.900,38.500 17.500,47.100 28.000,47.100 38.500,47.100 47.100,38.600 47.100,28.000 47.100,17.400 38.500,8.900 28.000,8.900 28.000,8.900 28.000,8.900 28.000,8.900 Z " />
  <path stroke="none" fill="#ff9000" d="M 20.200,25.400 C 25.400,25.400 30.600,25.400 35.800,25.400 35.800,27.467 35.800,29.533 35.800,31.600 30.600,31.600 25.400,31.600 20.200,31.600 20.200,29.533 20.200,27.467 20.200,25.400 Z " />
  <path stroke="none" fill="#ff9000" d="M 31.082,20.677 C 31.082,25.877 31.082,31.077 31.082,36.277 29.016,36.277 26.949,36.277 24.882,36.277 24.882,31.077 24.882,25.877 24.882,20.677 26.949,20.677 29.016,20.677 31.082,20.677 Z " />
</svg>