<?xml version="1.0" encoding="utf-8"?>
<!-- Generator: Adobe Illustrator 16.0.3, SVG Export Plug-In . SVG Version: 6.00 Build 0)  -->
<!DOCTYPE svg PUBLIC "-//W3C//DTD SVG 1.1//EN" "http://www.w3.org/Graphics/SVG/1.1/DTD/svg11.dtd">
<svg version="1.1" id="Frosty_Editor_v1.0.5.6" xmlns:d1p1="xmlns" d1p1:xlink="http://www.w3.org/1999/xlink"
	 xmlns="http://www.w3.org/2000/svg" xmlns:xlink="http://www.w3.org/1999/xlink" x="0px" y="0px" width="1920px" height="1920px"
	 viewBox="0 0 1920 1920" enable-background="new 0 0 1920 1920" xml:space="preserve">
<path fill="none" d="M1058.8,851.2c-10.8-21.2-43.2-58.8-54-53.601c-10.8,5.2,10.8,37.601,16.4,53.601c5.6,16,21.2,48.399,21.2,51.2
	c0,2.8,2.8,13.6-2.4,13.6s-24.4-37.6-24.4-37.6c-11.6-32.96-29.84-63.2-53.6-88.801c-5.64-3.439-12.4-4.439-18.8-2.8
	c-5.601,2.8-10.8,5.601,0,21.601s18.8,40,32.399,67.199c8,12.521,16,25.08,24,37.601c2.761,3.96,2.761,9.24,0,13.2
	c-2.8,5.6-21.6-24-21.6-24s-48.4-83.2-48.4-86C922.4,806.12,912,798.52,900,794.8c-8,5.601-5.2,16.4,5.6,40
	c8,16.12,16,32.28,24,48.4c6.28,10.8,12.521,21.6,18.801,32.399c2.8,5.2,8.399,13.2,5.6,18.801c-4.52,0-9.08,0-13.6,0
	c-13.32-21.601-26.681-43.2-40-64.801c0-5.199-13.2-24-13.2-26.8c-7.08-12.319-17.28-22.52-29.601-29.6c-2.68,0-5.319,0-8,0
	c-5.6,13.6,2.801,24.399,16,46c8.12,14.28,16.28,28.52,24.4,42.8c2.4,0,2.4,2.8,2.4,2.8s0,8-5.2,10.8
	c-4.681,1.92-10.08,0.84-13.601-2.8c-5.319-8.92-10.68-17.88-16-26.8c-60,4.4-120,8.8-180,13.2c0-16.8,0-33.601,0-50.4
	c-25.88,0-51.72,0-77.6,0c0,26.681,0,53.32,0,80c62.32,21.641,130.52,18.76,190.8-8c5.601-2.8,8-2.8,10.8,0
	c6.28,3.601,12.521,7.2,18.801,10.8C858,953.2,936,998.8,954.8,990.8c24.92-11.28,47.681-26.84,67.2-46
	c17.92-5.439,34.84-13.84,50-24.8c3.68-7.44,4.64-15.92,2.8-24C1069.48,881.08,1064.12,866.12,1058.8,851.2z"/>
<path fill="none" d="M400,926.4c-12.4,0-24.8,0-37.2,0c5.48,6.279,10.92,12.52,16.4,18.8c4.84,9.12,5.68,19.84,2.399,29.6
	c0,2.8-2.399,2.8-2.399,5.601c6.92,0,13.88,0,20.8,0c13.64-1.681,23.92-13.24,23.92-27C423.92,939.64,413.64,928.08,400,926.4
	L400,926.4z"/>
<path fill="none" d="M29.6,1136c10.92-0.6,21.64,3.32,29.6,10.8c9.28,7.96,20.44,13.48,32.4,16c20.32,2.08,40.8-1.52,59.2-10.399
	c18.8-5.601-5.6-24.4,42.8-2.801c48.4,21.601,59.2,13.2,64.4,5.2s-18-26.8-45.6-48.399c0,0-16-8-8-18.801
	c8-10.8,21.6,2.801,21.6,2.801c12.68,11.199,28.72,17.8,45.6,18.8c5.2,0,8-2.8,10.8-8c2.24-3.12,3.24-6.96,2.8-10.8
	c-19.6-15.761-40.32-30.08-62-42.801c-3.64-3.52-4.72-8.92-2.8-13.6c2.8-5.2,10.8-8,13.6-5.2c21.04,13.28,43.6,24.04,67.2,32
	c2.68-2.68,5.319-5.319,8-8c2.319-6,3.28-12.399,2.8-18.8c-12.6-16.92-30.72-28.92-51.2-34c-13.6-2.8-21.6-8-18.8-18.8
	c0-2.681,0-5.32,0-8c2.68,0,5.32,0,8,0c37.4,10.72,77.4,7.76,112.8-8.4c0.4-4.84-0.56-9.68-2.8-14c-11.32-14.52-27.8-24.12-46-26.8
	c0,0-114-29.6-184.8-4c-14.28,5.32-28.52,10.68-42.8,16C59.2,948.88,29.96,957,0,960c0,62.52,0,125.08,0,187.6
	c0.76-1.68,1.68-3.319,2.8-4.8C9.32,1135,20.12,1132.24,29.6,1136L29.6,1136z"/>
<path fill="#FF9000" d="M29.28,1508.88c7.68-14.64,15.32-29.28,23-43.96c39.6,20.72,79.16,41.4,118.76,62.08
	c-7.68,14.68-15.32,29.32-23,43.96C108.48,1550.28,68.88,1529.6,29.28,1508.88z"/>
<path fill="#FF9000" d="M273.72,1769.68c42.641-13.359,85.24-26.72,127.88-40.08c4.92,15.761,9.881,31.561,14.84,47.32
	c-42.64,13.36-85.279,26.72-127.879,40.08C283.6,1801.2,278.68,1785.44,273.72,1769.68z"/>
<path fill="#FF9000" d="M257.92,1508.28c15.68-4.96,31.4-9.92,47.12-14.88c13.4,42.399,26.8,84.84,40.16,127.279
	c-15.681,4.96-31.4,9.92-47.08,14.881C284.72,1593.12,271.28,1550.68,257.92,1508.28z"/>
<path fill="#FF9000" d="M77.08,1795.72c19.28-40.279,38.6-80.56,57.88-120.84c14.92,7.12,29.84,14.28,44.76,21.4
	c-19.32,40.319-38.6,80.6-57.92,120.88C106.88,1810,92,1802.84,77.08,1795.72z"/>
<path fill="#FF9000" d="M193.64,1361.08c42.64-13.36,85.24-26.72,127.879-40.08c4.961,15.76,9.881,31.56,14.841,47.32
	c-42.641,13.359-85.24,26.72-127.88,40.08C203.56,1392.641,198.6,1376.84,193.64,1361.08z"/>
<path fill="#FF9000" d="M297.28,1198.64c11.72-11.68,23.399-23.359,35.08-35.04c31.6,31.561,63.159,63.16,94.76,94.721
	c-11.681,11.72-23.4,23.399-35.08,35.08C360.48,1261.84,328.88,1230.24,297.28,1198.64z"/>
<path fill="#F0F0F0" d="M1072,920c-15.48,10.76-32.64,18.88-50.8,24c-19.521,19.16-42.28,34.72-67.2,46
	c-18.8,8-96.8-37.6-134.4-59.2c-6.52-3.6-13.08-7.2-19.6-10.8c-2.8-2.8-5.2-2.8-10.8,0c-60.28,26.76-128.48,29.64-190.8,8
	c0-26.68,0-53.32,0-80c26,0,52,0,78,0c0,16.92,0,33.88,0,50.8c60-4.399,120-8.8,180-13.2c5.319,8.92,10.68,17.881,16,26.801
	c3.52,3.64,8.92,4.72,13.6,2.8c5.2-2.8,5.2-5.601,5.2-10.8c0-5.2,0-2.801-2.4-2.801c-8.12-14.279-16.28-28.52-24.399-42.8
	c-13.2-21.6-21.601-32.399-16-46c2.68,0,5.319,0,8,0c12.319,7.08,22.52,17.28,29.6,29.601c0,2.8,13.2,21.6,13.2,26.8
	c13.319,21.6,26.68,43.2,40,64.8c4.52,0,9.08,0,13.6,0c2.8-5.6-2.8-13.6-5.6-18.8c-6.28-10.8-12.521-21.601-18.8-32.4
	c-8-16.12-16-32.28-24-48.399c-10.801-24-13.601-34.801-5.601-40c12,3.72,22.4,11.319,29.601,21.6c0,2.8,48.399,86,48.399,86
	s18.8,29.6,21.601,24c2.76-3.96,2.76-9.24,0-13.2c-8-12.52-16-25.08-24-37.6C960.8,848.4,952.8,824,942,808s-5.6-18.8,0-21.6
	c6.4-1.641,13.16-0.641,18.8,2.8c24.44,26.08,43.08,57.04,54.8,90.8c0,0,18.801,37.6,24.4,37.6s2.4-10.8,2.4-13.6
	s-16-34.8-21.2-51.2c-5.2-16.399-26.8-48-16.4-53.6c10.4-5.601,43.2,32.399,54,53.6c5.32,15.32,10.681,30.681,16,46
	C1076.04,906,1075.04,913.4,1072,920L1072,920z M400,980.4c-6.92,0-13.88,0-20.8,0c0-2.801,2.399-2.801,2.399-5.601
	c3.28-9.76,2.44-20.479-2.399-29.6c-5.48-6.28-10.92-12.521-16.4-18.8c12.4,0,24.8,0,37.2,0c13.64,1.68,23.92,13.239,23.92,27
	C423.92,967.16,413.64,978.72,400,980.4L400,980.4z M1397.2,690c-17.88,0-35.72,0-53.601,0c-3.6,17.08-7.199,34.12-10.8,51.2
	c-206,0-412,0-618,0c-40-23.32-80-46.681-120-70c-26.28-34-52.52-68-78.8-102c-4.2-2.44-9.4-2.44-13.6,0c-5.2,2.8-5.2,8-2.4,13.6
	c26.68,34.92,53.32,69.88,80,104.8c21.48,12.521,42.92,25.08,64.4,37.601c-100.12,0-200.28,0-300.4,0
	c-35.64-28.84-61.04-68.4-72.4-112.8c0-5.601-5.6-10.801-10.8-8c-5.2,2.8-10.8,5.199-8,10.399c8.04,42.48,29.68,81.24,61.601,110.4
	c-99.2,0-112.8,0-118,5.2c-9.88,7.199-19.72,14.399-29.6,21.6c-55.6,1.32-111.2,2.68-166.8,4c0,68,0,136,0,204
	c29.96-3,59.2-11.12,86.4-24c14.28-5.32,28.52-10.68,42.8-16c70-26.8,185.2,2.8,185.2,2.8c18.239,3.08,34.6,13.12,45.6,28
	c1.96,4.12,2.76,8.681,2.4,13.2c-35.4,16.16-75.4,19.12-112.8,8.4c-2.68,0-5.32,0-8,0c0,2.68,0,5.319,0,8
	c-2.8,10.8,5.2,16,18.8,18.8c20.6,5.28,38.72,17.6,51.2,34.8c0.48,6.4-0.479,12.8-2.8,18.8c-2.68,2.681-5.32,5.32-8,8
	c-23.6-7.96-46.16-18.72-67.2-32c-2.8-2.8-10.8,0-13.6,5.2c-1.92,4.68-0.84,10.08,2.8,13.6c21.68,12.721,42.4,27.04,62,42.801
	c0.44,3.84-0.56,7.68-2.8,10.8c-2.8,5.2-5.6,8-10.8,8c-16.88-1-32.92-7.601-45.6-18.8c0,0-13.6-13.2-21.6-2.801
	c-8,10.4,8,18.801,8,18.801c26.8,21.6,51.2,40,45.6,48.399c-5.6,8.4-16,16.4-64.4-5.2c-48.4-21.6-24-2.8-42.8,2.801
	c-18.4,8.88-38.88,12.479-59.2,10.399c-11.96-2.52-23.12-8.04-32.4-16c-7.96-7.479-18.68-11.399-29.6-10.8
	c-9.72-3.48-20.56-0.24-26.8,8c-1.12,1.48-2.04,3.12-2.8,4.8c0,8.8,0,17.601,0,26.4c2.8,0,5.6,0,8.4,0c3.72,0,7.48,0,11.2,0
	c0,0,0-32,26.8-8c38.68,19.2,78.8,35.399,120,48.399c15.96-7.479,27.08-22.52,29.6-40c45.6,21.601,59.2,18.801,75.2-2.399
	c4.68-4.24,7.56-10.12,8-16.4c0-8-5.2-13.2-10.8-21.2c1.88,0,3.72,0,5.6,0c10.48-2.239,19.32-9.16,24-18.8
	c6.64-6.239,9.64-15.439,8-24.399c0.36-2.881-0.52-5.801-2.4-8c10.64-0.44,19.479-8.28,21.2-18.801c6.84-10.239,8.88-22.92,5.6-34.8
	c-4.52-5.479-9.08-10.92-13.6-16.399c5.319,0,10.68,0,16,0c20.68,1.88,41.319,3.72,62,5.6c19.92-0.28,39.039-7.96,53.6-21.6
	c0,4.52,0,9.08,0,13.6c5.32,0,10.68,0,16,0c0,7.08,0,14.12,0,21.2c0.92,0,1.88,0,2.8,0c-2.8,120-2.8,234-2.8,344
	c0.561,5.72,5.08,10.24,10.8,10.8c34.92,0,69.88,0,104.8,0c0-2.8,2.801-5.6,2.801-8c0-124.28,0-248.52,0-372.8
	c6.279,0,12.52,0,18.8,0c0-18.8,0-37.601,0-56.4c65.08,22.92,136.6,19.04,198.8-10.8c4.52,3.6,9.08,7.2,13.6,10.8
	c43.48,28.76,91.681,49.641,142.4,61.601c2.68,0,5.32,0,8,0c28.04-10.961,53.6-27.44,75.2-48.4c2.68-1.72,5.319-3.48,8-5.2
	c18.76-0.68,35.88-10.76,45.6-26.8c6.28-13.56,7.28-28.96,2.8-43.2c-1.72-4.399-3.479-8.8-5.199-13.2
	c48.279-2.68,96.52-5.319,144.8-8c11.72,0,23.479,0,35.2,0c0-3.6,0-7.199,0-10.8c1.84-20.479,12.479-39.2,29.199-51.2
	c43.08,0,86.12,0,129.2,0c0-21.479,0-42.92,0-64.399c-9.88,0-19.72,0-29.6,0C1398.52,724.12,1397.88,707.08,1397.2,690z"/>
<path fill="#FF9000" d="M1668.8,917.6C1814.8,875.2,1818,776,1920,776l0,0c-102,0-105.2-99.2-251.2-141.6
	c-146-42.4-212,98.399-212,98.399c0,28.92,0,57.88,0,86.8C1456.8,819.6,1522.8,960,1668.8,917.6L1668.8,917.6z"/>
</svg>
