<?xml version="1.0" encoding="UTF-8" standalone="no"?>
<!DOCTYPE svg PUBLIC "-//W3C//DTD SVG 20010904//EN" "http://www.w3.org/TR/2001/REC-SVG-20010904/DTD/svg10.dtd"[]>
<svg version="1.1" xmlns="http://www.w3.org/2000/svg" d1p1:xlink="http://www.w3.org/1999/xlink" viewBox="0 0 100 50" xmlns:d1p1="xmlns">
  <path stroke="none" fill="#f0f0f0" d="M 59.500,14.300 C 59.500,14.967 59.500,15.633 59.500,16.300 65.167,15.967 70.833,15.633 76.500,15.300 70.833,14.967 65.167,14.633 59.500,14.300 59.500,14.300 59.500,14.300 59.500,14.300 Z " />
  <path stroke="none" fill="#f0f0f0" d="M 63.500,23.000 C 63.500,23.667 63.500,24.333 63.500,25.000 69.167,24.667 74.833,24.333 80.500,24.000 74.833,23.667 69.167,23.333 63.500,23.000 63.500,23.000 63.500,23.000 63.500,23.000 Z " />
  <path stroke="none" fill="#f0f0f0" d="M 67.700,30.800 C 67.700,31.467 67.700,32.133 67.700,32.800 73.367,32.467 79.033,32.133 84.700,31.800 79.033,31.467 73.367,31.133 67.700,30.800 67.700,30.800 67.700,30.800 67.700,30.800 Z " />
  <path stroke="none" fill="#f0f0f0" d="M 63.000,40.000 C 59.600,36.200 52.700,28.800 52.600,28.800 51.633,30.067 50.667,31.333 49.700,32.600 53.167,35.800 56.633,39.000 60.100,42.200 60.648,43.016 61.708,43.313 62.600,42.900 62.976,42.746 63.273,42.446 63.423,42.069 63.574,41.692 63.566,41.271 63.400,40.900 63.309,40.583 63.174,40.280 63.000,40.000 63.000,40.000 63.000,40.000 63.000,40.000 Z " />
  <path stroke="none" fill="#f0f0f0" d="M 39.600,14.800 C 41.296,14.229 42.227,12.410 41.700,10.700 39.633,11.367 37.567,12.033 35.500,12.700 36.071,14.396 37.890,15.327 39.600,14.800 39.600,14.800 39.600,14.800 39.600,14.800 Z " />
  <path stroke="none" fill="#f0f0f0" d="M 37.100,7.200 C 34.400,8.100 34.500,10.200 34.400,12.400 37.100,11.533 39.800,10.667 42.500,9.800 41.200,8.100 40.000,6.200 37.100,7.200 37.100,7.200 37.100,7.200 37.100,7.200 Z " />
  <path stroke="none" fill="#f0f0f0" d="M 51.500,37.400 C 49.633,36.567 47.767,35.733 45.900,34.900 47.300,33.200 48.700,31.600 50.000,29.900 50.523,29.333 50.961,28.693 51.300,28.000 52.073,26.839 52.033,25.318 51.200,24.200 49.800,22.200 45.800,14.200 44.500,14.000 43.200,13.800 41.600,14.600 40.000,15.800 39.394,16.296 38.943,16.956 38.700,17.700 37.240,16.991 35.619,16.680 34.000,16.800 29.000,16.800 24.000,16.800 19.000,16.800 19.000,17.167 19.000,17.533 19.000,17.900 21.800,17.900 24.600,17.900 27.400,17.900 27.633,18.267 27.867,18.633 28.100,19.000 30.233,19.000 32.367,19.000 34.500,19.000 34.600,19.700 35.400,19.800 35.800,19.800 36.417,19.870 37.014,19.552 37.300,19.000 37.600,19.067 37.900,19.133 38.200,19.200 38.027,19.854 37.793,20.490 37.500,21.100 36.000,20.633 34.500,20.167 33.000,19.700 31.633,19.700 30.267,19.700 28.900,19.700 28.400,20.700 29.000,21.200 30.300,21.800 32.283,22.781 34.319,23.649 36.400,24.400 37.800,24.800 38.700,25.000 39.700,23.900 40.333,23.306 40.843,22.592 41.200,21.800 42.600,23.500 44.000,25.200 45.400,26.900 44.300,28.800 43.300,30.800 42.300,32.700 41.300,34.600 41.000,37.000 43.800,38.300 46.600,39.600 48.100,39.800 50.200,40.600 52.300,41.400 52.700,40.500 53.000,39.800 53.300,39.100 52.800,38.000 51.500,37.400 51.500,37.400 51.500,37.400 51.500,37.400 Z " />
</svg>