<?xml version="1.0" encoding="UTF-8" standalone="no"?>
<!DOCTYPE svg PUBLIC "-//W3C//DTD SVG 20010904//EN" "http://www.w3.org/TR/2001/REC-SVG-20010904/DTD/svg10.dtd"[]>
<svg version="1.1" xmlns="http://www.w3.org/2000/svg" d1p1:xlink="http://www.w3.org/1999/xlink" viewBox="0 0 114 114" xmlns:d1p1="xmlns">
  <path stroke="none" fill="#f0f0f0" d="M 28.672,69.074 C 28.635,69.795 28.617,70.520 28.617,71.250 28.617,94.860 47.835,114.000 71.542,114.000 93.089,114.000 110.927,98.190 114.000,77.583 109.599,77.583 105.198,77.583 100.797,77.583 97.790,91.041 85.730,101.103 71.311,101.103 54.628,101.103 41.104,87.634 41.104,71.020 41.104,54.405 54.628,40.936 71.311,40.936 85.326,40.936 97.112,50.442 100.523,63.333 104.926,63.333 109.330,63.333 113.733,63.333 110.005,43.506 92.533,28.500 71.542,28.500 52.973,28.500 37.158,40.242 31.175,56.678 20.694,54.882 12.719,45.785 12.719,34.833 12.719,22.591 22.684,12.667 34.976,12.667 40.777,12.667 46.059,14.876 50.020,18.497 54.411,16.711 59.075,15.449 63.931,14.786 57.566,5.842 47.056,0.000 35.168,0.000 15.745,0.000 0.000,15.595 0.000,34.833 0.000,51.873 12.352,66.055 28.672,69.074 28.672,69.074 28.672,69.074 28.672,69.074 Z " />
</svg>