<?xml version="1.0" encoding="UTF-8" standalone="no"?>
<!DOCTYPE svg PUBLIC "-//W3C//DTD SVG 20010904//EN" "http://www.w3.org/TR/2001/REC-SVG-20010904/DTD/svg10.dtd"[]>
<svg version="1.1" xmlns="http://www.w3.org/2000/svg" d1p1:xlink="http://www.w3.org/1999/xlink" viewBox="0 0 48 48" xmlns:d1p1="xmlns">
  <path stroke="none" fill="#f0f0f0" d="M 32.300,30.300 C 31.700,30.800 30.400,31.800 28.000,31.200 26.700,30.900 25.800,29.800 25.700,29.000 25.600,28.400 25.900,27.100 26.400,26.800 27.000,26.500 29.600,25.100 32.200,25.700 33.100,26.000 32.700,29.900 32.300,30.300 32.300,30.300 32.300,30.300 32.300,30.300 32.300,30.300 32.300,30.300 32.300,30.300 Z M 25.500,31.900 C 25.200,32.800 24.000,35.000 24.000,35.000 23.967,35.000 23.933,35.000 23.900,35.000 23.900,35.000 22.700,32.500 22.500,31.500 22.200,30.500 22.600,29.900 23.200,29.600 23.500,29.400 23.700,31.400 23.900,31.700 23.967,31.700 24.033,31.700 24.100,31.700 24.300,31.400 24.500,29.400 24.800,29.600 25.300,29.900 25.800,30.900 25.500,31.900 25.500,31.900 25.500,31.900 25.500,31.900 25.500,31.900 25.500,31.900 25.500,31.900 Z M 22.200,29.000 C 22.000,29.800 21.200,30.800 19.900,31.200 17.600,31.800 16.300,30.700 15.700,30.300 15.300,30.000 15.000,26.200 15.800,25.800 18.000,24.700 20.900,26.600 21.500,26.900 22.000,27.200 22.300,28.400 22.200,29.000 22.200,29.000 22.200,29.000 22.200,29.000 22.200,29.000 22.200,29.000 22.200,29.000 Z M 33.400,23.400 C 33.400,22.300 34.100,21.100 34.100,21.100 33.200,24.600 34.900,25.100 34.900,25.100 34.900,25.100 39.200,22.000 35.400,15.100 33.100,10.800 29.200,9.400 26.600,8.900 26.100,10.200 25.600,11.500 25.100,12.800 26.900,12.667 28.700,12.533 30.500,12.400 27.533,16.167 24.567,19.933 21.600,23.700 22.400,21.000 23.200,18.300 24.000,15.600 22.567,15.733 21.133,15.867 19.700,16.000 19.700,16.000 21.000,12.100 22.100,8.800 22.000,8.800 21.900,8.800 21.800,8.800 19.200,9.200 15.000,10.500 12.500,15.100 8.800,22.000 13.300,25.100 13.300,25.100 13.300,25.100 14.700,24.600 13.800,21.100 13.800,21.100 14.500,22.300 14.500,23.400 14.500,24.500 14.700,25.900 13.600,27.500 12.500,29.100 12.400,28.800 12.400,29.600 12.400,30.400 14.700,34.400 14.700,34.400 14.700,34.400 18.400,35.000 18.400,35.100 18.400,35.100 18.400,35.100 18.400,35.100 18.467,35.700 18.533,36.300 18.600,36.900 18.600,37.100 19.200,38.300 19.200,38.300 19.900,38.500 19.800,38.700 20.500,38.900 20.667,38.033 20.833,37.167 21.000,36.300 21.067,37.167 21.133,38.033 21.200,38.900 22.100,39.000 22.600,39.300 23.500,39.300 23.667,38.300 23.833,37.300 24.000,36.300 24.133,37.300 24.267,38.300 24.400,39.300 25.300,39.300 25.800,39.000 26.600,38.900 26.700,38.033 26.800,37.167 26.900,36.300 27.033,37.167 27.167,38.033 27.300,38.900 28.700,38.700 28.600,38.400 28.700,38.300 28.700,38.300 29.300,37.100 29.300,36.900 29.433,36.367 29.567,35.833 29.700,35.300 29.700,35.200 33.200,34.400 33.200,34.400 33.200,34.400 35.300,30.500 35.300,29.600 35.300,28.800 35.400,29.000 34.300,27.500 33.200,25.900 33.400,24.500 33.400,23.400 33.400,23.400 33.400,23.400 33.400,23.400 Z " />
</svg>