<?xml version="1.0" encoding="utf-8"?>
<!-- Generator: Adobe Illustrator 16.0.3, SVG Export Plug-In . SVG Version: 6.00 Build 0)  -->
<!DOCTYPE svg PUBLIC "-//W3C//DTD SVG 1.1//EN" "http://www.w3.org/Graphics/SVG/1.1/DTD/svg11.dtd">
<svg version="1.1" xmlns:d1p1="xmlns" d1p1:xlink="http://www.w3.org/1999/xlink"
	 xmlns="http://www.w3.org/2000/svg" xmlns:xlink="http://www.w3.org/1999/xlink" x="0px" y="0px" width="100px" height="50px"
	 viewBox="0 0 100 50" enable-background="new 0 0 100 50" xml:space="preserve">
<path fill="#F0F0F0" d="M69.4,31.5c-1.334,0-2.668,0-4,0c0.3-0.268,0.6-0.533,0.899-0.8C65,29.4,63.7,28.1,62.4,26.8
	C61.1,28.1,59.8,29.4,58.5,30.7c0.3,0.267,0.6,0.532,0.9,0.8c-2.4,0-4.801,0-7.2,0c0-0.667,0-1.333,0-2c1-0.967,2-1.934,3-2.9
	C53.9,25.3,52.6,24,51.3,22.7C50,24,48.7,25.3,47.4,26.6c1,0.967,2,1.934,3,2.9c0,0.667,0,1.333,0,2c-2.3,0-4.6,0-6.9,0
	c-0.433-0.434-0.867-0.867-1.3-1.3c-0.467,0.433-0.933,0.866-1.4,1.3c-2.533,0-5.067,0-7.6,0c-0.634-1.805-1.004-3.689-1.1-5.6
	c4.4,0,8.8,0,13.2,0c0.003-0.612,0.104-1.22,0.3-1.8c-4.5,0-9,0-13.5,0c0.455-9.912,8.388-17.845,18.3-18.3c0,4.733,0,9.467,0,14.2
	c0.6,0,1.2,0,1.8,0c0-4.733,0-9.467,0-14.2c9.933,0.408,17.892,8.367,18.3,18.3c-4.467,0-8.934,0-13.4,0
	c0.116,0.593,0.184,1.196,0.2,1.8c4.4,0,8.8,0,13.2,0C70.404,27.811,70.034,29.695,69.4,31.5L69.4,31.5z M52.2,44.2c0-4,0-8,0-12
	c2.6,0,5.2,0,7.8,0c0.8,0.767,1.6,1.532,2.4,2.3c0.767-0.768,1.533-1.533,2.3-2.3c1.5,0,3,0,4.5,0
	C66.359,39.174,59.723,43.859,52.2,44.2L52.2,44.2z M33.5,32.2c2.233,0,4.467,0,6.7,0c-0.633,0.633-1.267,1.267-1.9,1.899
	c1.3,1.301,2.6,2.601,3.9,3.9c1.3-1.3,2.6-2.6,3.9-3.9c-0.633-0.633-1.267-1.267-1.9-1.899c2.067,0,4.133,0,6.2,0c0,4,0,8,0,12
	C42.889,43.895,36.263,39.191,33.5,32.2L33.5,32.2z M51.3,4c-8.494,0-16.151,5.116-19.401,12.964
	c-3.251,7.847-1.454,16.879,4.552,22.886c6.006,6.006,15.038,7.803,22.885,4.551C67.184,41.15,72.3,33.494,72.3,25
	c0-5.57-2.212-10.911-6.151-14.849C62.211,6.212,56.87,4,51.3,4L51.3,4z"/>
</svg>
