<?xml version="1.0" encoding="UTF-8" standalone="no"?>
<!DOCTYPE svg PUBLIC "-//W3C//DTD SVG 20010904//EN" "http://www.w3.org/TR/2001/REC-SVG-20010904/DTD/svg10.dtd"[]>
<svg version="1.1" xmlns="http://www.w3.org/2000/svg" d1p1:xlink="http://www.w3.org/1999/xlink" viewBox="0 0 128 128" xmlns:d1p1="xmlns">
  <path stroke="none" fill="#f0f0f0" d="M 123.000,12.000 C 83.333,12.000 43.667,12.000 4.000,12.000 4.000,37.000 4.000,62.000 4.000,87.000 43.667,87.000 83.333,87.000 123.000,87.000 123.000,62.000 123.000,37.000 123.000,12.000 123.000,12.000 123.000,12.000 123.000,12.000 123.000,12.000 123.000,12.000 123.000,12.000 Z M 119.000,16.000 C 119.000,38.333 119.000,60.667 119.000,83.000 82.000,83.000 45.000,83.000 8.000,83.000 8.000,60.667 8.000,38.333 8.000,16.000 45.000,16.000 82.000,16.000 119.000,16.000 " />
  <path stroke="none" fill="#f0f0f0" d="M 92.000,99.000 C 73.000,99.000 54.000,99.000 35.000,99.000 35.000,105.333 35.000,111.667 35.000,118.000 54.000,118.000 73.000,118.000 92.000,118.000 92.000,111.667 92.000,105.333 92.000,99.000 92.000,99.000 92.000,99.000 92.000,99.000 92.000,99.000 92.000,99.000 92.000,99.000 Z M 88.000,103.000 C 88.000,106.667 88.000,110.333 88.000,114.000 71.667,114.000 55.333,114.000 39.000,114.000 39.000,110.333 39.000,106.667 39.000,103.000 55.333,103.000 71.667,103.000 88.000,103.000 " />
  <path stroke="none" fill="#f0f0f0" d="M 4.000,91.000 C 43.667,91.000 83.333,91.000 123.000,91.000 123.000,92.333 123.000,93.667 123.000,95.000 83.333,95.000 43.667,95.000 4.000,95.000 4.000,93.667 4.000,92.333 4.000,91.000 Z " />
</svg>