<?xml version="1.0" encoding="UTF-8" standalone="no"?>
<!DOCTYPE svg PUBLIC "-//W3C//DTD SVG 20010904//EN" "http://www.w3.org/TR/2001/REC-SVG-20010904/DTD/svg10.dtd"[]>
<svg version="1.1" xmlns="http://www.w3.org/2000/svg" d1p1:xlink="http://www.w3.org/1999/xlink" viewBox="0 0 60 60" xmlns:d1p1="xmlns">
  <path stroke="none" fill="#f0f0f0" d="M 30.000,8.800 C 31.600,13.933 33.200,19.067 34.800,24.200 40.000,24.200 45.200,24.200 50.400,24.200 46.200,27.367 42.000,30.533 37.800,33.700 39.400,38.867 41.000,44.033 42.600,49.200 38.400,46.000 34.200,42.800 30.000,39.600 25.800,42.800 21.600,46.000 17.400,49.200 19.000,44.033 20.600,38.867 22.200,33.700 18.000,30.533 13.800,27.367 9.600,24.200 14.800,24.200 20.000,24.200 25.200,24.200 26.800,19.067 28.400,13.933 30.000,8.800 Z " />
  <path stroke="none" fill="#f0f0f0" d="M 30.000,3.600 C 15.400,3.600 3.600,15.400 3.600,30.000 3.600,44.600 15.400,56.400 30.000,56.400 44.600,56.400 56.400,44.600 56.400,30.000 56.400,15.400 44.600,3.600 30.000,3.600 30.000,3.600 30.000,3.600 30.000,3.600 Z M 30.000,60.000 C 13.500,60.000 0.000,46.500 0.000,30.000 0.000,13.500 13.500,0.000 30.000,0.000 46.500,0.000 60.000,13.500 60.000,30.000 60.000,46.500 46.500,60.000 30.000,60.000 30.000,60.000 30.000,60.000 30.000,60.000 Z " />
</svg>