<?xml version="1.0" encoding="UTF-8" standalone="no"?>
<!DOCTYPE svg PUBLIC "-//W3C//DTD SVG 20010904//EN" "http://www.w3.org/TR/2001/REC-SVG-20010904/DTD/svg10.dtd"[]>
<svg version="1.1" xmlns="http://www.w3.org/2000/svg" d1p1:xlink="http://www.w3.org/1999/xlink" viewBox="0 0 48 48" xmlns:d1p1="xmlns">
  <path stroke="none" fill="#f0f0f0" d="M 27.300,25.780 C 21.810,31.017 16.320,36.253 10.830,41.490 10.830,41.490 10.830,41.490 10.830,41.490 15.443,35.470 20.057,29.450 24.670,23.430 25.547,24.213 26.423,24.997 27.300,25.780 27.300,25.780 27.300,25.780 27.300,25.780 Z " />
  <path stroke="none" fill="#f0f0f0" d="M 30.840,23.830 C 33.953,20.347 37.067,16.863 40.180,13.380 42.720,10.540 44.640,5.090 44.640,5.090 44.307,4.793 43.973,4.497 43.640,4.200 43.640,4.200 38.000,7.200 35.900,9.570 32.790,13.047 29.680,16.523 26.570,20.000 26.380,20.443 26.190,20.887 26.000,21.330 27.183,22.387 28.367,23.443 29.550,24.500 29.980,24.277 30.410,24.053 30.840,23.830 Z " />
  <path stroke="none" fill="#f0f0f0" d="M 32.080,35.110 C 27.747,38.083 23.413,41.057 19.080,44.030 19.080,44.030 19.080,44.030 19.080,44.030 22.900,40.423 26.720,36.817 30.540,33.210 31.053,33.843 31.567,34.477 32.080,35.110 32.080,35.110 32.080,35.110 32.080,35.110 Z " />
  <path stroke="none" fill="#f0f0f0" d="M 34.710,34.160 C 37.227,32.123 39.743,30.087 42.260,28.050 43.853,26.544 45.203,24.800 46.260,22.880 46.067,22.640 45.873,22.400 45.680,22.160 45.680,22.160 41.460,23.600 39.760,25.000 37.247,27.037 34.733,29.073 32.220,31.110 32.050,31.390 31.880,31.670 31.710,31.950 32.403,32.807 33.097,33.663 33.790,34.520 34.097,34.400 34.403,34.280 34.710,34.160 Z " />
  <path stroke="none" fill="#f0f0f0" d="M 10.490,30.450 C 7.497,34.770 4.503,39.090 1.510,43.410 1.510,43.410 1.510,43.410 1.510,43.410 3.800,38.680 6.090,33.950 8.380,29.220 9.083,29.630 9.787,30.040 10.490,30.450 10.490,30.450 10.490,30.450 10.490,30.450 Z " />
  <path stroke="none" fill="#f0f0f0" d="M 12.620,28.630 C 14.243,25.830 15.867,23.030 17.490,20.230 18.433,18.263 19.064,16.161 19.360,14.000 19.093,13.843 18.827,13.687 18.560,13.530 18.560,13.530 15.160,16.370 14.060,18.250 12.437,21.050 10.813,23.850 9.190,26.650 9.127,26.967 9.063,27.283 9.000,27.600 9.953,28.153 10.907,28.707 11.860,29.260 12.113,29.050 12.367,28.840 12.620,28.630 Z " />
</svg>