<?xml version="1.0" encoding="UTF-8" standalone="no"?>
<!DOCTYPE svg PUBLIC "-//W3C//DTD SVG 20010904//EN" "http://www.w3.org/TR/2001/REC-SVG-20010904/DTD/svg10.dtd"[]>
<svg version="1.1" xmlns="http://www.w3.org/2000/svg" d1p1:xlink="http://www.w3.org/1999/xlink" viewBox="0 0 64 64" xmlns:d1p1="xmlns">
  <path stroke="none" fill="#f0f0f0" d="M 41.000,42.000 C 39.000,42.000 37.000,42.000 35.000,42.000 35.000,44.000 35.000,46.000 35.000,48.000 33.000,48.000 31.000,48.000 29.000,48.000 29.000,46.000 29.000,44.000 29.000,42.000 27.000,42.000 25.000,42.000 23.000,42.000 23.000,40.000 23.000,38.000 23.000,36.000 25.000,36.000 27.000,36.000 29.000,36.000 29.000,34.000 29.000,32.000 29.000,30.000 31.000,30.000 33.000,30.000 35.000,30.000 35.000,32.000 35.000,34.000 35.000,36.000 37.000,36.000 39.000,36.000 41.000,36.000 41.000,38.000 41.000,40.000 41.000,42.000 Z M 44.800,22.600 C 44.622,22.864 44.318,23.016 44.000,23.000 36.000,23.000 28.000,23.000 20.000,23.000 19.682,23.016 19.378,22.864 19.200,22.600 18.133,21.267 17.067,19.933 16.000,18.600 16.000,29.733 16.000,40.867 16.000,52.000 16.003,53.103 16.897,53.997 18.000,54.000 27.333,54.000 36.667,54.000 46.000,54.000 47.103,53.997 47.997,53.103 48.000,52.000 48.000,40.867 48.000,29.733 48.000,18.600 46.933,19.933 45.867,21.267 44.800,22.600 Z M 32.000,14.000 C 32.809,14.000 33.538,14.487 33.848,15.235 34.157,15.982 33.986,16.842 33.414,17.414 32.842,17.986 31.982,18.157 31.235,17.848 30.487,17.538 30.000,16.809 30.000,16.000 30.003,14.897 30.897,14.003 32.000,14.000 32.000,14.000 32.000,14.000 32.000,14.000 Z M 43.500,21.000 C 45.000,19.133 46.500,17.267 48.000,15.400 48.000,14.267 48.000,13.133 48.000,12.000 47.997,10.897 47.103,10.003 46.000,10.000 36.667,10.000 27.333,10.000 18.000,10.000 16.897,10.003 16.003,10.897 16.000,12.000 16.000,13.133 16.000,14.267 16.000,15.400 17.500,17.267 19.000,19.133 20.500,21.000 28.167,21.000 35.833,21.000 43.500,21.000 Z " />
</svg>