<?xml version="1.0" encoding="UTF-8" standalone="no"?>
<!DOCTYPE svg PUBLIC "-//W3C//DTD SVG 20010904//EN" "http://www.w3.org/TR/2001/REC-SVG-20010904/DTD/svg10.dtd"[]>
<svg version="1.1" xmlns="http://www.w3.org/2000/svg" d1p1:xlink="http://www.w3.org/1999/xlink" viewBox="0 0 100 50" xmlns:d1p1="xmlns">
  <path stroke="none" fill="#f0f0f0" d="M 61.600,21.000 C 58.400,21.000 61.400,21.800 61.400,21.800 61.400,21.800 64.100,22.200 64.100,23.500 64.100,24.800 51.700,25.300 49.900,25.400 48.100,25.500 35.900,25.100 35.900,23.500 35.900,21.900 38.600,21.800 38.600,21.800 38.600,21.800 41.600,21.000 38.400,21.000 37.000,21.000 31.700,21.700 31.700,24.000 31.700,26.300 43.000,27.900 49.900,27.900 56.800,27.900 68.300,26.300 68.300,24.000 68.300,21.700 63.000,21.000 61.600,21.000 61.600,21.000 61.600,21.000 61.600,21.000 Z " />
  <path stroke="none" fill="#f0f0f0" d="M 53.300,31.600 C 51.100,31.600 48.900,31.600 46.700,31.600 46.700,33.367 46.700,35.133 46.700,36.900 45.567,36.900 44.433,36.900 43.300,36.900 45.533,39.467 47.767,42.033 50.000,44.600 52.233,42.033 54.467,39.467 56.700,36.900 55.567,36.900 54.433,36.900 53.300,36.900 53.300,35.133 53.300,33.367 53.300,31.600 53.300,31.600 53.300,31.600 53.300,31.600 Z " />
  <path stroke="none" fill="#f0f0f0" d="M 45.500,14.300 C 45.500,12.480 46.596,10.839 48.278,10.143 49.959,9.446 51.895,9.831 53.182,11.118 54.469,12.405 54.854,14.341 54.157,16.022 53.461,17.704 51.820,18.800 50.000,18.800 48.807,18.800 47.662,18.326 46.818,17.482 45.974,16.638 45.500,15.493 45.500,14.300 45.500,14.300 45.500,14.300 45.500,14.300 Z M 58.900,14.300 C 55.933,11.333 52.967,8.367 50.000,5.400 47.033,8.367 44.067,11.333 41.100,14.300 44.067,17.267 47.033,20.233 50.000,23.200 52.967,20.233 55.933,17.267 58.900,14.300 Z " />
</svg>