<?xml version="1.0" encoding="utf-8"?>
<!-- Generator: Adobe Illustrator 16.0.3, SVG Export Plug-In . SVG Version: 6.00 Build 0)  -->
<!DOCTYPE svg PUBLIC "-//W3C//DTD SVG 1.1//EN" "http://www.w3.org/Graphics/SVG/1.1/DTD/svg11.dtd" [
	<!ENTITY st0 "fill-rule:evenodd;clip-rule:evenodd;fill:#F7901E;">
]>
<svg version="1.1" id="Layer_1" xmlns="http://www.w3.org/2000/svg" xmlns:xlink="http://www.w3.org/1999/xlink" x="0px" y="0px"
	 width="168.067px" height="168.249px" viewBox="0 0 168.067 168.249" style="enable-background:new 0 0 168.067 168.249;"
	 xml:space="preserve">
<g>
	<path style="&st0;" d="M168.065,28.42c-0.441,5.906-2.732,11.613-7.427,16.306c-35.093,35.082-70.157,70.19-105.296,105.226
		c-1.341,1.337-3.23,2.338-5.048,2.948c-15.073,5.063-30.179,10.03-45.312,14.913c-1.402,0.453-4.015,0.68-4.39,0.036
		c-0.736-1.263-0.744-3.358-0.264-4.857c4.851-15.146,9.81-30.258,14.89-45.328c0.658-1.952,1.88-3.908,3.337-5.369
		C53.237,77.508,87.972,42.776,122.73,8.068c8.032-8.02,17.377-10.07,26.855-6.108C159.687,6.181,168.2,18.078,168.065,28.42z
		 M53.494,143.104c30.777-30.779,61.919-61.923,92.322-92.33c-9.437-9.483-19.236-19.329-28.683-28.82
		C86.426,52.643,55.369,83.68,24.713,114.317C34.32,123.927,44.151,133.76,53.494,143.104z M151.196,46.585
		c7.15-6.271,13.994-12.764,10.987-23.927c-2.101-7.798-11.895-16.656-20.028-17.424c-9.658-0.913-15.359,5.367-20.553,11.62
		C131.616,26.914,141.325,36.669,151.196,46.585z M48.806,148.039c-9.774-9.78-19.15-19.161-28.743-28.76
		c-1.476,4.369-3.021,8.876-4.52,13.397c-4.182,12.623-4.173,12.626,5.86,21.605c0.124,0.111,0.22,0.297,0.361,0.338
		c1.333,0.383,2.86,1.355,3.979,1.012C33.463,153.26,41.1,150.612,48.806,148.039z"/>
	<path style="&st0;" d="M44.379,114.47c-0.518-2.361-1.266-3.793-0.96-4.945c0.299-1.13,1.639-2.008,2.575-2.943
		c21.205-21.218,42.416-42.429,63.627-63.639c0.823-0.824,1.544-1.909,2.544-2.354c0.891-0.396,2.736-0.46,3.033,0.021
		c0.551,0.898,0.568,2.38,0.266,3.467c-0.236,0.846-1.286,1.473-1.992,2.18C92.03,67.709,70.591,89.164,49.127,110.593
		C48.004,111.714,46.665,112.617,44.379,114.47z"/>
	<path style="&st0;" d="M56.643,126.36c-0.714-2.199-1.618-3.549-1.382-4.656c0.24-1.13,1.543-2.078,2.476-3.012
		c21.317-21.338,42.647-42.663,63.978-63.987c0.824-0.824,1.557-1.941,2.559-2.326c0.895-0.343,2.482-0.231,3.068,0.364
		c0.568,0.577,0.633,2.21,0.229,3.048c-0.55,1.14-1.737,1.981-2.679,2.922c-21.093,21.091-42.185,42.183-63.293,63.256
		C60.351,123.217,58.958,124.318,56.643,126.36z"/>
</g>
</svg>
