<?xml version="1.0" encoding="UTF-8"?>
<!DOCTYPE svg PUBLIC "-//W3C//DTD SVG 1.1//EN" "http://www.w3.org/Graphics/SVG/1.1/DTD/svg11.dtd">
<!-- Creator: CorelDRAW X8 -->
<svg xmlns="http://www.w3.org/2000/svg" xml:space="preserve" width="512px" height="450px" version="1.1" style="shape-rendering:geometricPrecision; text-rendering:geometricPrecision; image-rendering:optimizeQuality; fill-rule:evenodd; clip-rule:evenodd"
viewBox="0 0 512 450"
 xmlns:xlink="http://www.w3.org/1999/xlink">
 <defs>
  <style type="text/css">
   <![CDATA[
    .fil1 {fill:#8A0020}
    .fil2 {fill:#CA003E}
    .fil0 {fill:#CB013F}
    .fil3 {fill:#ED0049}
    .fil4 {fill:#FF2D59}
   ]]>
  </style>
 </defs>
 <g id="Layer_x0020_1">
  <metadata id="CorelCorpID_0Corel-Layer"/>
  <g id="_1572945391968">
   <polygon class="fil0" points="456,145 512,145 396,278 380,278 "/>
   <polygon class="fil0" points="324,375 369,296 392,296 441,240 481,240 478,243 345,357 "/>
   <path class="fil1" d="M281 360c1,-2 1,-1 0,0l0 0z"/>
   <path class="fil2" d="M470 68l0 35 -40 -67 -15 0 47 81 -88 153 -88 153c-10,0 -20,0 -30,0 -10,0 -20,0 -30,0l-176 -306 47 -81 -15 0 -40 67 0 -35 33 -56 121 0 18 24c14,0 28,0 42,0 14,0 28,0 42,0l18 -24 121 0 33 56zm-273 -21l-93 0 -9 14 12 18 -15 26 -22 0 -6 11 6 10c13,23 25,44 38,67l4 7 17 0 51 87 -10 15 28 48c23,40 4,8 0,0l0 0c2,4 8,15 22,39l13 22 5 0 3 -14 3 -13c4,0 8,0 12,0 4,0 8,0 12,0l6 27 5 0 13 -22c14,-24 20,-35 22,-39l0 0c-4,8 -23,40 0,0l28 -48 -10 -15 51 -87 17 0 4 -7c13,-23 25,-44 38,-67l6 -10 -6 -11 -22 0 -15 -26 12 -18 -9 -14 -93 0 -5 7 -4 8c0,0 -25,0 -50,0 -25,0 -50,0 -50,0l-9 -15z"/>
   <path class="fil0" d="M290 23l8 -11 8 -12c-17,0 -33,0 -50,0 -17,0 -33,0 -50,0l8 12 8 11c12,0 23,0 34,0 11,0 22,0 34,0z"/>
   <path class="fil0" d="M201 398l-40 -34 -57 -49 53 67 53 68 1 0 1 0c15,0 30,0 45,0 15,0 30,0 45,0l106 -135 -57 49 -40 34 -10 17 -10 17c-11,0 -23,0 -35,0 -12,0 -24,0 -35,0l-20 -34zm-145 -253l-56 0 116 133 16 0 -76 -133zm132 230l-45 -79 -23 0 -49 -56 -40 0 3 3 133 114 21 18z"/>
   <path class="fil1" d="M231 360c-1,-2 -1,-1 0,0l0 0z"/>
   <path class="fil3" d="M330 70l52 0 -5 8 29 51 8 0 -28 47 0 0c-8,1 -17,2 -23,12l-48 82c-2,2 -3,5 -4,7 -3,8 0,16 3,25l-33 58 0 0 0 0c-17,0 -33,0 -50,0l0 0 0 0 -33 -58c3,-9 6,-17 3,-25 -1,-2 -2,-5 -4,-7l-48 -82c-6,-10 -15,-11 -23,-12l0 0 -28 -47 8 0 29 -51 -5 -8 52 0c3,6 9,11 15,14 3,1 6,2 9,2l0 0c33,0 67,0 100,0l0 0c3,0 6,-1 9,-2 6,-3 12,-8 15,-14z"/>
   <path class="fil4" d="M206 76c-3,0 -7,-2 -10,-5 -5,-3 -7,-7 -7,-11l-78 0 12 18 -23 40 -19 0c13,24 25,45 39,68 1,0 1,0 5,0 6,1 12,1 15,7l49 82c2,4 3,7 3,10 0,4 -2,9 -5,17l-1 0c15,26 31,54 46,80l0 -6 0 -6c8,0 16,0 24,0 8,0 16,0 24,0l0 12c15,-26 31,-54 46,-80l-1 0c-3,-8 -5,-13 -5,-17 0,-3 1,-6 3,-10l49 -82c3,-6 9,-6 15,-7 4,0 4,0 5,0 14,-23 26,-44 39,-68l-19 0 -23 -40 12 -18 -78 0c0,4 -2,8 -7,11 -1,2 -3,3 -5,4 -2,0 -3,1 -5,1 -17,0 -33,0 -50,0 -17,0 -33,0 -50,0zm25 284l-33 -58c3,-9 6,-17 3,-25 -1,-2 -2,-5 -4,-7l-48 -82c-6,-10 -15,-11 -23,-12l0 0 -28 -47 8 0 29 -51 -5 -8 52 0c3,6 9,11 15,14 1,1 3,1 4,1 2,1 4,1 5,1l0 0 0 0c17,0 33,0 50,0 17,0 33,0 50,0l0 0 0 0c3,0 6,-1 9,-2 6,-3 12,-8 15,-14l52 0 -5 8 29 51 8 0 -28 47 0 0c-8,1 -17,2 -23,12l-48 82c-2,2 -3,5 -4,7 -3,8 0,16 3,25l-16 29 -17 29c-8,0 -17,0 -25,0 -8,0 -17,0 -25,0z"/>
   <path class="fil1" d="M295 170c-7,0 -14,0 -20,0l5 -10 0 -23c10,0 20,0 30,0l0 23 6 10c-7,0 -14,0 -21,0zm23 95c-6,9 -10,15 -7,28l-36 0 -4 -4 3 -109 2 -2c0,0 38,0 38,0l2 2 2 85zm-4 35c0,1 0,1 0,2l-23 40 -17 0 0 -7 -3 -1 0 -21 3 0 0 -6 -3 -2 0 -5 43 0zm-93 42l-23 -40c0,-1 0,-1 0,-2l43 0 0 5 -3 2 0 6 3 0 0 21 -3 1 0 7 -17 0zm-20 -49c2,-9 1,-15 -4,-23l-3 -5 2 -85 2 -2c0,0 38,0 38,0l2 2 3 109 -4 4 -36 0zm10 -207l12 0c5,15 8,30 9,44l-30 0c1,-14 4,-29 9,-44zm78 0l12 0c5,15 8,30 9,44l-30 0c1,-14 4,-29 9,-44zm-72 84c-7,0 -14,0 -21,0l6 -10 0 -23c10,0 20,0 30,0l0 23 5 10c-6,0 -13,0 -20,0z"/>
  </g>
 </g>
</svg>
